<?xml version="1.0" encoding="UTF-8" standalone="no"?>
<!-- This is a Stata 15.1 generated SVG file (http://www.stata.com) -->

<svg version="1.1" width="5.50in" height="4.00in" viewBox="0 0 3960 2880" xmlns="http://www.w3.org/2000/svg" xmlns:xlink="http://www.w3.org/1999/xlink">
	<desc>Stata Graph - Graph</desc>
	<rect x="0" y="0" width="3960" height="2880" style="fill:#EAF2F3;stroke:none"/>
	<rect x="0.00" y="0.00" width="3959.88" height="2880.00" style="fill:#EAF2F3"/>
	<rect x="2.88" y="2.88" width="3954.12" height="2874.24" style="fill:none;stroke:#EAF2F3;stroke-width:5.76"/>
	<rect x="290.81" y="100.86" width="3568.21" height="1992.81" style="fill:#FFFFFF"/>
	<rect x="293.69" y="103.74" width="3562.45" height="1987.05" style="fill:none;stroke:#FFFFFF;stroke-width:5.76"/>
	<line x1="290.81" y1="2030.31" x2="3859.02" y2="2030.31" style="stroke:#EAF2F3;stroke-width:8.64"/>
	<line x1="290.81" y1="1428.37" x2="3859.02" y2="1428.37" style="stroke:#EAF2F3;stroke-width:8.64"/>
	<line x1="290.81" y1="826.30" x2="3859.02" y2="826.30" style="stroke:#EAF2F3;stroke-width:8.64"/>
	<line x1="290.81" y1="224.37" x2="3859.02" y2="224.37" style="stroke:#EAF2F3;stroke-width:8.64"/>
	<circle cx="2047.57" cy="1729.34" r="26.35" style="fill:#FF0000"/>
	<circle cx="2047.57" cy="1729.34" r="22.03" style="fill:none;stroke:#FF0000;stroke-width:8.64"/>
	<circle cx="2817.42" cy="1789.60" r="26.35" style="fill:#FF0000"/>
	<circle cx="2817.42" cy="1789.60" r="22.03" style="fill:none;stroke:#FF0000;stroke-width:8.64"/>
	<circle cx="3491.48" cy="1789.60" r="26.35" style="fill:#FF0000"/>
	<circle cx="3491.48" cy="1789.60" r="22.03" style="fill:none;stroke:#FF0000;stroke-width:8.64"/>
	<circle cx="3795.66" cy="1368.22" r="26.35" style="fill:#FF0000"/>
	<circle cx="3795.66" cy="1368.22" r="22.03" style="fill:none;stroke:#FF0000;stroke-width:8.64"/>
	<circle cx="1221.78" cy="1548.78" r="26.35" style="fill:#FF0000"/>
	<circle cx="1221.78" cy="1548.78" r="22.03" style="fill:none;stroke:#FF0000;stroke-width:8.64"/>
	<circle cx="1627.68" cy="1669.19" r="26.35" style="fill:#FF0000"/>
	<circle cx="1627.68" cy="1669.19" r="22.03" style="fill:none;stroke:#FF0000;stroke-width:8.64"/>
	<circle cx="2841.67" cy="1910.02" r="26.35" style="fill:#FF0000"/>
	<circle cx="2841.67" cy="1910.02" r="22.03" style="fill:none;stroke:#FF0000;stroke-width:8.64"/>
	<circle cx="3295.46" cy="1910.02" r="26.35" style="fill:#FF0000"/>
	<circle cx="3295.46" cy="1910.02" r="22.03" style="fill:none;stroke:#FF0000;stroke-width:8.64"/>
	<circle cx="3267.74" cy="1789.60" r="26.35" style="fill:#FF0000"/>
	<circle cx="3267.74" cy="1789.60" r="22.03" style="fill:none;stroke:#FF0000;stroke-width:8.64"/>
	<circle cx="1687.95" cy="1729.34" r="26.35" style="fill:#FF0000"/>
	<circle cx="1687.95" cy="1729.34" r="22.03" style="fill:none;stroke:#FF0000;stroke-width:8.64"/>
	<circle cx="1331.18" cy="1548.78" r="26.35" style="fill:#FF0000"/>
	<circle cx="1331.18" cy="1548.78" r="22.03" style="fill:none;stroke:#FF0000;stroke-width:8.64"/>
	<circle cx="2261.16" cy="1368.22" r="26.35" style="fill:#FF0000"/>
	<circle cx="2261.16" cy="1368.22" r="22.03" style="fill:none;stroke:#FF0000;stroke-width:8.64"/>
	<circle cx="2598.01" cy="1669.19" r="26.35" style="fill:#FF0000"/>
	<circle cx="2598.01" cy="1669.19" r="22.03" style="fill:none;stroke:#FF0000;stroke-width:8.64"/>
	<line x1="1221.78" y1="1617.22" x2="2508.66" y2="1679.71" stroke-linecap="round" style="stroke:#FF0000;stroke-width:8.64"/>
	<line x1="2508.66" y1="1679.71" x2="3795.66" y2="1742.08" stroke-linecap="round" style="stroke:#FF0000;stroke-width:8.64"/>
	<polygon points="1381.67,1571.08 1348.79,1628.03 1414.55,1628.03" style="fill:#008000"/>
	<polygon points="1381.67,1579.72 1356.27,1623.71 1407.07,1623.71" style="fill:none;stroke:#008000;stroke-width:8.64"/>
	<polygon points="1396.15,1390.40 1363.27,1447.35 1429.03,1447.35" style="fill:#008000"/>
	<polygon points="1396.15,1399.04 1370.75,1443.03 1421.55,1443.03" style="fill:none;stroke:#008000;stroke-width:8.64"/>
	<polygon points="1606.40,1510.81 1573.52,1567.76 1639.28,1567.76" style="fill:#008000"/>
	<polygon points="1606.40,1519.45 1581.00,1563.44 1631.80,1563.44" style="fill:none;stroke:#008000;stroke-width:8.64"/>
	<polygon points="1317.57,1029.28 1284.68,1086.24 1350.45,1086.24" style="fill:#008000"/>
	<polygon points="1317.57,1037.92 1292.17,1081.92 1342.97,1081.92" style="fill:none;stroke:#008000;stroke-width:8.64"/>
	<polygon points="1476.83,1390.40 1443.95,1447.35 1509.71,1447.35" style="fill:#008000"/>
	<polygon points="1476.83,1399.04 1451.43,1443.03 1502.23,1443.03" style="fill:none;stroke:#008000;stroke-width:8.64"/>
	<polygon points="2598.26,1631.22 2565.37,1688.18 2631.14,1688.18" style="fill:#008000"/>
	<polygon points="2598.26,1639.86 2572.86,1683.86 2623.65,1683.86" style="fill:none;stroke:#008000;stroke-width:8.64"/>
	<polygon points="1067.84,848.60 1034.96,905.56 1100.72,905.56" style="fill:#008000"/>
	<polygon points="1067.84,857.24 1042.44,901.24 1093.24,901.24" style="fill:none;stroke:#008000;stroke-width:8.64"/>
	<polygon points="1588.45,1631.22 1555.57,1688.18 1621.34,1688.18" style="fill:#008000"/>
	<polygon points="1588.45,1639.86 1563.06,1683.86 1613.85,1683.86" style="fill:none;stroke:#008000;stroke-width:8.64"/>
	<polygon points="1328.58,1269.99 1295.70,1326.94 1361.46,1326.94" style="fill:#008000"/>
	<polygon points="1328.58,1278.63 1303.18,1322.62 1353.98,1322.62" style="fill:none;stroke:#008000;stroke-width:8.64"/>
	<polygon points="1458.39,1269.99 1425.51,1326.94 1491.28,1326.94" style="fill:#008000"/>
	<polygon points="1458.39,1278.63 1432.99,1322.62 1483.79,1322.62" style="fill:none;stroke:#008000;stroke-width:8.64"/>
	<polygon points="1147.53,1149.70 1114.65,1206.65 1180.42,1206.65" style="fill:#008000"/>
	<polygon points="1147.53,1158.34 1122.13,1202.33 1172.93,1202.33" style="fill:none;stroke:#008000;stroke-width:8.64"/>
	<polygon points="1209.78,1450.67 1176.90,1507.62 1242.66,1507.62" style="fill:#008000"/>
	<polygon points="1209.78,1459.31 1184.38,1503.30 1235.18,1503.30" style="fill:none;stroke:#008000;stroke-width:8.64"/>
	<polygon points="1726.31,1571.08 1693.43,1628.03 1759.19,1628.03" style="fill:#008000"/>
	<polygon points="1726.31,1579.72 1700.91,1623.71 1751.71,1623.71" style="fill:none;stroke:#008000;stroke-width:8.64"/>
	<polygon points="1182.56,1269.99 1149.67,1326.94 1215.44,1326.94" style="fill:#008000"/>
	<polygon points="1182.56,1278.63 1157.16,1322.62 1207.95,1322.62" style="fill:none;stroke:#008000;stroke-width:8.64"/>
	<polygon points="1517.92,1751.64 1485.04,1808.59 1550.80,1808.59" style="fill:#008000"/>
	<polygon points="1517.92,1760.28 1492.52,1804.27 1543.32,1804.27" style="fill:none;stroke:#008000;stroke-width:8.64"/>
	<polygon points="1717.90,1751.64 1685.02,1808.59 1750.78,1808.59" style="fill:#008000"/>
	<polygon points="1717.90,1760.28 1692.50,1804.27 1743.30,1804.27" style="fill:none;stroke:#008000;stroke-width:8.64"/>
	<polygon points="1473.12,1450.67 1440.24,1507.62 1506.00,1507.62" style="fill:#008000"/>
	<polygon points="1473.12,1459.31 1447.72,1503.30 1498.52,1503.30" style="fill:none;stroke:#008000;stroke-width:8.64"/>
	<polygon points="1378.20,1450.67 1345.32,1507.62 1411.09,1507.62" style="fill:#008000"/>
	<polygon points="1378.20,1459.31 1352.80,1503.30 1403.60,1503.30" style="fill:none;stroke:#008000;stroke-width:8.64"/>
	<polygon points="1412.11,1510.81 1379.23,1567.76 1444.99,1567.76" style="fill:#008000"/>
	<polygon points="1412.11,1519.45 1386.71,1563.44 1437.51,1563.44" style="fill:none;stroke:#008000;stroke-width:8.64"/>
	<polygon points="1261.76,1149.70 1228.87,1206.65 1294.64,1206.65" style="fill:#008000"/>
	<polygon points="1261.76,1158.34 1236.36,1202.33 1287.15,1202.33" style="fill:none;stroke:#008000;stroke-width:8.64"/>
	<polygon points="1311.50,547.63 1278.62,604.59 1344.38,604.59" style="fill:#008000"/>
	<polygon points="1311.50,556.27 1286.10,600.27 1336.90,600.27" style="fill:none;stroke:#008000;stroke-width:8.64"/>
	<polygon points="1608.63,1510.81 1575.74,1567.76 1641.51,1567.76" style="fill:#008000"/>
	<polygon points="1608.63,1519.45 1583.23,1563.44 1634.03,1563.44" style="fill:none;stroke:#008000;stroke-width:8.64"/>
	<polygon points="1484.01,1450.67 1451.13,1507.62 1516.89,1507.62" style="fill:#008000"/>
	<polygon points="1484.01,1459.31 1458.61,1503.30 1509.41,1503.30" style="fill:none;stroke:#008000;stroke-width:8.64"/>
	<polygon points="1375.98,1450.67 1343.09,1507.62 1408.86,1507.62" style="fill:#008000"/>
	<polygon points="1375.98,1459.31 1350.58,1503.30 1401.38,1503.30" style="fill:none;stroke:#008000;stroke-width:8.64"/>
	<polygon points="1256.81,1149.70 1223.92,1206.65 1289.69,1206.65" style="fill:#008000"/>
	<polygon points="1256.81,1158.34 1231.41,1202.33 1282.20,1202.33" style="fill:none;stroke:#008000;stroke-width:8.64"/>
	<polygon points="2949.46,1571.08 2916.58,1628.03 2982.34,1628.03" style="fill:#008000"/>
	<polygon points="2949.46,1579.72 2924.06,1623.71 2974.86,1623.71" style="fill:none;stroke:#008000;stroke-width:8.64"/>
	<line x1="1067.84" y1="1269.71" x2="2008.71" y2="1573.53" stroke-linecap="round" style="stroke:#008000;stroke-width:8.64"/>
	<line x1="2008.71" y1="1573.53" x2="2949.46" y2="1877.35" stroke-linecap="round" style="stroke:#008000;stroke-width:8.64"/>
	<rect x="1149.77" y="1281.61" width="52.69" height="52.70" style="fill:#0000FF"/>
	<rect x="1154.09" y="1285.93" width="44.05" height="44.06" style="fill:none;stroke:#0000FF;stroke-width:8.64"/>
	<rect x="1210.91" y="1462.29" width="52.69" height="52.70" style="fill:#0000FF"/>
	<rect x="1215.22" y="1466.61" width="44.05" height="44.06" style="fill:none;stroke:#0000FF;stroke-width:8.64"/>
	<rect x="1277.36" y="920.49" width="52.69" height="52.70" style="fill:#0000FF"/>
	<rect x="1281.68" y="924.81" width="44.05" height="44.06" style="fill:none;stroke:#0000FF;stroke-width:8.64"/>
	<rect x="1233.68" y="1341.87" width="52.69" height="52.70" style="fill:#0000FF"/>
	<rect x="1237.99" y="1346.19" width="44.05" height="44.06" style="fill:none;stroke:#0000FF;stroke-width:8.64"/>
	<rect x="1039.76" y="1402.02" width="52.69" height="52.70" style="fill:#0000FF"/>
	<rect x="1044.08" y="1406.34" width="44.05" height="44.06" style="fill:none;stroke:#0000FF;stroke-width:8.64"/>
	<rect x="1232.31" y="1462.29" width="52.69" height="52.70" style="fill:#0000FF"/>
	<rect x="1236.63" y="1466.61" width="44.05" height="44.06" style="fill:none;stroke:#0000FF;stroke-width:8.64"/>
	<rect x="1333.17" y="920.49" width="52.69" height="52.70" style="fill:#0000FF"/>
	<rect x="1337.49" y="924.81" width="44.05" height="44.06" style="fill:none;stroke:#0000FF;stroke-width:8.64"/>
	<rect x="1297.53" y="1101.05" width="52.69" height="52.70" style="fill:#0000FF"/>
	<rect x="1301.85" y="1105.37" width="44.05" height="44.06" style="fill:none;stroke:#0000FF;stroke-width:8.64"/>
	<rect x="1206.20" y="1522.43" width="52.69" height="52.70" style="fill:#0000FF"/>
	<rect x="1210.52" y="1526.75" width="44.05" height="44.06" style="fill:none;stroke:#0000FF;stroke-width:8.64"/>
	<rect x="1395.29" y="1522.43" width="52.69" height="52.70" style="fill:#0000FF"/>
	<rect x="1399.61" y="1526.75" width="44.05" height="44.06" style="fill:none;stroke:#0000FF;stroke-width:8.64"/>
	<rect x="1284.91" y="1462.29" width="52.69" height="52.70" style="fill:#0000FF"/>
	<rect x="1289.23" y="1466.61" width="44.05" height="44.06" style="fill:none;stroke:#0000FF;stroke-width:8.64"/>
	<rect x="2424.40" y="1582.70" width="52.69" height="52.70" style="fill:#0000FF"/>
	<rect x="2428.72" y="1587.02" width="44.05" height="44.06" style="fill:none;stroke:#0000FF;stroke-width:8.64"/>
	<rect x="1257.31" y="1341.87" width="52.69" height="52.70" style="fill:#0000FF"/>
	<rect x="1261.63" y="1346.19" width="44.05" height="44.06" style="fill:none;stroke:#0000FF;stroke-width:8.64"/>
	<rect x="1582.40" y="1101.05" width="52.69" height="52.70" style="fill:#0000FF"/>
	<rect x="1586.72" y="1105.37" width="44.05" height="44.06" style="fill:none;stroke:#0000FF;stroke-width:8.64"/>
	<rect x="1301.24" y="920.49" width="52.69" height="52.70" style="fill:#0000FF"/>
	<rect x="1305.56" y="924.81" width="44.05" height="44.06" style="fill:none;stroke:#0000FF;stroke-width:8.64"/>
	<rect x="1604.06" y="1522.43" width="52.69" height="52.70" style="fill:#0000FF"/>
	<rect x="1608.38" y="1526.75" width="44.05" height="44.06" style="fill:none;stroke:#0000FF;stroke-width:8.64"/>
	<rect x="1138.64" y="739.81" width="52.69" height="52.70" style="fill:#0000FF"/>
	<rect x="1142.95" y="744.13" width="44.05" height="44.06" style="fill:none;stroke:#0000FF;stroke-width:8.64"/>
	<rect x="1565.20" y="1522.43" width="52.69" height="52.70" style="fill:#0000FF"/>
	<rect x="1569.52" y="1526.75" width="44.05" height="44.06" style="fill:none;stroke:#0000FF;stroke-width:8.64"/>
	<line x1="1066.11" y1="1222.81" x2="1758.49" y2="1412.53" stroke-linecap="round" style="stroke:#0000FF;stroke-width:8.64"/>
	<line x1="1758.49" y1="1412.53" x2="2450.74" y2="1602.24" stroke-linecap="round" style="stroke:#0000FF;stroke-width:8.64"/>
	<polygon points="1203.67,1307.95 1240.96,1270.66 1278.26,1307.95 1240.96,1345.25" style="fill:#800080"/>
	<polygon points="1209.78,1307.95 1240.96,1276.77 1272.15,1307.95 1240.96,1339.14" style="fill:none;stroke:#800080;stroke-width:8.64"/>
	<polygon points="1178.80,826.43 1216.09,789.13 1253.39,826.43 1216.09,863.72" style="fill:#800080"/>
	<polygon points="1184.91,826.43 1216.09,795.24 1247.28,826.43 1216.09,857.61" style="fill:none;stroke:#800080;stroke-width:8.64"/>
	<polygon points="1720.20,1067.25 1757.50,1029.96 1794.79,1067.25 1757.50,1104.55" style="fill:#800080"/>
	<polygon points="1726.31,1067.25 1757.50,1036.07 1788.68,1067.25 1757.50,1098.44" style="fill:none;stroke:#800080;stroke-width:8.64"/>
	<polygon points="1678.87,1247.81 1716.16,1210.52 1753.46,1247.81 1716.16,1285.10" style="fill:#800080"/>
	<polygon points="1684.98,1247.81 1716.16,1216.63 1747.35,1247.81 1716.16,1279.00" style="fill:none;stroke:#800080;stroke-width:8.64"/>
	<polygon points="2423.10,1127.40 2460.40,1090.10 2497.69,1127.40 2460.40,1164.69" style="fill:#800080"/>
	<polygon points="2429.21,1127.40 2460.40,1096.21 2491.58,1127.40 2460.40,1158.58" style="fill:none;stroke:#800080;stroke-width:8.64"/>
	<polygon points="1664.52,1247.81 1701.81,1210.52 1739.10,1247.81 1701.81,1285.10" style="fill:#800080"/>
	<polygon points="1670.62,1247.81 1701.81,1216.63 1732.99,1247.81 1701.81,1279.00" style="fill:none;stroke:#800080;stroke-width:8.64"/>
	<polygon points="1309.72,525.46 1347.02,488.16 1384.31,525.46 1347.02,562.75" style="fill:#800080"/>
	<polygon points="1315.83,525.46 1347.02,494.27 1378.20,525.46 1347.02,556.64" style="fill:none;stroke:#800080;stroke-width:8.64"/>
	<polygon points="1415.78,1187.67 1453.07,1150.37 1490.37,1187.67 1453.07,1224.96" style="fill:#800080"/>
	<polygon points="1421.89,1187.67 1453.07,1156.48 1484.26,1187.67 1453.07,1218.85" style="fill:none;stroke:#800080;stroke-width:8.64"/>
	<polygon points="2075.61,1368.22 2112.91,1330.93 2150.20,1368.22 2112.91,1405.52" style="fill:#800080"/>
	<polygon points="2081.72,1368.22 2112.91,1337.04 2144.09,1368.22 2112.91,1399.41" style="fill:none;stroke:#800080;stroke-width:8.64"/>
	<polygon points="1181.15,826.43 1218.44,789.13 1255.74,826.43 1218.44,863.72" style="fill:#800080"/>
	<polygon points="1187.26,826.43 1218.44,795.24 1249.63,826.43 1218.44,857.61" style="fill:none;stroke:#800080;stroke-width:8.64"/>
	<polygon points="3127.49,1789.60 3164.78,1752.31 3202.08,1789.60 3164.78,1826.90" style="fill:#800080"/>
	<polygon points="3133.60,1789.60 3164.78,1758.42 3195.97,1789.60 3164.78,1820.79" style="fill:none;stroke:#800080;stroke-width:8.64"/>
	<polygon points="1159.49,1067.25 1196.79,1029.96 1234.08,1067.25 1196.79,1104.55" style="fill:#800080"/>
	<polygon points="1165.60,1067.25 1196.79,1036.07 1227.97,1067.25 1196.79,1098.44" style="fill:none;stroke:#800080;stroke-width:8.64"/>
	<polygon points="1138.58,525.46 1175.87,488.16 1213.17,525.46 1175.87,562.75" style="fill:#800080"/>
	<polygon points="1144.69,525.46 1175.87,494.27 1207.06,525.46 1175.87,556.64" style="fill:none;stroke:#800080;stroke-width:8.64"/>
	<polygon points="1861.65,1247.81 1898.94,1210.52 1936.24,1247.81 1898.94,1285.10" style="fill:#800080"/>
	<polygon points="1867.76,1247.81 1898.94,1216.63 1930.13,1247.81 1898.94,1279.00" style="fill:none;stroke:#800080;stroke-width:8.64"/>
	<polygon points="1484.58,164.22 1521.88,126.93 1559.17,164.22 1521.88,201.52" style="fill:#800080"/>
	<polygon points="1490.69,164.22 1521.88,133.04 1553.06,164.22 1521.88,195.41" style="fill:none;stroke:#800080;stroke-width:8.64"/>
	<polygon points="1333.11,1127.40 1370.41,1090.10 1407.70,1127.40 1370.41,1164.69" style="fill:#800080"/>
	<polygon points="1339.22,1127.40 1370.41,1096.21 1401.59,1127.40 1370.41,1158.58" style="fill:none;stroke:#800080;stroke-width:8.64"/>
	<polygon points="1798.91,1127.40 1836.20,1090.10 1873.50,1127.40 1836.20,1164.69" style="fill:#800080"/>
	<polygon points="1805.02,1127.40 1836.20,1096.21 1867.39,1127.40 1836.20,1158.58" style="fill:none;stroke:#800080;stroke-width:8.64"/>
	<line x1="1175.87" y1="827.91" x2="2170.33" y2="1266.74" stroke-linecap="round" style="stroke:#800080;stroke-width:8.64"/>
	<line x1="2170.33" y1="1266.74" x2="3164.78" y2="1705.58" stroke-linecap="round" style="stroke:#800080;stroke-width:8.64"/>
	<line x1="290.81" y1="2093.67" x2="290.81" y2="100.86" style="stroke:#000000;stroke-width:5.76"/>
	<line x1="290.81" y1="2030.31" x2="250.84" y2="2030.31" style="stroke:#000000;stroke-width:5.76"/>
	<text x="200.73" y="2030.31" style="font-family:'Helvetica';font-size:99.99px;fill:#000000" transform="rotate(-90 200.73,2030.31)" text-anchor="middle">10</text>
	<line x1="290.81" y1="1428.37" x2="250.84" y2="1428.37" style="stroke:#000000;stroke-width:5.76"/>
	<text x="200.73" y="1428.37" style="font-family:'Helvetica';font-size:99.99px;fill:#000000" transform="rotate(-90 200.73,1428.37)" text-anchor="middle">20</text>
	<line x1="290.81" y1="826.30" x2="250.84" y2="826.30" style="stroke:#000000;stroke-width:5.76"/>
	<text x="200.73" y="826.30" style="font-family:'Helvetica';font-size:99.99px;fill:#000000" transform="rotate(-90 200.73,826.30)" text-anchor="middle">30</text>
	<line x1="290.81" y1="224.37" x2="250.84" y2="224.37" style="stroke:#000000;stroke-width:5.76"/>
	<text x="200.73" y="224.37" style="font-family:'Helvetica';font-size:99.99px;fill:#000000" transform="rotate(-90 200.73,224.37)" text-anchor="middle">40</text>
	<line x1="290.81" y1="2093.67" x2="3859.02" y2="2093.67" style="stroke:#000000;stroke-width:5.76"/>
	<line x1="354.17" y1="2093.67" x2="354.17" y2="2133.64" style="stroke:#000000;stroke-width:5.76"/>
	<text x="354.17" y="2223.62" style="font-family:'Helvetica';font-size:99.99px;fill:#000000" text-anchor="middle">0</text>
	<line x1="1435.99" y1="2093.67" x2="1435.99" y2="2133.64" style="stroke:#000000;stroke-width:5.76"/>
	<text x="1435.99" y="2223.62" style="font-family:'Helvetica';font-size:99.99px;fill:#000000" text-anchor="middle">5,000</text>
	<line x1="2517.82" y1="2093.67" x2="2517.82" y2="2133.64" style="stroke:#000000;stroke-width:5.76"/>
	<text x="2517.82" y="2223.62" style="font-family:'Helvetica';font-size:99.99px;fill:#000000" text-anchor="middle">10,000</text>
	<line x1="3599.64" y1="2093.67" x2="3599.64" y2="2133.64" style="stroke:#000000;stroke-width:5.76"/>
	<text x="3599.64" y="2223.62" style="font-family:'Helvetica';font-size:99.99px;fill:#000000" text-anchor="middle">15,000</text>
	<text x="2074.92" y="2333.64" style="font-family:'Helvetica';font-size:99.99px;fill:#000000" text-anchor="middle">Price</text>
	<rect x="1474.48" y="2418.27" width="1200.87" height="326.34" style="fill:#FFFFFF"/>
	<rect x="1477.36" y="2421.15" width="1195.11" height="320.58" style="fill:none;stroke:#000000;stroke-width:5.76"/>
	<circle cx="1539.70" cy="2511.46" r="26.35" style="fill:#FF0000"/>
	<circle cx="1539.70" cy="2511.46" r="22.03" style="fill:none;stroke:#FF0000;stroke-width:8.64"/>
	<polygon points="2166.99,2473.49 2134.10,2530.45 2199.87,2530.45" style="fill:#008000"/>
	<polygon points="2166.99,2482.13 2141.59,2526.13 2192.39,2526.13" style="fill:none;stroke:#008000;stroke-width:8.64"/>
	<rect x="1513.35" y="2625.08" width="52.69" height="52.70" style="fill:#0000FF"/>
	<rect x="1517.67" y="2629.40" width="44.05" height="44.06" style="fill:none;stroke:#0000FF;stroke-width:8.64"/>
	<polygon points="2129.69,2651.43 2166.99,2614.13 2204.28,2651.43 2166.99,2688.72" style="fill:#800080"/>
	<polygon points="2135.80,2651.43 2166.99,2620.24 2198.17,2651.43 2166.99,2682.61" style="fill:none;stroke:#800080;stroke-width:8.64"/>
	<text x="1621.74" y="2546.49" style="font-family:'Helvetica';font-size:99.99px;fill:#000000">&lt; 2.5</text>
	<text x="2248.91" y="2546.49" style="font-family:'Helvetica';font-size:99.99px;fill:#000000">2.5 - 3.0</text>
	<text x="1621.74" y="2686.46" style="font-family:'Helvetica';font-size:99.99px;fill:#000000">3.0 - 3.5</text>
	<text x="2248.91" y="2686.46" style="font-family:'Helvetica';font-size:99.99px;fill:#000000">&gt; 3.5</text>
</svg>
