<?xml version="1.0" encoding="UTF-8" standalone="no"?>
<!-- This is a Stata 16.0 generated SVG file (http://www.stata.com) -->

<svg version="1.1" width="5.50in" height="4.00in" viewBox="0 0 3960 2880" xmlns="http://www.w3.org/2000/svg" xmlns:xlink="http://www.w3.org/1999/xlink">
	<desc>Stata Graph - Graph</desc>
	<rect x="0" y="0" width="3960" height="2880" style="fill:#EAF2F3;stroke:none"/>
	<rect x="0.00" y="0.00" width="3959.88" height="2880.00" style="fill:#EAF2F3"/>
	<rect x="2.88" y="2.88" width="3954.12" height="2874.24" style="fill:none;stroke:#EAF2F3;stroke-width:5.76"/>
	<rect x="390.80" y="100.86" width="3468.22" height="1992.81" style="fill:#FFFFFF"/>
	<rect x="393.68" y="103.74" width="3462.46" height="1987.05" style="fill:none;stroke:#FFFFFF;stroke-width:5.76"/>
	<line x1="390.80" y1="2030.31" x2="3859.02" y2="2030.31" style="stroke:#EAF2F3;stroke-width:8.64"/>
	<line x1="390.80" y1="1428.37" x2="3859.02" y2="1428.37" style="stroke:#EAF2F3;stroke-width:8.64"/>
	<line x1="390.80" y1="826.30" x2="3859.02" y2="826.30" style="stroke:#EAF2F3;stroke-width:8.64"/>
	<line x1="390.80" y1="224.37" x2="3859.02" y2="224.37" style="stroke:#EAF2F3;stroke-width:8.64"/>
	<circle cx="2098.43" cy="1729.34" r="26.35" style="fill:#FF0000"/>
	<circle cx="2098.43" cy="1729.34" r="22.03" style="fill:none;stroke:#FF0000;stroke-width:8.64"/>
	<circle cx="2845.88" cy="1789.60" r="26.35" style="fill:#FF0000"/>
	<circle cx="2845.88" cy="1789.60" r="22.03" style="fill:none;stroke:#FF0000;stroke-width:8.64"/>
	<circle cx="3500.27" cy="1789.60" r="26.35" style="fill:#FF0000"/>
	<circle cx="3500.27" cy="1789.60" r="22.03" style="fill:none;stroke:#FF0000;stroke-width:8.64"/>
	<circle cx="3795.66" cy="1368.22" r="26.35" style="fill:#FF0000"/>
	<circle cx="3795.66" cy="1368.22" r="22.03" style="fill:none;stroke:#FF0000;stroke-width:8.64"/>
	<circle cx="1296.53" cy="1548.78" r="26.35" style="fill:#FF0000"/>
	<circle cx="1296.53" cy="1548.78" r="22.03" style="fill:none;stroke:#FF0000;stroke-width:8.64"/>
	<circle cx="1690.67" cy="1669.19" r="26.35" style="fill:#FF0000"/>
	<circle cx="1690.67" cy="1669.19" r="22.03" style="fill:none;stroke:#FF0000;stroke-width:8.64"/>
	<circle cx="2869.39" cy="1910.02" r="26.35" style="fill:#FF0000"/>
	<circle cx="2869.39" cy="1910.02" r="22.03" style="fill:none;stroke:#FF0000;stroke-width:8.64"/>
	<circle cx="3309.94" cy="1910.02" r="26.35" style="fill:#FF0000"/>
	<circle cx="3309.94" cy="1910.02" r="22.03" style="fill:none;stroke:#FF0000;stroke-width:8.64"/>
	<circle cx="3283.09" cy="1789.60" r="26.35" style="fill:#FF0000"/>
	<circle cx="3283.09" cy="1789.60" r="22.03" style="fill:none;stroke:#FF0000;stroke-width:8.64"/>
	<circle cx="1749.21" cy="1729.34" r="26.35" style="fill:#FF0000"/>
	<circle cx="1749.21" cy="1729.34" r="22.03" style="fill:none;stroke:#FF0000;stroke-width:8.64"/>
	<circle cx="1402.83" cy="1548.78" r="26.35" style="fill:#FF0000"/>
	<circle cx="1402.83" cy="1548.78" r="22.03" style="fill:none;stroke:#FF0000;stroke-width:8.64"/>
	<circle cx="2305.71" cy="1368.22" r="26.35" style="fill:#FF0000"/>
	<circle cx="2305.71" cy="1368.22" r="22.03" style="fill:none;stroke:#FF0000;stroke-width:8.64"/>
	<circle cx="2632.91" cy="1669.19" r="26.35" style="fill:#FF0000"/>
	<circle cx="2632.91" cy="1669.19" r="22.03" style="fill:none;stroke:#FF0000;stroke-width:8.64"/>
	<path d=" M1296.53 1617.22 L2546.03 1679.71 L3795.66 1742.08" stroke-linejoin="round" style="fill:none;stroke:#FF0000;stroke-width:8.64"/>
	<polygon points="1451.71,1571.08 1418.83,1628.03 1484.59,1628.03" style="fill:#008000"/>
	<polygon points="1451.71,1579.72 1426.31,1623.71 1477.11,1623.71" style="fill:none;stroke:#008000;stroke-width:8.64"/>
	<polygon points="1465.82,1390.40 1432.94,1447.35 1498.70,1447.35" style="fill:#008000"/>
	<polygon points="1465.82,1399.04 1440.42,1443.03 1491.22,1443.03" style="fill:none;stroke:#008000;stroke-width:8.64"/>
	<polygon points="1670.01,1510.81 1637.12,1567.76 1702.89,1567.76" style="fill:#008000"/>
	<polygon points="1670.01,1519.45 1644.61,1563.44 1695.41,1563.44" style="fill:none;stroke:#008000;stroke-width:8.64"/>
	<polygon points="1389.59,1029.28 1356.71,1086.24 1422.47,1086.24" style="fill:#008000"/>
	<polygon points="1389.59,1037.92 1364.19,1081.92 1414.99,1081.92" style="fill:none;stroke:#008000;stroke-width:8.64"/>
	<polygon points="1544.15,1390.40 1511.27,1447.35 1577.03,1447.35" style="fill:#008000"/>
	<polygon points="1544.15,1399.04 1518.75,1443.03 1569.55,1443.03" style="fill:none;stroke:#008000;stroke-width:8.64"/>
	<polygon points="2633.03,1631.22 2600.15,1688.18 2665.91,1688.18" style="fill:#008000"/>
	<polygon points="2633.03,1639.86 2607.63,1683.86 2658.43,1683.86" style="fill:none;stroke:#008000;stroke-width:8.64"/>
	<polygon points="1147.16,848.60 1114.28,905.56 1180.04,905.56" style="fill:#008000"/>
	<polygon points="1147.16,857.24 1121.76,901.24 1172.56,901.24" style="fill:none;stroke:#008000;stroke-width:8.64"/>
	<polygon points="1652.56,1631.22 1619.68,1688.18 1685.44,1688.18" style="fill:#008000"/>
	<polygon points="1652.56,1639.86 1627.16,1683.86 1677.96,1683.86" style="fill:none;stroke:#008000;stroke-width:8.64"/>
	<polygon points="1400.23,1269.99 1367.35,1326.94 1433.11,1326.94" style="fill:#008000"/>
	<polygon points="1400.23,1278.63 1374.83,1322.62 1425.63,1322.62" style="fill:none;stroke:#008000;stroke-width:8.64"/>
	<polygon points="1526.33,1269.99 1493.45,1326.94 1559.21,1326.94" style="fill:#008000"/>
	<polygon points="1526.33,1278.63 1500.93,1322.62 1551.73,1322.62" style="fill:none;stroke:#008000;stroke-width:8.64"/>
	<polygon points="1224.51,1149.70 1191.62,1206.65 1257.39,1206.65" style="fill:#008000"/>
	<polygon points="1224.51,1158.34 1199.11,1202.33 1249.91,1202.33" style="fill:none;stroke:#008000;stroke-width:8.64"/>
	<polygon points="1284.90,1450.67 1252.01,1507.62 1317.78,1507.62" style="fill:#008000"/>
	<polygon points="1284.90,1459.31 1259.50,1503.30 1310.30,1503.30" style="fill:none;stroke:#008000;stroke-width:8.64"/>
	<polygon points="1786.45,1571.08 1753.57,1628.03 1819.34,1628.03" style="fill:#008000"/>
	<polygon points="1786.45,1579.72 1761.06,1623.71 1811.85,1623.71" style="fill:none;stroke:#008000;stroke-width:8.64"/>
	<polygon points="1258.54,1269.99 1225.66,1326.94 1291.42,1326.94" style="fill:#008000"/>
	<polygon points="1258.54,1278.63 1233.14,1322.62 1283.94,1322.62" style="fill:none;stroke:#008000;stroke-width:8.64"/>
	<polygon points="1584.12,1751.64 1551.24,1808.59 1617.01,1808.59" style="fill:#008000"/>
	<polygon points="1584.12,1760.28 1558.72,1804.27 1609.52,1804.27" style="fill:none;stroke:#008000;stroke-width:8.64"/>
	<polygon points="1778.29,1751.64 1745.41,1808.59 1811.17,1808.59" style="fill:#008000"/>
	<polygon points="1778.29,1760.28 1752.89,1804.27 1803.69,1804.27" style="fill:none;stroke:#008000;stroke-width:8.64"/>
	<polygon points="1540.69,1450.67 1507.81,1507.62 1573.57,1507.62" style="fill:#008000"/>
	<polygon points="1540.69,1459.31 1515.29,1503.30 1566.09,1503.30" style="fill:none;stroke:#008000;stroke-width:8.64"/>
	<polygon points="1448.37,1450.67 1415.49,1507.62 1481.25,1507.62" style="fill:#008000"/>
	<polygon points="1448.37,1459.31 1422.97,1503.30 1473.77,1503.30" style="fill:none;stroke:#008000;stroke-width:8.64"/>
	<polygon points="1481.41,1510.81 1448.53,1567.76 1514.29,1567.76" style="fill:#008000"/>
	<polygon points="1481.41,1519.45 1456.01,1563.44 1506.81,1563.44" style="fill:none;stroke:#008000;stroke-width:8.64"/>
	<polygon points="1335.39,1149.70 1302.50,1206.65 1368.27,1206.65" style="fill:#008000"/>
	<polygon points="1335.39,1158.34 1309.99,1202.33 1360.79,1202.33" style="fill:none;stroke:#008000;stroke-width:8.64"/>
	<polygon points="1383.65,547.63 1350.77,604.59 1416.53,604.59" style="fill:#008000"/>
	<polygon points="1383.65,556.27 1358.25,600.27 1409.05,600.27" style="fill:none;stroke:#008000;stroke-width:8.64"/>
	<polygon points="1672.11,1510.81 1639.23,1567.76 1704.99,1567.76" style="fill:#008000"/>
	<polygon points="1672.11,1519.45 1646.71,1563.44 1697.51,1563.44" style="fill:none;stroke:#008000;stroke-width:8.64"/>
	<polygon points="1551.08,1450.67 1518.20,1507.62 1583.96,1507.62" style="fill:#008000"/>
	<polygon points="1551.08,1459.31 1525.68,1503.30 1576.48,1503.30" style="fill:none;stroke:#008000;stroke-width:8.64"/>
	<polygon points="1446.27,1450.67 1413.38,1507.62 1479.15,1507.62" style="fill:#008000"/>
	<polygon points="1446.27,1459.31 1420.87,1503.30 1471.67,1503.30" style="fill:none;stroke:#008000;stroke-width:8.64"/>
	<polygon points="1330.56,1149.70 1297.68,1206.65 1363.44,1206.65" style="fill:#008000"/>
	<polygon points="1330.56,1158.34 1305.16,1202.33 1355.96,1202.33" style="fill:none;stroke:#008000;stroke-width:8.64"/>
	<polygon points="2974.08,1571.08 2941.20,1628.03 3006.97,1628.03" style="fill:#008000"/>
	<polygon points="2974.08,1579.72 2948.68,1623.71 2999.48,1623.71" style="fill:none;stroke:#008000;stroke-width:8.64"/>
	<path d=" M1147.16 1269.71 L2060.56 1573.53 L2974.08 1877.35" stroke-linejoin="round" style="fill:none;stroke:#008000;stroke-width:8.64"/>
	<rect x="1225.88" y="1281.61" width="52.69" height="52.70" style="fill:#0000FF"/>
	<rect x="1230.20" y="1285.93" width="44.05" height="44.06" style="fill:none;stroke:#0000FF;stroke-width:8.64"/>
	<rect x="1285.28" y="1462.29" width="52.69" height="52.70" style="fill:#0000FF"/>
	<rect x="1289.60" y="1466.61" width="44.05" height="44.06" style="fill:none;stroke:#0000FF;stroke-width:8.64"/>
	<rect x="1349.75" y="920.49" width="52.69" height="52.70" style="fill:#0000FF"/>
	<rect x="1354.07" y="924.81" width="44.05" height="44.06" style="fill:none;stroke:#0000FF;stroke-width:8.64"/>
	<rect x="1307.31" y="1341.87" width="52.69" height="52.70" style="fill:#0000FF"/>
	<rect x="1311.63" y="1346.19" width="44.05" height="44.06" style="fill:none;stroke:#0000FF;stroke-width:8.64"/>
	<rect x="1119.08" y="1402.02" width="52.69" height="52.70" style="fill:#0000FF"/>
	<rect x="1123.40" y="1406.34" width="44.05" height="44.06" style="fill:none;stroke:#0000FF;stroke-width:8.64"/>
	<rect x="1306.07" y="1462.29" width="52.69" height="52.70" style="fill:#0000FF"/>
	<rect x="1310.39" y="1466.61" width="44.05" height="44.06" style="fill:none;stroke:#0000FF;stroke-width:8.64"/>
	<rect x="1403.96" y="920.49" width="52.69" height="52.70" style="fill:#0000FF"/>
	<rect x="1408.28" y="924.81" width="44.05" height="44.06" style="fill:none;stroke:#0000FF;stroke-width:8.64"/>
	<rect x="1369.31" y="1101.05" width="52.69" height="52.70" style="fill:#0000FF"/>
	<rect x="1373.62" y="1105.37" width="44.05" height="44.06" style="fill:none;stroke:#0000FF;stroke-width:8.64"/>
	<rect x="1280.70" y="1522.43" width="52.69" height="52.70" style="fill:#0000FF"/>
	<rect x="1285.02" y="1526.75" width="44.05" height="44.06" style="fill:none;stroke:#0000FF;stroke-width:8.64"/>
	<rect x="1464.22" y="1522.43" width="52.69" height="52.70" style="fill:#0000FF"/>
	<rect x="1468.54" y="1526.75" width="44.05" height="44.06" style="fill:none;stroke:#0000FF;stroke-width:8.64"/>
	<rect x="1357.18" y="1462.29" width="52.69" height="52.70" style="fill:#0000FF"/>
	<rect x="1361.50" y="1466.61" width="44.05" height="44.06" style="fill:none;stroke:#0000FF;stroke-width:8.64"/>
	<rect x="2463.38" y="1582.70" width="52.69" height="52.70" style="fill:#0000FF"/>
	<rect x="2467.70" y="1587.02" width="44.05" height="44.06" style="fill:none;stroke:#0000FF;stroke-width:8.64"/>
	<rect x="1330.20" y="1341.87" width="52.69" height="52.70" style="fill:#0000FF"/>
	<rect x="1334.52" y="1346.19" width="44.05" height="44.06" style="fill:none;stroke:#0000FF;stroke-width:8.64"/>
	<rect x="1646.01" y="1101.05" width="52.69" height="52.70" style="fill:#0000FF"/>
	<rect x="1650.33" y="1105.37" width="44.05" height="44.06" style="fill:none;stroke:#0000FF;stroke-width:8.64"/>
	<rect x="1372.89" y="920.49" width="52.69" height="52.70" style="fill:#0000FF"/>
	<rect x="1377.21" y="924.81" width="44.05" height="44.06" style="fill:none;stroke:#0000FF;stroke-width:8.64"/>
	<rect x="1667.05" y="1522.43" width="52.69" height="52.70" style="fill:#0000FF"/>
	<rect x="1671.37" y="1526.75" width="44.05" height="44.06" style="fill:none;stroke:#0000FF;stroke-width:8.64"/>
	<rect x="1215.11" y="739.81" width="52.69" height="52.70" style="fill:#0000FF"/>
	<rect x="1219.43" y="744.13" width="44.05" height="44.06" style="fill:none;stroke:#0000FF;stroke-width:8.64"/>
	<rect x="1629.18" y="1522.43" width="52.69" height="52.70" style="fill:#0000FF"/>
	<rect x="1633.50" y="1526.75" width="44.05" height="44.06" style="fill:none;stroke:#0000FF;stroke-width:8.64"/>
	<path d=" M1145.43 1222.81 L1817.64 1412.53 L2489.73 1602.24" stroke-linejoin="round" style="fill:none;stroke:#0000FF;stroke-width:8.64"/>
	<polygon points="1277.92,1307.95 1315.21,1270.66 1352.51,1307.95 1315.21,1345.25" style="fill:#800080"/>
	<polygon points="1284.03,1307.95 1315.21,1276.77 1346.40,1307.95 1315.21,1339.14" style="fill:none;stroke:#800080;stroke-width:8.64"/>
	<polygon points="1253.79,826.43 1291.08,789.13 1328.38,826.43 1291.08,863.72" style="fill:#800080"/>
	<polygon points="1259.90,826.43 1291.08,795.24 1322.27,826.43 1291.08,857.61" style="fill:none;stroke:#800080;stroke-width:8.64"/>
	<polygon points="1779.36,1067.25 1816.65,1029.96 1853.94,1067.25 1816.65,1104.55" style="fill:#800080"/>
	<polygon points="1785.47,1067.25 1816.65,1036.07 1847.84,1067.25 1816.65,1098.44" style="fill:none;stroke:#800080;stroke-width:8.64"/>
	<polygon points="1739.26,1247.81 1776.56,1210.52 1813.85,1247.81 1776.56,1285.10" style="fill:#800080"/>
	<polygon points="1745.37,1247.81 1776.56,1216.63 1807.74,1247.81 1776.56,1279.00" style="fill:none;stroke:#800080;stroke-width:8.64"/>
	<polygon points="2461.96,1127.40 2499.26,1090.10 2536.55,1127.40 2499.26,1164.69" style="fill:#800080"/>
	<polygon points="2468.07,1127.40 2499.26,1096.21 2530.44,1127.40 2499.26,1158.58" style="fill:none;stroke:#800080;stroke-width:8.64"/>
	<polygon points="1725.40,1247.81 1762.69,1210.52 1799.99,1247.81 1762.69,1285.10" style="fill:#800080"/>
	<polygon points="1731.51,1247.81 1762.69,1216.63 1793.88,1247.81 1762.69,1279.00" style="fill:none;stroke:#800080;stroke-width:8.64"/>
	<polygon points="1380.88,525.46 1418.17,488.16 1455.47,525.46 1418.17,562.75" style="fill:#800080"/>
	<polygon points="1386.99,525.46 1418.17,494.27 1449.36,525.46 1418.17,556.64" style="fill:none;stroke:#800080;stroke-width:8.64"/>
	<polygon points="1483.84,1187.67 1521.13,1150.37 1558.43,1187.67 1521.13,1224.96" style="fill:#800080"/>
	<polygon points="1489.95,1187.67 1521.13,1156.48 1552.32,1187.67 1521.13,1218.85" style="fill:none;stroke:#800080;stroke-width:8.64"/>
	<polygon points="2124.49,1368.22 2161.79,1330.93 2199.08,1368.22 2161.79,1405.52" style="fill:#800080"/>
	<polygon points="2130.60,1368.22 2161.79,1337.04 2192.97,1368.22 2161.79,1399.41" style="fill:none;stroke:#800080;stroke-width:8.64"/>
	<polygon points="1256.02,826.43 1293.31,789.13 1330.61,826.43 1293.31,863.72" style="fill:#800080"/>
	<polygon points="1262.13,826.43 1293.31,795.24 1324.50,826.43 1293.31,857.61" style="fill:none;stroke:#800080;stroke-width:8.64"/>
	<polygon points="3145.80,1789.60 3183.10,1752.31 3220.39,1789.60 3183.10,1826.90" style="fill:#800080"/>
	<polygon points="3151.91,1789.60 3183.10,1758.42 3214.28,1789.60 3183.10,1820.79" style="fill:none;stroke:#800080;stroke-width:8.64"/>
	<polygon points="1235.10,1067.25 1272.40,1029.96 1309.69,1067.25 1272.40,1104.55" style="fill:#800080"/>
	<polygon points="1241.21,1067.25 1272.40,1036.07 1303.58,1067.25 1272.40,1098.44" style="fill:none;stroke:#800080;stroke-width:8.64"/>
	<polygon points="1214.68,525.46 1251.98,488.16 1289.27,525.46 1251.98,562.75" style="fill:#800080"/>
	<polygon points="1220.79,525.46 1251.98,494.27 1283.16,525.46 1251.98,556.64" style="fill:none;stroke:#800080;stroke-width:8.64"/>
	<polygon points="1916.72,1247.81 1954.01,1210.52 1991.31,1247.81 1954.01,1285.10" style="fill:#800080"/>
	<polygon points="1922.83,1247.81 1954.01,1216.63 1985.20,1247.81 1954.01,1279.00" style="fill:none;stroke:#800080;stroke-width:8.64"/>
	<polygon points="1550.54,164.22 1587.84,126.93 1625.13,164.22 1587.84,201.52" style="fill:#800080"/>
	<polygon points="1556.65,164.22 1587.84,133.04 1619.02,164.22 1587.84,195.41" style="fill:none;stroke:#800080;stroke-width:8.64"/>
	<polygon points="1403.53,1127.40 1440.82,1090.10 1478.12,1127.40 1440.82,1164.69" style="fill:#800080"/>
	<polygon points="1409.64,1127.40 1440.82,1096.21 1472.01,1127.40 1440.82,1158.58" style="fill:none;stroke:#800080;stroke-width:8.64"/>
	<polygon points="1855.83,1127.40 1893.13,1090.10 1930.42,1127.40 1893.13,1164.69" style="fill:#800080"/>
	<polygon points="1861.94,1127.40 1893.13,1096.21 1924.31,1127.40 1893.13,1158.58" style="fill:none;stroke:#800080;stroke-width:8.64"/>
	<path d=" M1251.98 827.91 L2217.48 1266.74 L3183.10 1705.58" stroke-linejoin="round" style="fill:none;stroke:#800080;stroke-width:8.64"/>
	<line x1="390.80" y1="2093.67" x2="390.80" y2="100.86" style="stroke:#000000;stroke-width:5.76"/>
	<line x1="390.80" y1="2030.31" x2="350.83" y2="2030.31" style="stroke:#000000;stroke-width:5.76"/>
	<text x="300.72" y="2030.31" style="font-family:'Helvetica';font-size:99.99px;fill:#000000" transform="rotate(-90 300.72,2030.31)" text-anchor="middle">10</text>
	<line x1="390.80" y1="1428.37" x2="350.83" y2="1428.37" style="stroke:#000000;stroke-width:5.76"/>
	<text x="300.72" y="1428.37" style="font-family:'Helvetica';font-size:99.99px;fill:#000000" transform="rotate(-90 300.72,1428.37)" text-anchor="middle">20</text>
	<line x1="390.80" y1="826.30" x2="350.83" y2="826.30" style="stroke:#000000;stroke-width:5.76"/>
	<text x="300.72" y="826.30" style="font-family:'Helvetica';font-size:99.99px;fill:#000000" transform="rotate(-90 300.72,826.30)" text-anchor="middle">30</text>
	<line x1="390.80" y1="224.37" x2="350.83" y2="224.37" style="stroke:#000000;stroke-width:5.76"/>
	<text x="300.72" y="224.37" style="font-family:'Helvetica';font-size:99.99px;fill:#000000" transform="rotate(-90 300.72,224.37)" text-anchor="middle">40</text>
	<text x="190.71" y="1097.20" style="font-family:'Helvetica';font-size:99.99px;fill:#000000" transform="rotate(-90 190.71,1097.20)" text-anchor="middle">mpg</text>
	<line x1="390.80" y1="2093.67" x2="3859.02" y2="2093.67" style="stroke:#000000;stroke-width:5.76"/>
	<line x1="454.16" y1="2093.67" x2="454.16" y2="2133.64" style="stroke:#000000;stroke-width:5.76"/>
	<text x="454.16" y="2223.62" style="font-family:'Helvetica';font-size:99.99px;fill:#000000" text-anchor="middle">0</text>
	<line x1="1504.55" y1="2093.67" x2="1504.55" y2="2133.64" style="stroke:#000000;stroke-width:5.76"/>
	<text x="1504.55" y="2223.62" style="font-family:'Helvetica';font-size:99.99px;fill:#000000" text-anchor="middle">5,000</text>
	<line x1="2554.94" y1="2093.67" x2="2554.94" y2="2133.64" style="stroke:#000000;stroke-width:5.76"/>
	<text x="2554.94" y="2223.62" style="font-family:'Helvetica';font-size:99.99px;fill:#000000" text-anchor="middle">10,000</text>
	<line x1="3605.33" y1="2093.67" x2="3605.33" y2="2133.64" style="stroke:#000000;stroke-width:5.76"/>
	<text x="3605.33" y="2223.62" style="font-family:'Helvetica';font-size:99.99px;fill:#000000" text-anchor="middle">15,000</text>
	<text x="2124.91" y="2333.64" style="font-family:'Helvetica';font-size:99.99px;fill:#000000" text-anchor="middle">Price</text>
	<rect x="1524.48" y="2418.27" width="1200.87" height="326.34" style="fill:#FFFFFF"/>
	<rect x="1527.36" y="2421.15" width="1195.11" height="320.58" style="fill:none;stroke:#000000;stroke-width:5.76"/>
	<circle cx="1589.69" cy="2511.46" r="26.35" style="fill:#FF0000"/>
	<circle cx="1589.69" cy="2511.46" r="22.03" style="fill:none;stroke:#FF0000;stroke-width:8.64"/>
	<polygon points="2216.98,2473.49 2184.10,2530.45 2249.86,2530.45" style="fill:#008000"/>
	<polygon points="2216.98,2482.13 2191.58,2526.13 2242.38,2526.13" style="fill:none;stroke:#008000;stroke-width:8.64"/>
	<rect x="1563.35" y="2625.08" width="52.69" height="52.70" style="fill:#0000FF"/>
	<rect x="1567.66" y="2629.40" width="44.05" height="44.06" style="fill:none;stroke:#0000FF;stroke-width:8.64"/>
	<polygon points="2179.69,2651.43 2216.98,2614.13 2254.28,2651.43 2216.98,2688.72" style="fill:#800080"/>
	<polygon points="2185.80,2651.43 2216.98,2620.24 2248.17,2651.43 2216.98,2682.61" style="fill:none;stroke:#800080;stroke-width:8.64"/>
	<text x="1671.74" y="2546.49" style="font-family:'Helvetica';font-size:99.99px;fill:#000000">&lt; 2.5</text>
	<text x="2298.90" y="2546.49" style="font-family:'Helvetica';font-size:99.99px;fill:#000000">2.5 - 3.0</text>
	<text x="1671.74" y="2686.46" style="font-family:'Helvetica';font-size:99.99px;fill:#000000">3.0 - 3.5</text>
	<text x="2298.90" y="2686.46" style="font-family:'Helvetica';font-size:99.99px;fill:#000000">&gt; 3.5</text>
</svg>
