<?xml version="1.0" encoding="UTF-8" standalone="no"?>
<!-- This is a Stata 15.0 generated SVG file (http://www.stata.com) -->

<svg version="1.1" width="5.50in" height="4.00in" viewBox="0 0 3960 2880" xmlns="http://www.w3.org/2000/svg" xmlns:xlink="http://www.w3.org/1999/xlink">
	<desc>Stata Graph - Graph</desc>
	<rect x="0" y="0" width="3960" height="2880" style="fill:#EAF2F3;stroke:none"/>
	<rect x="0.00" y="0.00" width="3959.88" height="2880.00" style="fill:#EAF2F3"/>
	<rect x="2.88" y="2.88" width="3954.12" height="2874.24" style="fill:none;stroke:#EAF2F3;stroke-width:5.76"/>
	<rect x="290.81" y="100.86" width="3568.21" height="2132.77" style="fill:#FFFFFF"/>
	<rect x="293.69" y="103.74" width="3562.45" height="2127.01" style="fill:none;stroke:#FFFFFF;stroke-width:5.76"/>
	<line x1="290.81" y1="2170.27" x2="3859.02" y2="2170.27" style="stroke:#EAF2F3;stroke-width:8.64"/>
	<line x1="290.81" y1="1523.16" x2="3859.02" y2="1523.16" style="stroke:#EAF2F3;stroke-width:8.64"/>
	<line x1="290.81" y1="876.05" x2="3859.02" y2="876.05" style="stroke:#EAF2F3;stroke-width:8.64"/>
	<line x1="290.81" y1="228.82" x2="3859.02" y2="228.82" style="stroke:#EAF2F3;stroke-width:8.64"/>
	<polygon points="1596.87,1363.17 1570.31,1409.17 1623.43,1409.17" style="fill:#1A476F"/>
	<polygon points="1596.87,1371.81 1577.79,1404.85 1615.95,1404.85" style="fill:none;stroke:#1A476F;stroke-width:8.64"/>
	<polygon points="2042.99,1686.67 2016.43,1732.67 2069.55,1732.67" style="fill:#1A476F"/>
	<polygon points="2042.99,1695.30 2023.91,1728.35 2062.07,1728.35" style="fill:none;stroke:#1A476F;stroke-width:8.64"/>
	<polygon points="1288.86,1363.17 1262.30,1409.17 1315.41,1409.17" style="fill:#1A476F"/>
	<polygon points="1288.86,1371.81 1269.78,1404.85 1307.93,1404.85" style="fill:none;stroke:#1A476F;stroke-width:8.64"/>
	<polygon points="1936.81,1492.62 1910.25,1538.62 1963.37,1538.62" style="fill:#1A476F"/>
	<polygon points="1936.81,1501.26 1917.73,1534.30 1955.89,1534.30" style="fill:none;stroke:#1A476F;stroke-width:8.64"/>
	<polygon points="2818.41,1816.11 2791.85,1862.11 2844.96,1862.11" style="fill:#1A476F"/>
	<polygon points="2818.41,1824.75 2799.33,1857.79 2837.48,1857.79" style="fill:none;stroke:#1A476F;stroke-width:8.64"/>
	<polygon points="2382.93,1621.94 2356.37,1667.94 2409.49,1667.94" style="fill:#1A476F"/>
	<polygon points="2382.93,1630.58 2363.85,1663.62 2402.01,1663.62" style="fill:none;stroke:#1A476F;stroke-width:8.64"/>
	<polygon points="853.38,1104.28 826.82,1150.28 879.94,1150.28" style="fill:#1A476F"/>
	<polygon points="853.38,1112.92 834.30,1145.96 872.46,1145.96" style="fill:none;stroke:#1A476F;stroke-width:8.64"/>
	<polygon points="1968.62,1492.62 1942.06,1538.62 1995.17,1538.62" style="fill:#1A476F"/>
	<polygon points="1968.62,1501.26 1949.54,1534.30 1987.69,1534.30" style="fill:none;stroke:#1A476F;stroke-width:8.64"/>
	<polygon points="2605.93,1751.39 2579.37,1797.39 2632.49,1797.39" style="fill:#1A476F"/>
	<polygon points="2605.93,1760.03 2586.85,1793.07 2625.00,1793.07" style="fill:none;stroke:#1A476F;stroke-width:8.64"/>
	<polygon points="2096.08,1557.34 2069.52,1603.34 2122.64,1603.34" style="fill:#1A476F"/>
	<polygon points="2096.08,1565.98 2077.00,1599.02 2115.15,1599.02" style="fill:none;stroke:#1A476F;stroke-width:8.64"/>
	<polygon points="3083.97,1880.84 3057.42,1926.84 3110.53,1926.84" style="fill:#1A476F"/>
	<polygon points="3083.97,1889.47 3064.90,1922.52 3103.05,1922.52" style="fill:none;stroke:#1A476F;stroke-width:8.64"/>
	<polygon points="2627.21,1880.84 2600.65,1926.84 2653.77,1926.84" style="fill:#1A476F"/>
	<polygon points="2627.21,1889.47 2608.14,1922.52 2646.29,1922.52" style="fill:none;stroke:#1A476F;stroke-width:8.64"/>
	<polygon points="3041.53,1427.90 3014.97,1473.90 3068.09,1473.90" style="fill:#1A476F"/>
	<polygon points="3041.53,1436.54 3022.45,1469.58 3060.60,1469.58" style="fill:none;stroke:#1A476F;stroke-width:8.64"/>
	<polygon points="725.92,910.11 699.36,956.11 752.48,956.11" style="fill:#1A476F"/>
	<polygon points="725.92,918.75 706.84,951.79 744.99,951.79" style="fill:none;stroke:#1A476F;stroke-width:8.64"/>
	<polygon points="2404.22,1751.39 2377.66,1797.39 2430.77,1797.39" style="fill:#1A476F"/>
	<polygon points="2404.22,1760.03 2385.14,1793.07 2423.29,1793.07" style="fill:none;stroke:#1A476F;stroke-width:8.64"/>
	<polygon points="1862.44,1363.17 1835.88,1409.17 1889.00,1409.17" style="fill:#1A476F"/>
	<polygon points="1862.44,1371.81 1843.36,1404.85 1881.51,1404.85" style="fill:none;stroke:#1A476F;stroke-width:8.64"/>
	<polygon points="1904.88,1363.17 1878.33,1409.17 1931.44,1409.17" style="fill:#1A476F"/>
	<polygon points="1904.88,1371.81 1885.81,1404.85 1923.96,1404.85" style="fill:none;stroke:#1A476F;stroke-width:8.64"/>
	<polygon points="1405.68,1233.73 1379.12,1279.73 1432.23,1279.73" style="fill:#1A476F"/>
	<polygon points="1405.68,1242.37 1386.60,1275.41 1424.75,1275.41" style="fill:none;stroke:#1A476F;stroke-width:8.64"/>
	<polygon points="2128.01,1557.34 2101.45,1603.34 2154.56,1603.34" style="fill:#1A476F"/>
	<polygon points="2128.01,1565.98 2108.93,1599.02 2147.08,1599.02" style="fill:none;stroke:#1A476F;stroke-width:8.64"/>
	<polygon points="736.44,845.39 709.88,891.39 762.99,891.39" style="fill:#1A476F"/>
	<polygon points="736.44,854.03 717.36,887.07 755.51,887.07" style="fill:none;stroke:#1A476F;stroke-width:8.64"/>
	<polygon points="2308.56,1621.94 2282.00,1667.94 2335.11,1667.94" style="fill:#1A476F"/>
	<polygon points="2308.56,1630.58 2289.48,1663.62 2327.63,1663.62" style="fill:none;stroke:#1A476F;stroke-width:8.64"/>
	<polygon points="2308.56,1751.39 2282.00,1797.39 2335.11,1797.39" style="fill:#1A476F"/>
	<polygon points="2308.56,1760.03 2289.48,1793.07 2327.63,1793.07" style="fill:none;stroke:#1A476F;stroke-width:8.64"/>
	<polygon points="2457.30,1686.67 2430.75,1732.67 2483.86,1732.67" style="fill:#1A476F"/>
	<polygon points="2457.30,1695.30 2438.23,1728.35 2476.38,1728.35" style="fill:none;stroke:#1A476F;stroke-width:8.64"/>
	<polygon points="396.62,974.83 370.06,1020.83 423.18,1020.83" style="fill:#1A476F"/>
	<polygon points="396.62,983.47 377.54,1016.51 415.70,1016.51" style="fill:none;stroke:#1A476F;stroke-width:8.64"/>
	<polygon points="1299.50,1427.90 1272.94,1473.90 1326.06,1473.90" style="fill:#1A476F"/>
	<polygon points="1299.50,1436.54 1280.42,1469.58 1318.58,1469.58" style="fill:none;stroke:#1A476F;stroke-width:8.64"/>
	<polygon points="3625.75,2010.28 3599.19,2056.28 3652.31,2056.28" style="fill:#1A476F"/>
	<polygon points="3625.75,2018.92 3606.67,2051.96 3644.83,2051.96" style="fill:none;stroke:#1A476F;stroke-width:8.64"/>
	<polygon points="3498.29,2010.28 3471.73,2056.28 3524.85,2056.28" style="fill:#1A476F"/>
	<polygon points="3498.29,2018.92 3479.21,2051.96 3517.37,2051.96" style="fill:none;stroke:#1A476F;stroke-width:8.64"/>
	<polygon points="2552.84,1880.84 2526.28,1926.84 2579.40,1926.84" style="fill:#1A476F"/>
	<polygon points="2552.84,1889.47 2533.76,1922.52 2571.92,1922.52" style="fill:none;stroke:#1A476F;stroke-width:8.64"/>
	<polygon points="1225.12,1363.17 1198.57,1409.17 1251.68,1409.17" style="fill:#1A476F"/>
	<polygon points="1225.12,1371.81 1206.05,1404.85 1244.20,1404.85" style="fill:none;stroke:#1A476F;stroke-width:8.64"/>
	<polygon points="2797.12,1880.84 2770.56,1926.84 2823.68,1926.84" style="fill:#1A476F"/>
	<polygon points="2797.12,1889.47 2778.04,1922.52 2816.20,1922.52" style="fill:none;stroke:#1A476F;stroke-width:8.64"/>
	<polygon points="2436.02,1816.11 2409.46,1862.11 2462.58,1862.11" style="fill:#1A476F"/>
	<polygon points="2436.02,1824.75 2416.94,1857.79 2455.10,1857.79" style="fill:none;stroke:#1A476F;stroke-width:8.64"/>
	<polygon points="2064.27,1621.94 2037.72,1667.94 2090.83,1667.94" style="fill:#1A476F"/>
	<polygon points="2064.27,1630.58 2045.20,1663.62 2083.35,1663.62" style="fill:none;stroke:#1A476F;stroke-width:8.64"/>
	<polygon points="2871.49,1880.84 2844.94,1926.84 2898.05,1926.84" style="fill:#1A476F"/>
	<polygon points="2871.49,1889.47 2852.42,1922.52 2890.57,1922.52" style="fill:none;stroke:#1A476F;stroke-width:8.64"/>
	<polygon points="1490.69,1492.62 1464.13,1538.62 1517.25,1538.62" style="fill:#1A476F"/>
	<polygon points="1490.69,1501.26 1471.62,1534.30 1509.77,1534.30" style="fill:none;stroke:#1A476F;stroke-width:8.64"/>
	<polygon points="2797.12,1427.90 2770.56,1473.90 2823.68,1473.90" style="fill:#1A476F"/>
	<polygon points="2797.12,1436.54 2778.04,1469.58 2816.20,1469.58" style="fill:none;stroke:#1A476F;stroke-width:8.64"/>
	<polygon points="2000.54,1557.34 1973.98,1603.34 2027.10,1603.34" style="fill:#1A476F"/>
	<polygon points="2000.54,1565.98 1981.47,1599.02 2019.62,1599.02" style="fill:none;stroke:#1A476F;stroke-width:8.64"/>
	<polygon points="1989.90,1557.34 1963.34,1603.34 2016.46,1603.34" style="fill:#1A476F"/>
	<polygon points="1989.90,1565.98 1970.82,1599.02 2008.98,1599.02" style="fill:none;stroke:#1A476F;stroke-width:8.64"/>
	<polygon points="2404.22,1621.94 2377.66,1667.94 2430.77,1667.94" style="fill:#1A476F"/>
	<polygon points="2404.22,1630.58 2385.14,1663.62 2423.29,1663.62" style="fill:none;stroke:#1A476F;stroke-width:8.64"/>
	<polygon points="2064.27,1557.34 2037.72,1603.34 2090.83,1603.34" style="fill:#1A476F"/>
	<polygon points="2064.27,1565.98 2045.20,1599.02 2083.35,1599.02" style="fill:none;stroke:#1A476F;stroke-width:8.64"/>
	<polygon points="1384.39,1233.73 1357.83,1279.73 1410.95,1279.73" style="fill:#1A476F"/>
	<polygon points="1384.39,1242.37 1365.31,1275.41 1403.47,1275.41" style="fill:none;stroke:#1A476F;stroke-width:8.64"/>
	<polygon points="2765.32,1751.39 2738.76,1797.39 2791.88,1797.39" style="fill:#1A476F"/>
	<polygon points="2765.32,1760.03 2746.24,1793.07 2784.39,1793.07" style="fill:none;stroke:#1A476F;stroke-width:8.64"/>
	<polygon points="1947.45,974.83 1920.90,1020.83 1974.01,1020.83" style="fill:#1A476F"/>
	<polygon points="1947.45,983.47 1928.38,1016.51 1966.53,1016.51" style="fill:none;stroke:#1A476F;stroke-width:8.64"/>
	<polygon points="396.62,586.62 370.06,632.62 423.18,632.62" style="fill:#1A476F"/>
	<polygon points="396.62,595.26 377.54,628.30 415.70,628.30" style="fill:none;stroke:#1A476F;stroke-width:8.64"/>
	<polygon points="821.45,1169.00 794.89,1215.00 848.01,1215.00" style="fill:#1A476F"/>
	<polygon points="821.45,1177.64 802.38,1210.68 840.53,1210.68" style="fill:none;stroke:#1A476F;stroke-width:8.64"/>
	<polygon points="1161.39,1104.28 1134.84,1150.28 1187.95,1150.28" style="fill:#1A476F"/>
	<polygon points="1161.39,1112.92 1142.32,1145.96 1180.47,1145.96" style="fill:none;stroke:#1A476F;stroke-width:8.64"/>
	<polygon points="2021.70,1621.94 1995.15,1667.94 2048.26,1667.94" style="fill:#1A476F"/>
	<polygon points="2021.70,1630.58 2002.63,1663.62 2040.78,1663.62" style="fill:none;stroke:#1A476F;stroke-width:8.64"/>
	<polygon points="2414.73,1621.94 2388.18,1667.94 2441.29,1667.94" style="fill:#1A476F"/>
	<polygon points="2414.73,1630.58 2395.66,1663.62 2433.81,1663.62" style="fill:none;stroke:#1A476F;stroke-width:8.64"/>
	<polygon points="2170.45,1621.94 2143.89,1667.94 2197.01,1667.94" style="fill:#1A476F"/>
	<polygon points="2170.45,1630.58 2151.37,1663.62 2189.53,1663.62" style="fill:none;stroke:#1A476F;stroke-width:8.64"/>
	<polygon points="1894.24,1557.34 1867.68,1603.34 1920.80,1603.34" style="fill:#1A476F"/>
	<polygon points="1894.24,1565.98 1875.16,1599.02 1913.32,1599.02" style="fill:none;stroke:#1A476F;stroke-width:8.64"/>
	<polygon points="1883.72,1557.34 1857.16,1603.34 1910.28,1603.34" style="fill:#1A476F"/>
	<polygon points="1883.72,1565.98 1864.65,1599.02 1902.80,1599.02" style="fill:none;stroke:#1A476F;stroke-width:8.64"/>
	<polygon points="2117.36,1557.34 2090.80,1603.34 2143.92,1603.34" style="fill:#1A476F"/>
	<polygon points="2117.36,1565.98 2098.29,1599.02 2136.44,1599.02" style="fill:none;stroke:#1A476F;stroke-width:8.64"/>
	<polygon points="1341.94,1233.73 1315.39,1279.73 1368.50,1279.73" style="fill:#1A476F"/>
	<polygon points="1341.94,1242.37 1322.87,1275.41 1361.02,1275.41" style="fill:none;stroke:#1A476F;stroke-width:8.64"/>
	<polygon points="1490.69,1686.67 1464.13,1732.67 1517.25,1732.67" style="fill:#1A476F"/>
	<polygon points="1490.69,1695.30 1471.62,1728.35 1509.77,1728.35" style="fill:none;stroke:#1A476F;stroke-width:8.64"/>
	<polygon points="683.35,1298.45 656.79,1344.45 709.91,1344.45" style="fill:#1A476F"/>
	<polygon points="683.35,1307.09 664.27,1340.13 702.42,1340.13" style="fill:none;stroke:#1A476F;stroke-width:8.64"/>
	<polygon points="1299.50,1169.00 1272.94,1215.00 1326.06,1215.00" style="fill:#1A476F"/>
	<polygon points="1299.50,1177.64 1280.42,1210.68 1318.58,1210.68" style="fill:none;stroke:#1A476F;stroke-width:8.64"/>
	<polygon points="1002.00,1298.45 975.45,1344.45 1028.56,1344.45" style="fill:#1A476F"/>
	<polygon points="1002.00,1307.09 982.93,1340.13 1021.08,1340.13" style="fill:none;stroke:#1A476F;stroke-width:8.64"/>
	<polygon points="630.26,521.89 603.70,567.89 656.82,567.89" style="fill:#1A476F"/>
	<polygon points="630.26,530.53 611.18,563.57 649.34,563.57" style="fill:none;stroke:#1A476F;stroke-width:8.64"/>
	<polygon points="906.47,1233.73 879.91,1279.73 933.03,1279.73" style="fill:#1A476F"/>
	<polygon points="906.47,1242.37 887.39,1275.41 925.55,1275.41" style="fill:none;stroke:#1A476F;stroke-width:8.64"/>
	<polygon points="1405.68,1427.90 1379.12,1473.90 1432.23,1473.90" style="fill:#1A476F"/>
	<polygon points="1405.68,1436.54 1386.60,1469.58 1424.75,1469.58" style="fill:none;stroke:#1A476F;stroke-width:8.64"/>
	<polygon points="747.08,1427.90 720.52,1473.90 773.64,1473.90" style="fill:#1A476F"/>
	<polygon points="747.08,1436.54 728.00,1469.58 766.16,1469.58" style="fill:none;stroke:#1A476F;stroke-width:8.64"/>
	<polygon points="863.90,1169.00 837.34,1215.00 890.46,1215.00" style="fill:#1A476F"/>
	<polygon points="863.90,1177.64 844.82,1210.68 882.98,1210.68" style="fill:none;stroke:#1A476F;stroke-width:8.64"/>
	<polygon points="354.05,974.83 327.49,1020.83 380.61,1020.83" style="fill:#1A476F"/>
	<polygon points="354.05,983.47 334.97,1016.51 373.13,1016.51" style="fill:none;stroke:#1A476F;stroke-width:8.64"/>
	<polygon points="587.81,845.39 561.25,891.39 614.37,891.39" style="fill:#1A476F"/>
	<polygon points="587.81,854.03 568.74,887.07 606.89,887.07" style="fill:none;stroke:#1A476F;stroke-width:8.64"/>
	<polygon points="2117.36,1880.84 2090.80,1926.84 2143.92,1926.84" style="fill:#1A476F"/>
	<polygon points="2117.36,1889.47 2098.29,1922.52 2136.44,1922.52" style="fill:none;stroke:#1A476F;stroke-width:8.64"/>
	<polygon points="428.42,1104.28 401.86,1150.28 454.98,1150.28" style="fill:#1A476F"/>
	<polygon points="428.42,1112.92 409.35,1145.96 447.50,1145.96" style="fill:none;stroke:#1A476F;stroke-width:8.64"/>
	<polygon points="662.06,521.89 635.50,567.89 688.62,567.89" style="fill:#1A476F"/>
	<polygon points="662.06,530.53 642.99,563.57 681.14,563.57" style="fill:none;stroke:#1A476F;stroke-width:8.64"/>
	<polygon points="1044.57,1621.94 1018.02,1667.94 1071.13,1667.94" style="fill:#1A476F"/>
	<polygon points="1044.57,1630.58 1025.50,1663.62 1063.65,1663.62" style="fill:none;stroke:#1A476F;stroke-width:8.64"/>
	<polygon points="821.45,780.66 794.89,826.66 848.01,826.66" style="fill:#1A476F"/>
	<polygon points="821.45,789.30 802.38,822.34 840.53,822.34" style="fill:none;stroke:#1A476F;stroke-width:8.64"/>
	<polygon points="1320.66,1621.94 1294.10,1667.94 1347.22,1667.94" style="fill:#1A476F"/>
	<polygon points="1320.66,1630.58 1301.58,1663.62 1339.74,1663.62" style="fill:none;stroke:#1A476F;stroke-width:8.64"/>
	<polygon points="779.01,1298.45 752.45,1344.45 805.56,1344.45" style="fill:#1A476F"/>
	<polygon points="779.01,1307.09 759.93,1340.13 798.08,1340.13" style="fill:none;stroke:#1A476F;stroke-width:8.64"/>
	<polygon points="651.54,133.55 624.99,179.55 678.10,179.55" style="fill:#1A476F"/>
	<polygon points="651.54,142.19 632.47,175.24 670.62,175.24" style="fill:none;stroke:#1A476F;stroke-width:8.64"/>
	<polygon points="534.60,1169.00 508.04,1215.00 561.16,1215.00" style="fill:#1A476F"/>
	<polygon points="534.60,1177.64 515.52,1210.68 553.68,1210.68" style="fill:none;stroke:#1A476F;stroke-width:8.64"/>
	<polygon points="598.33,1169.00 571.77,1215.00 624.89,1215.00" style="fill:#1A476F"/>
	<polygon points="598.33,1177.64 579.25,1210.68 617.41,1210.68" style="fill:none;stroke:#1A476F;stroke-width:8.64"/>
	<polygon points="1851.80,1686.67 1825.24,1732.67 1878.35,1732.67" style="fill:#1A476F"/>
	<polygon points="1851.80,1695.30 1832.72,1728.35 1870.87,1728.35" style="fill:none;stroke:#1A476F;stroke-width:8.64"/>
	<line x1="354.05" y1="949.56" x2="1989.90" y2="1548.41" stroke-linecap="round" style="stroke:#008000;stroke-width:8.64"/>
	<line x1="1989.90" y1="1548.41" x2="3625.75" y2="2147.25" stroke-linecap="round" style="stroke:#008000;stroke-width:8.64"/>
	<line x1="290.81" y1="2233.63" x2="290.81" y2="100.86" style="stroke:#000000;stroke-width:5.76"/>
	<line x1="290.81" y1="2170.27" x2="250.84" y2="2170.27" style="stroke:#000000;stroke-width:5.76"/>
	<text x="200.73" y="2170.27" style="font-family:'Helvetica';font-size:99.99px;fill:#000000" transform="rotate(-90 200.73,2170.27)" text-anchor="middle">10</text>
	<line x1="290.81" y1="1523.16" x2="250.84" y2="1523.16" style="stroke:#000000;stroke-width:5.76"/>
	<text x="200.73" y="1523.16" style="font-family:'Helvetica';font-size:99.99px;fill:#000000" transform="rotate(-90 200.73,1523.16)" text-anchor="middle">20</text>
	<line x1="290.81" y1="876.05" x2="250.84" y2="876.05" style="stroke:#000000;stroke-width:5.76"/>
	<text x="200.73" y="876.05" style="font-family:'Helvetica';font-size:99.99px;fill:#000000" transform="rotate(-90 200.73,876.05)" text-anchor="middle">30</text>
	<line x1="290.81" y1="228.82" x2="250.84" y2="228.82" style="stroke:#000000;stroke-width:5.76"/>
	<text x="200.73" y="228.82" style="font-family:'Helvetica';font-size:99.99px;fill:#000000" transform="rotate(-90 200.73,228.82)" text-anchor="middle">40</text>
	<line x1="290.81" y1="2233.63" x2="3859.02" y2="2233.63" style="stroke:#000000;stroke-width:5.76"/>
	<line x1="609.10" y1="2233.63" x2="609.10" y2="2273.73" style="stroke:#000000;stroke-width:5.76"/>
	<text x="609.10" y="2363.59" style="font-family:'Helvetica';font-size:99.99px;fill:#000000" text-anchor="middle">2,000</text>
	<line x1="1671.24" y1="2233.63" x2="1671.24" y2="2273.73" style="stroke:#000000;stroke-width:5.76"/>
	<text x="1671.24" y="2363.59" style="font-family:'Helvetica';font-size:99.99px;fill:#000000" text-anchor="middle">3,000</text>
	<line x1="2733.51" y1="2233.63" x2="2733.51" y2="2273.73" style="stroke:#000000;stroke-width:5.76"/>
	<text x="2733.51" y="2363.59" style="font-family:'Helvetica';font-size:99.99px;fill:#000000" text-anchor="middle">4,000</text>
	<line x1="3795.66" y1="2233.63" x2="3795.66" y2="2273.73" style="stroke:#000000;stroke-width:5.76"/>
	<text x="3795.66" y="2363.59" style="font-family:'Helvetica';font-size:99.99px;fill:#000000" text-anchor="middle">5,000</text>
	<text x="2074.92" y="2473.60" style="font-family:'Helvetica';font-size:99.99px;fill:#000000" text-anchor="middle">Weight (lbs.)</text>
	<rect x="1073.65" y="2558.24" width="2002.65" height="186.37" style="fill:#FFFFFF"/>
	<rect x="1076.53" y="2561.12" width="1996.89" height="180.61" style="fill:none;stroke:#000000;stroke-width:5.76"/>
	<polygon points="1138.75,2620.76 1112.19,2666.76 1165.31,2666.76" style="fill:#1A476F"/>
	<polygon points="1138.75,2629.40 1119.67,2662.44 1157.82,2662.44" style="fill:none;stroke:#1A476F;stroke-width:8.64"/>
	<line x1="2012.79" y1="2651.43" x2="2387.14" y2="2651.43" style="stroke:#008000;stroke-width:8.64"/>
	<text x="1220.79" y="2686.46" style="font-family:'Helvetica';font-size:99.99px;fill:#000000">Mileage (mpg)</text>
	<text x="2447.16" y="2686.46" style="font-family:'Helvetica';font-size:99.99px;fill:#000000">Fitted values</text>
</svg>
