<?xml version="1.0" encoding="UTF-8" standalone="no"?>
<!-- This is a Stata 15.1 generated SVG file (http://www.stata.com) -->

<svg version="1.1" width="5.50in" height="4.00in" viewBox="0 0 3960 2880" xmlns="http://www.w3.org/2000/svg" xmlns:xlink="http://www.w3.org/1999/xlink">
	<desc>Stata Graph - Graph</desc>
	<rect x="0" y="0" width="3960" height="2880" style="fill:#EAF2F3;stroke:none"/>
	<rect x="0.00" y="0.00" width="3959.88" height="2880.00" style="fill:#EAF2F3"/>
	<rect x="2.88" y="2.88" width="3954.12" height="2874.24" style="fill:none;stroke:#EAF2F3;stroke-width:5.76"/>
	<rect x="390.80" y="100.86" width="3468.22" height="2273.85" style="fill:#FFFFFF"/>
	<rect x="393.68" y="103.74" width="3462.46" height="2268.09" style="fill:none;stroke:#FFFFFF;stroke-width:5.76"/>
	<line x1="390.80" y1="2311.35" x2="3859.02" y2="2311.35" style="stroke:#EAF2F3;stroke-width:8.64"/>
	<line x1="390.80" y1="1774.51" x2="3859.02" y2="1774.51" style="stroke:#EAF2F3;stroke-width:8.64"/>
	<line x1="390.80" y1="1237.79" x2="3859.02" y2="1237.79" style="stroke:#EAF2F3;stroke-width:8.64"/>
	<line x1="390.80" y1="700.94" x2="3859.02" y2="700.94" style="stroke:#EAF2F3;stroke-width:8.64"/>
	<line x1="390.80" y1="164.22" x2="3859.02" y2="164.22" style="stroke:#EAF2F3;stroke-width:8.64"/>
	<line x1="454.16" y1="2374.71" x2="454.16" y2="100.86" style="stroke:#EAF2F3;stroke-width:8.64"/>
	<line x1="1289.47" y1="2374.71" x2="1289.47" y2="100.86" style="stroke:#EAF2F3;stroke-width:8.64"/>
	<line x1="2124.91" y1="2374.71" x2="2124.91" y2="100.86" style="stroke:#EAF2F3;stroke-width:8.64"/>
	<line x1="2960.35" y1="2374.71" x2="2960.35" y2="100.86" style="stroke:#EAF2F3;stroke-width:8.64"/>
	<line x1="3795.66" y1="2374.71" x2="3795.66" y2="100.86" style="stroke:#EAF2F3;stroke-width:8.64"/>
	<line x1="454.04" y1="2311.35" x2="454.04" y2="2213.83" stroke-linecap="round" style="stroke:#1A476F;stroke-width:8.64"/>
	<line x1="454.04" y1="2213.83" x2="454.04" y2="2116.19" stroke-linecap="round" style="stroke:#1A476F;stroke-width:8.64"/>
	<line x1="454.04" y1="2116.19" x2="454.04" y2="2018.55" stroke-linecap="round" style="stroke:#1A476F;stroke-width:8.64"/>
	<line x1="454.04" y1="2018.55" x2="454.04" y2="1823.39" stroke-linecap="round" style="stroke:#1A476F;stroke-width:8.64"/>
	<line x1="454.04" y1="1823.39" x2="454.04" y2="1725.75" stroke-linecap="round" style="stroke:#1A476F;stroke-width:8.64"/>
	<line x1="454.04" y1="1725.75" x2="454.04" y2="1628.23" stroke-linecap="round" style="stroke:#1A476F;stroke-width:8.64"/>
	<line x1="454.04" y1="1628.23" x2="454.04" y2="1530.59" stroke-linecap="round" style="stroke:#1A476F;stroke-width:8.64"/>
	<line x1="454.04" y1="1530.59" x2="454.04" y2="1432.95" stroke-linecap="round" style="stroke:#1A476F;stroke-width:8.64"/>
	<line x1="454.04" y1="1432.95" x2="454.04" y2="1335.43" stroke-linecap="round" style="stroke:#1A476F;stroke-width:8.64"/>
	<line x1="454.04" y1="1335.43" x2="454.04" y2="1237.79" stroke-linecap="round" style="stroke:#1A476F;stroke-width:8.64"/>
	<line x1="454.04" y1="1237.79" x2="518.39" y2="1237.79" stroke-linecap="round" style="stroke:#1A476F;stroke-width:8.64"/>
	<line x1="518.39" y1="1237.79" x2="582.62" y2="1237.79" stroke-linecap="round" style="stroke:#1A476F;stroke-width:8.64"/>
	<line x1="582.62" y1="1237.79" x2="646.84" y2="1237.79" stroke-linecap="round" style="stroke:#1A476F;stroke-width:8.64"/>
	<line x1="646.84" y1="1237.79" x2="646.84" y2="1140.14" stroke-linecap="round" style="stroke:#1A476F;stroke-width:8.64"/>
	<line x1="646.84" y1="1140.14" x2="646.84" y2="1042.63" stroke-linecap="round" style="stroke:#1A476F;stroke-width:8.64"/>
	<line x1="646.84" y1="1042.63" x2="646.84" y2="944.98" stroke-linecap="round" style="stroke:#1A476F;stroke-width:8.64"/>
	<line x1="646.84" y1="944.98" x2="646.84" y2="847.47" stroke-linecap="round" style="stroke:#1A476F;stroke-width:8.64"/>
	<line x1="646.84" y1="847.47" x2="711.07" y2="847.47" stroke-linecap="round" style="stroke:#1A476F;stroke-width:8.64"/>
	<line x1="711.07" y1="847.47" x2="711.07" y2="749.82" stroke-linecap="round" style="stroke:#1A476F;stroke-width:8.64"/>
	<line x1="711.07" y1="749.82" x2="775.42" y2="749.82" stroke-linecap="round" style="stroke:#1A476F;stroke-width:8.64"/>
	<line x1="775.42" y1="749.82" x2="775.42" y2="652.18" stroke-linecap="round" style="stroke:#1A476F;stroke-width:8.64"/>
	<line x1="775.42" y1="652.18" x2="775.42" y2="554.66" stroke-linecap="round" style="stroke:#1A476F;stroke-width:8.64"/>
	<line x1="775.42" y1="554.66" x2="839.64" y2="554.66" stroke-linecap="round" style="stroke:#1A476F;stroke-width:8.64"/>
	<line x1="839.64" y1="554.66" x2="903.87" y2="554.66" stroke-linecap="round" style="stroke:#1A476F;stroke-width:8.64"/>
	<line x1="903.87" y1="554.66" x2="968.22" y2="554.66" stroke-linecap="round" style="stroke:#1A476F;stroke-width:8.64"/>
	<line x1="968.22" y1="554.66" x2="1032.45" y2="457.02" stroke-linecap="round" style="stroke:#1A476F;stroke-width:8.64"/>
	<line x1="1032.45" y1="457.02" x2="1032.45" y2="359.38" stroke-linecap="round" style="stroke:#1A476F;stroke-width:8.64"/>
	<line x1="1032.45" y1="359.38" x2="1096.67" y2="359.38" stroke-linecap="round" style="stroke:#1A476F;stroke-width:8.64"/>
	<line x1="1096.67" y1="359.38" x2="1289.47" y2="359.38" stroke-linecap="round" style="stroke:#1A476F;stroke-width:8.64"/>
	<line x1="1289.47" y1="359.38" x2="1289.47" y2="261.86" stroke-linecap="round" style="stroke:#1A476F;stroke-width:8.64"/>
	<line x1="1289.47" y1="261.86" x2="1353.70" y2="261.86" stroke-linecap="round" style="stroke:#1A476F;stroke-width:8.64"/>
	<line x1="1353.70" y1="261.86" x2="1353.70" y2="164.22" stroke-linecap="round" style="stroke:#1A476F;stroke-width:8.64"/>
	<line x1="1353.70" y1="164.22" x2="1418.05" y2="164.22" stroke-linecap="round" style="stroke:#1A476F;stroke-width:8.64"/>
	<line x1="1418.05" y1="164.22" x2="1610.73" y2="164.22" stroke-linecap="round" style="stroke:#1A476F;stroke-width:8.64"/>
	<line x1="1610.73" y1="164.22" x2="1675.08" y2="164.22" stroke-linecap="round" style="stroke:#1A476F;stroke-width:8.64"/>
	<line x1="1675.08" y1="164.22" x2="1803.53" y2="164.22" stroke-linecap="round" style="stroke:#1A476F;stroke-width:8.64"/>
	<line x1="1803.53" y1="164.22" x2="1867.88" y2="164.22" stroke-linecap="round" style="stroke:#1A476F;stroke-width:8.64"/>
	<line x1="1867.88" y1="164.22" x2="1932.11" y2="164.22" stroke-linecap="round" style="stroke:#1A476F;stroke-width:8.64"/>
	<line x1="1932.11" y1="164.22" x2="2060.56" y2="164.22" stroke-linecap="round" style="stroke:#1A476F;stroke-width:8.64"/>
	<line x1="2060.56" y1="164.22" x2="2317.59" y2="164.22" stroke-linecap="round" style="stroke:#1A476F;stroke-width:8.64"/>
	<line x1="2317.59" y1="164.22" x2="2381.94" y2="164.22" stroke-linecap="round" style="stroke:#1A476F;stroke-width:8.64"/>
	<line x1="2381.94" y1="164.22" x2="2446.17" y2="164.22" stroke-linecap="round" style="stroke:#1A476F;stroke-width:8.64"/>
	<line x1="2446.17" y1="164.22" x2="2510.39" y2="164.22" stroke-linecap="round" style="stroke:#1A476F;stroke-width:8.64"/>
	<line x1="2510.39" y1="164.22" x2="2574.74" y2="164.22" stroke-linecap="round" style="stroke:#1A476F;stroke-width:8.64"/>
	<line x1="2574.74" y1="164.22" x2="2767.42" y2="164.22" stroke-linecap="round" style="stroke:#1A476F;stroke-width:8.64"/>
	<line x1="2767.42" y1="164.22" x2="2831.77" y2="164.22" stroke-linecap="round" style="stroke:#1A476F;stroke-width:8.64"/>
	<line x1="2831.77" y1="164.22" x2="2896.00" y2="164.22" stroke-linecap="round" style="stroke:#1A476F;stroke-width:8.64"/>
	<line x1="2896.00" y1="164.22" x2="2960.22" y2="164.22" stroke-linecap="round" style="stroke:#1A476F;stroke-width:8.64"/>
	<line x1="2960.22" y1="164.22" x2="3024.57" y2="164.22" stroke-linecap="round" style="stroke:#1A476F;stroke-width:8.64"/>
	<line x1="3024.57" y1="164.22" x2="3153.03" y2="164.22" stroke-linecap="round" style="stroke:#1A476F;stroke-width:8.64"/>
	<line x1="3153.03" y1="164.22" x2="3217.25" y2="164.22" stroke-linecap="round" style="stroke:#1A476F;stroke-width:8.64"/>
	<line x1="3217.25" y1="164.22" x2="3345.83" y2="164.22" stroke-linecap="round" style="stroke:#1A476F;stroke-width:8.64"/>
	<line x1="3345.83" y1="164.22" x2="3410.05" y2="164.22" stroke-linecap="round" style="stroke:#1A476F;stroke-width:8.64"/>
	<line x1="3410.05" y1="164.22" x2="3538.63" y2="164.22" stroke-linecap="round" style="stroke:#1A476F;stroke-width:8.64"/>
	<line x1="3538.63" y1="164.22" x2="3602.86" y2="164.22" stroke-linecap="round" style="stroke:#1A476F;stroke-width:8.64"/>
	<line x1="3602.86" y1="164.22" x2="3667.08" y2="164.22" stroke-linecap="round" style="stroke:#1A476F;stroke-width:8.64"/>
	<line x1="3667.08" y1="164.22" x2="3731.43" y2="164.22" stroke-linecap="round" style="stroke:#1A476F;stroke-width:8.64"/>
	<line x1="3731.43" y1="164.22" x2="3795.66" y2="164.22" stroke-linecap="round" style="stroke:#1A476F;stroke-width:8.64"/>
	<line x1="3795.66" y1="164.22" x2="3795.66" y2="164.22" stroke-linecap="round" style="stroke:#1A476F;stroke-width:8.64"/>
	<circle cx="454.04" cy="2311.35" r="26.35" style="fill:#1A476F"/>
	<circle cx="454.04" cy="2311.35" r="22.03" style="fill:none;stroke:#1A476F;stroke-width:8.64"/>
	<circle cx="454.04" cy="2213.83" r="26.35" style="fill:#1A476F"/>
	<circle cx="454.04" cy="2213.83" r="22.03" style="fill:none;stroke:#1A476F;stroke-width:8.64"/>
	<circle cx="454.04" cy="2116.19" r="26.35" style="fill:#1A476F"/>
	<circle cx="454.04" cy="2116.19" r="22.03" style="fill:none;stroke:#1A476F;stroke-width:8.64"/>
	<circle cx="454.04" cy="2018.55" r="26.35" style="fill:#1A476F"/>
	<circle cx="454.04" cy="2018.55" r="22.03" style="fill:none;stroke:#1A476F;stroke-width:8.64"/>
	<circle cx="454.04" cy="1823.39" r="26.35" style="fill:#1A476F"/>
	<circle cx="454.04" cy="1823.39" r="22.03" style="fill:none;stroke:#1A476F;stroke-width:8.64"/>
	<circle cx="454.04" cy="1725.75" r="26.35" style="fill:#1A476F"/>
	<circle cx="454.04" cy="1725.75" r="22.03" style="fill:none;stroke:#1A476F;stroke-width:8.64"/>
	<circle cx="454.04" cy="1628.23" r="26.35" style="fill:#1A476F"/>
	<circle cx="454.04" cy="1628.23" r="22.03" style="fill:none;stroke:#1A476F;stroke-width:8.64"/>
	<circle cx="454.04" cy="1530.59" r="26.35" style="fill:#1A476F"/>
	<circle cx="454.04" cy="1530.59" r="22.03" style="fill:none;stroke:#1A476F;stroke-width:8.64"/>
	<circle cx="454.04" cy="1432.95" r="26.35" style="fill:#1A476F"/>
	<circle cx="454.04" cy="1432.95" r="22.03" style="fill:none;stroke:#1A476F;stroke-width:8.64"/>
	<circle cx="454.04" cy="1335.43" r="26.35" style="fill:#1A476F"/>
	<circle cx="454.04" cy="1335.43" r="22.03" style="fill:none;stroke:#1A476F;stroke-width:8.64"/>
	<circle cx="454.04" cy="1237.79" r="26.35" style="fill:#1A476F"/>
	<circle cx="454.04" cy="1237.79" r="22.03" style="fill:none;stroke:#1A476F;stroke-width:8.64"/>
	<circle cx="518.39" cy="1237.79" r="26.35" style="fill:#1A476F"/>
	<circle cx="518.39" cy="1237.79" r="22.03" style="fill:none;stroke:#1A476F;stroke-width:8.64"/>
	<circle cx="582.62" cy="1237.79" r="26.35" style="fill:#1A476F"/>
	<circle cx="582.62" cy="1237.79" r="22.03" style="fill:none;stroke:#1A476F;stroke-width:8.64"/>
	<circle cx="646.84" cy="1237.79" r="26.35" style="fill:#1A476F"/>
	<circle cx="646.84" cy="1237.79" r="22.03" style="fill:none;stroke:#1A476F;stroke-width:8.64"/>
	<circle cx="646.84" cy="1140.14" r="26.35" style="fill:#1A476F"/>
	<circle cx="646.84" cy="1140.14" r="22.03" style="fill:none;stroke:#1A476F;stroke-width:8.64"/>
	<circle cx="646.84" cy="1042.63" r="26.35" style="fill:#1A476F"/>
	<circle cx="646.84" cy="1042.63" r="22.03" style="fill:none;stroke:#1A476F;stroke-width:8.64"/>
	<circle cx="646.84" cy="944.98" r="26.35" style="fill:#1A476F"/>
	<circle cx="646.84" cy="944.98" r="22.03" style="fill:none;stroke:#1A476F;stroke-width:8.64"/>
	<circle cx="646.84" cy="847.47" r="26.35" style="fill:#1A476F"/>
	<circle cx="646.84" cy="847.47" r="22.03" style="fill:none;stroke:#1A476F;stroke-width:8.64"/>
	<circle cx="711.07" cy="847.47" r="26.35" style="fill:#1A476F"/>
	<circle cx="711.07" cy="847.47" r="22.03" style="fill:none;stroke:#1A476F;stroke-width:8.64"/>
	<circle cx="711.07" cy="749.82" r="26.35" style="fill:#1A476F"/>
	<circle cx="711.07" cy="749.82" r="22.03" style="fill:none;stroke:#1A476F;stroke-width:8.64"/>
	<circle cx="775.42" cy="749.82" r="26.35" style="fill:#1A476F"/>
	<circle cx="775.42" cy="749.82" r="22.03" style="fill:none;stroke:#1A476F;stroke-width:8.64"/>
	<circle cx="775.42" cy="652.18" r="26.35" style="fill:#1A476F"/>
	<circle cx="775.42" cy="652.18" r="22.03" style="fill:none;stroke:#1A476F;stroke-width:8.64"/>
	<circle cx="775.42" cy="554.66" r="26.35" style="fill:#1A476F"/>
	<circle cx="775.42" cy="554.66" r="22.03" style="fill:none;stroke:#1A476F;stroke-width:8.64"/>
	<circle cx="839.64" cy="554.66" r="26.35" style="fill:#1A476F"/>
	<circle cx="839.64" cy="554.66" r="22.03" style="fill:none;stroke:#1A476F;stroke-width:8.64"/>
	<circle cx="903.87" cy="554.66" r="26.35" style="fill:#1A476F"/>
	<circle cx="903.87" cy="554.66" r="22.03" style="fill:none;stroke:#1A476F;stroke-width:8.64"/>
	<circle cx="968.22" cy="554.66" r="26.35" style="fill:#1A476F"/>
	<circle cx="968.22" cy="554.66" r="22.03" style="fill:none;stroke:#1A476F;stroke-width:8.64"/>
	<circle cx="1032.45" cy="457.02" r="26.35" style="fill:#1A476F"/>
	<circle cx="1032.45" cy="457.02" r="22.03" style="fill:none;stroke:#1A476F;stroke-width:8.64"/>
	<circle cx="1032.45" cy="359.38" r="26.35" style="fill:#1A476F"/>
	<circle cx="1032.45" cy="359.38" r="22.03" style="fill:none;stroke:#1A476F;stroke-width:8.64"/>
	<circle cx="1096.67" cy="359.38" r="26.35" style="fill:#1A476F"/>
	<circle cx="1096.67" cy="359.38" r="22.03" style="fill:none;stroke:#1A476F;stroke-width:8.64"/>
	<circle cx="1289.47" cy="359.38" r="26.35" style="fill:#1A476F"/>
	<circle cx="1289.47" cy="359.38" r="22.03" style="fill:none;stroke:#1A476F;stroke-width:8.64"/>
	<circle cx="1289.47" cy="261.86" r="26.35" style="fill:#1A476F"/>
	<circle cx="1289.47" cy="261.86" r="22.03" style="fill:none;stroke:#1A476F;stroke-width:8.64"/>
	<circle cx="1353.70" cy="261.86" r="26.35" style="fill:#1A476F"/>
	<circle cx="1353.70" cy="261.86" r="22.03" style="fill:none;stroke:#1A476F;stroke-width:8.64"/>
	<circle cx="1353.70" cy="164.22" r="26.35" style="fill:#1A476F"/>
	<circle cx="1353.70" cy="164.22" r="22.03" style="fill:none;stroke:#1A476F;stroke-width:8.64"/>
	<circle cx="1418.05" cy="164.22" r="26.35" style="fill:#1A476F"/>
	<circle cx="1418.05" cy="164.22" r="22.03" style="fill:none;stroke:#1A476F;stroke-width:8.64"/>
	<circle cx="1610.73" cy="164.22" r="26.35" style="fill:#1A476F"/>
	<circle cx="1610.73" cy="164.22" r="22.03" style="fill:none;stroke:#1A476F;stroke-width:8.64"/>
	<circle cx="1675.08" cy="164.22" r="26.35" style="fill:#1A476F"/>
	<circle cx="1675.08" cy="164.22" r="22.03" style="fill:none;stroke:#1A476F;stroke-width:8.64"/>
	<circle cx="1803.53" cy="164.22" r="26.35" style="fill:#1A476F"/>
	<circle cx="1803.53" cy="164.22" r="22.03" style="fill:none;stroke:#1A476F;stroke-width:8.64"/>
	<circle cx="1867.88" cy="164.22" r="26.35" style="fill:#1A476F"/>
	<circle cx="1867.88" cy="164.22" r="22.03" style="fill:none;stroke:#1A476F;stroke-width:8.64"/>
	<circle cx="1932.11" cy="164.22" r="26.35" style="fill:#1A476F"/>
	<circle cx="1932.11" cy="164.22" r="22.03" style="fill:none;stroke:#1A476F;stroke-width:8.64"/>
	<circle cx="2060.56" cy="164.22" r="26.35" style="fill:#1A476F"/>
	<circle cx="2060.56" cy="164.22" r="22.03" style="fill:none;stroke:#1A476F;stroke-width:8.64"/>
	<circle cx="2317.59" cy="164.22" r="26.35" style="fill:#1A476F"/>
	<circle cx="2317.59" cy="164.22" r="22.03" style="fill:none;stroke:#1A476F;stroke-width:8.64"/>
	<circle cx="2381.94" cy="164.22" r="26.35" style="fill:#1A476F"/>
	<circle cx="2381.94" cy="164.22" r="22.03" style="fill:none;stroke:#1A476F;stroke-width:8.64"/>
	<circle cx="2446.17" cy="164.22" r="26.35" style="fill:#1A476F"/>
	<circle cx="2446.17" cy="164.22" r="22.03" style="fill:none;stroke:#1A476F;stroke-width:8.64"/>
	<circle cx="2510.39" cy="164.22" r="26.35" style="fill:#1A476F"/>
	<circle cx="2510.39" cy="164.22" r="22.03" style="fill:none;stroke:#1A476F;stroke-width:8.64"/>
	<circle cx="2574.74" cy="164.22" r="26.35" style="fill:#1A476F"/>
	<circle cx="2574.74" cy="164.22" r="22.03" style="fill:none;stroke:#1A476F;stroke-width:8.64"/>
	<circle cx="2767.42" cy="164.22" r="26.35" style="fill:#1A476F"/>
	<circle cx="2767.42" cy="164.22" r="22.03" style="fill:none;stroke:#1A476F;stroke-width:8.64"/>
	<circle cx="2831.77" cy="164.22" r="26.35" style="fill:#1A476F"/>
	<circle cx="2831.77" cy="164.22" r="22.03" style="fill:none;stroke:#1A476F;stroke-width:8.64"/>
	<circle cx="2896.00" cy="164.22" r="26.35" style="fill:#1A476F"/>
	<circle cx="2896.00" cy="164.22" r="22.03" style="fill:none;stroke:#1A476F;stroke-width:8.64"/>
	<circle cx="2960.22" cy="164.22" r="26.35" style="fill:#1A476F"/>
	<circle cx="2960.22" cy="164.22" r="22.03" style="fill:none;stroke:#1A476F;stroke-width:8.64"/>
	<circle cx="3024.57" cy="164.22" r="26.35" style="fill:#1A476F"/>
	<circle cx="3024.57" cy="164.22" r="22.03" style="fill:none;stroke:#1A476F;stroke-width:8.64"/>
	<circle cx="3153.03" cy="164.22" r="26.35" style="fill:#1A476F"/>
	<circle cx="3153.03" cy="164.22" r="22.03" style="fill:none;stroke:#1A476F;stroke-width:8.64"/>
	<circle cx="3217.25" cy="164.22" r="26.35" style="fill:#1A476F"/>
	<circle cx="3217.25" cy="164.22" r="22.03" style="fill:none;stroke:#1A476F;stroke-width:8.64"/>
	<circle cx="3345.83" cy="164.22" r="26.35" style="fill:#1A476F"/>
	<circle cx="3345.83" cy="164.22" r="22.03" style="fill:none;stroke:#1A476F;stroke-width:8.64"/>
	<circle cx="3410.05" cy="164.22" r="26.35" style="fill:#1A476F"/>
	<circle cx="3410.05" cy="164.22" r="22.03" style="fill:none;stroke:#1A476F;stroke-width:8.64"/>
	<circle cx="3538.63" cy="164.22" r="26.35" style="fill:#1A476F"/>
	<circle cx="3538.63" cy="164.22" r="22.03" style="fill:none;stroke:#1A476F;stroke-width:8.64"/>
	<circle cx="3602.86" cy="164.22" r="26.35" style="fill:#1A476F"/>
	<circle cx="3602.86" cy="164.22" r="22.03" style="fill:none;stroke:#1A476F;stroke-width:8.64"/>
	<circle cx="3667.08" cy="164.22" r="26.35" style="fill:#1A476F"/>
	<circle cx="3667.08" cy="164.22" r="22.03" style="fill:none;stroke:#1A476F;stroke-width:8.64"/>
	<circle cx="3731.43" cy="164.22" r="26.35" style="fill:#1A476F"/>
	<circle cx="3731.43" cy="164.22" r="22.03" style="fill:none;stroke:#1A476F;stroke-width:8.64"/>
	<circle cx="3795.66" cy="164.22" r="26.35" style="fill:#1A476F"/>
	<circle cx="3795.66" cy="164.22" r="22.03" style="fill:none;stroke:#1A476F;stroke-width:8.64"/>
	<circle cx="3795.66" cy="164.22" r="26.35" style="fill:#1A476F"/>
	<circle cx="3795.66" cy="164.22" r="22.03" style="fill:none;stroke:#1A476F;stroke-width:8.64"/>
	<line x1="454.04" y1="2311.35" x2="3795.66" y2="164.22" stroke-linecap="round" style="stroke:#2D6D66;stroke-width:8.64"/>
	<line x1="390.80" y1="2374.71" x2="390.80" y2="100.86" style="stroke:#000000;stroke-width:5.76"/>
	<line x1="390.80" y1="2311.35" x2="350.83" y2="2311.35" style="stroke:#000000;stroke-width:5.76"/>
	<text x="300.72" y="2311.35" style="font-family:'Helvetica';font-size:99.99px;fill:#000000" transform="rotate(-90 300.72,2311.35)" text-anchor="middle">0.00</text>
	<line x1="390.80" y1="1774.51" x2="350.83" y2="1774.51" style="stroke:#000000;stroke-width:5.76"/>
	<text x="300.72" y="1774.51" style="font-family:'Helvetica';font-size:99.99px;fill:#000000" transform="rotate(-90 300.72,1774.51)" text-anchor="middle">0.25</text>
	<line x1="390.80" y1="1237.79" x2="350.83" y2="1237.79" style="stroke:#000000;stroke-width:5.76"/>
	<text x="300.72" y="1237.79" style="font-family:'Helvetica';font-size:99.99px;fill:#000000" transform="rotate(-90 300.72,1237.79)" text-anchor="middle">0.50</text>
	<line x1="390.80" y1="700.94" x2="350.83" y2="700.94" style="stroke:#000000;stroke-width:5.76"/>
	<text x="300.72" y="700.94" style="font-family:'Helvetica';font-size:99.99px;fill:#000000" transform="rotate(-90 300.72,700.94)" text-anchor="middle">0.75</text>
	<line x1="390.80" y1="164.22" x2="350.83" y2="164.22" style="stroke:#000000;stroke-width:5.76"/>
	<text x="300.72" y="164.22" style="font-family:'Helvetica';font-size:99.99px;fill:#000000" transform="rotate(-90 300.72,164.22)" text-anchor="middle">1.00</text>
	<text x="190.71" y="1237.79" style="font-family:'Helvetica';font-size:99.99px;fill:#000000" transform="rotate(-90 190.71,1237.79)" text-anchor="middle">Sensitivity</text>
	<line x1="390.80" y1="2374.71" x2="3859.02" y2="2374.71" style="stroke:#000000;stroke-width:5.76"/>
	<line x1="454.16" y1="2374.71" x2="454.16" y2="2414.69" style="stroke:#000000;stroke-width:5.76"/>
	<text x="454.16" y="2504.54" style="font-family:'Helvetica';font-size:99.99px;fill:#000000" text-anchor="middle">0.00</text>
	<line x1="1289.47" y1="2374.71" x2="1289.47" y2="2414.69" style="stroke:#000000;stroke-width:5.76"/>
	<text x="1289.47" y="2504.54" style="font-family:'Helvetica';font-size:99.99px;fill:#000000" text-anchor="middle">0.25</text>
	<line x1="2124.91" y1="2374.71" x2="2124.91" y2="2414.69" style="stroke:#000000;stroke-width:5.76"/>
	<text x="2124.91" y="2504.54" style="font-family:'Helvetica';font-size:99.99px;fill:#000000" text-anchor="middle">0.50</text>
	<line x1="2960.35" y1="2374.71" x2="2960.35" y2="2414.69" style="stroke:#000000;stroke-width:5.76"/>
	<text x="2960.35" y="2504.54" style="font-family:'Helvetica';font-size:99.99px;fill:#000000" text-anchor="middle">0.75</text>
	<line x1="3795.66" y1="2374.71" x2="3795.66" y2="2414.69" style="stroke:#000000;stroke-width:5.76"/>
	<text x="3795.66" y="2504.54" style="font-family:'Helvetica';font-size:99.99px;fill:#000000" text-anchor="middle">1.00</text>
	<text x="2124.91" y="2614.56" style="font-family:'Helvetica';font-size:99.99px;fill:#000000" text-anchor="middle">1 - Specificity</text>
	<text x="408.00" y="2737.89" style="font-family:'Helvetica';font-size:79.94px;fill:#000000">Area under ROC curve = 0.9384</text>
</svg>
