<?xml version="1.0" encoding="UTF-8" standalone="no"?>
<!-- This is a Stata 16.0 generated SVG file (http://www.stata.com) -->

<svg version="1.1" width="5.50in" height="4.00in" viewBox="0 0 3960 2880" xmlns="http://www.w3.org/2000/svg" xmlns:xlink="http://www.w3.org/1999/xlink">
	<desc>Stata Graph - Graph</desc>
	<rect x="0" y="0" width="3960" height="2880" style="fill:#EAF2F3;stroke:none"/>
	<rect x="0.00" y="0.00" width="3959.88" height="2880.00" style="fill:#EAF2F3"/>
	<rect x="2.88" y="2.88" width="3954.12" height="2874.24" style="fill:none;stroke:#EAF2F3;stroke-width:5.76"/>
	<rect x="390.80" y="100.86" width="3468.22" height="2388.33" style="fill:#FFFFFF"/>
	<rect x="393.68" y="103.74" width="3462.46" height="2382.57" style="fill:none;stroke:#FFFFFF;stroke-width:5.76"/>
	<line x1="390.80" y1="2489.19" x2="3859.02" y2="2489.19" style="stroke:#EAF2F3;stroke-width:8.64"/>
	<line x1="390.80" y1="1907.91" x2="3859.02" y2="1907.91" style="stroke:#EAF2F3;stroke-width:8.64"/>
	<line x1="390.80" y1="1326.64" x2="3859.02" y2="1326.64" style="stroke:#EAF2F3;stroke-width:8.64"/>
	<line x1="390.80" y1="745.37" x2="3859.02" y2="745.37" style="stroke:#EAF2F3;stroke-width:8.64"/>
	<line x1="390.80" y1="164.22" x2="3859.02" y2="164.22" style="stroke:#EAF2F3;stroke-width:8.64"/>
	<rect x="537.69" y="2391.67" width="90.46" height="97.52" style="fill:#CAC27E"/>
	<rect x="542.01" y="2395.99" width="81.82" height="88.88" style="fill:none;stroke:#D7D29E;stroke-width:8.64"/>
	<rect x="628.15" y="1974.12" width="90.59" height="515.06" style="fill:#CAC27E"/>
	<rect x="632.47" y="1978.44" width="81.95" height="506.42" style="fill:none;stroke:#D7D29E;stroke-width:8.64"/>
	<rect x="718.74" y="1293.72" width="90.46" height="1195.46" style="fill:#CAC27E"/>
	<rect x="723.06" y="1298.04" width="81.82" height="1186.82" style="fill:none;stroke:#D7D29E;stroke-width:8.64"/>
	<rect x="809.20" y="599.71" width="90.46" height="1889.47" style="fill:#CAC27E"/>
	<rect x="813.52" y="604.03" width="81.82" height="1880.83" style="fill:none;stroke:#D7D29E;stroke-width:8.64"/>
	<rect x="899.66" y="233.65" width="90.46" height="2255.54" style="fill:#CAC27E"/>
	<rect x="903.98" y="237.97" width="81.82" height="2246.90" style="fill:none;stroke:#D7D29E;stroke-width:8.64"/>
	<rect x="990.12" y="474.97" width="90.59" height="2014.22" style="fill:#CAC27E"/>
	<rect x="994.44" y="479.29" width="81.95" height="2005.58" style="fill:none;stroke:#D7D29E;stroke-width:8.64"/>
	<rect x="1080.71" y="252.71" width="90.46" height="2236.48" style="fill:#CAC27E"/>
	<rect x="1085.03" y="257.03" width="81.82" height="2227.84" style="fill:none;stroke:#D7D29E;stroke-width:8.64"/>
	<rect x="1171.17" y="1524.15" width="90.46" height="965.03" style="fill:#CAC27E"/>
	<rect x="1175.49" y="1528.47" width="81.82" height="956.39" style="fill:none;stroke:#D7D29E;stroke-width:8.64"/>
	<rect x="1261.63" y="1705.70" width="90.59" height="783.49" style="fill:#CAC27E"/>
	<rect x="1265.95" y="1710.02" width="81.95" height="774.85" style="fill:none;stroke:#D7D29E;stroke-width:8.64"/>
	<rect x="1352.22" y="1995.78" width="90.46" height="493.41" style="fill:#CAC27E"/>
	<rect x="1356.54" y="2000.10" width="81.82" height="484.77" style="fill:none;stroke:#D7D29E;stroke-width:8.64"/>
	<rect x="1442.68" y="2182.89" width="90.46" height="306.29" style="fill:#CAC27E"/>
	<rect x="1447.00" y="2187.21" width="81.82" height="297.65" style="fill:none;stroke:#D7D29E;stroke-width:8.64"/>
	<rect x="1533.14" y="2266.92" width="90.59" height="222.26" style="fill:#CAC27E"/>
	<rect x="1537.46" y="2271.24" width="81.95" height="213.62" style="fill:none;stroke:#D7D29E;stroke-width:8.64"/>
	<rect x="1623.72" y="2294.03" width="90.46" height="195.16" style="fill:#CAC27E"/>
	<rect x="1628.04" y="2298.35" width="81.82" height="186.52" style="fill:none;stroke:#D7D29E;stroke-width:8.64"/>
	<rect x="1714.18" y="2416.05" width="90.46" height="73.14" style="fill:#CAC27E"/>
	<rect x="1718.50" y="2420.37" width="81.82" height="64.50" style="fill:none;stroke:#D7D29E;stroke-width:8.64"/>
	<rect x="1804.65" y="2429.54" width="90.59" height="59.65" style="fill:#CAC27E"/>
	<rect x="1808.97" y="2433.86" width="81.95" height="51.01" style="fill:none;stroke:#D7D29E;stroke-width:8.64"/>
	<rect x="1895.23" y="2462.08" width="90.46" height="27.10" style="fill:#CAC27E"/>
	<rect x="1899.55" y="2466.40" width="81.82" height="18.46" style="fill:none;stroke:#D7D29E;stroke-width:8.64"/>
	<rect x="1985.69" y="2464.81" width="90.46" height="24.38" style="fill:#CAC27E"/>
	<rect x="1990.01" y="2469.13" width="81.82" height="15.74" style="fill:none;stroke:#D7D29E;stroke-width:8.64"/>
	<rect x="2076.15" y="2481.02" width="90.59" height="8.17" style="fill:#CAC27E"/>
	<rect x="2080.47" y="2485.34" width="81.95" height="-0.47" style="fill:none;stroke:#D7D29E;stroke-width:8.64"/>
	<rect x="2166.74" y="2475.70" width="90.46" height="13.49" style="fill:#CAC27E"/>
	<rect x="2171.06" y="2480.02" width="81.82" height="4.85" style="fill:none;stroke:#D7D29E;stroke-width:8.64"/>
	<rect x="2257.20" y="2486.46" width="90.46" height="2.72" style="fill:#CAC27E"/>
	<rect x="2261.52" y="2490.78" width="81.82" height="-5.92" style="fill:none;stroke:#D7D29E;stroke-width:8.64"/>
	<rect x="2347.66" y="2483.74" width="90.59" height="5.45" style="fill:#CAC27E"/>
	<rect x="2351.98" y="2488.06" width="81.95" height="-3.19" style="fill:none;stroke:#D7D29E;stroke-width:8.64"/>
	<rect x="2438.25" y="2486.46" width="90.46" height="2.72" style="fill:#CAC27E"/>
	<rect x="2442.57" y="2490.78" width="81.82" height="-5.92" style="fill:none;stroke:#D7D29E;stroke-width:8.64"/>
	<rect x="2528.71" y="2481.02" width="90.46" height="8.17" style="fill:#CAC27E"/>
	<rect x="2533.03" y="2485.34" width="81.82" height="-0.47" style="fill:none;stroke:#D7D29E;stroke-width:8.64"/>
	<rect x="2619.17" y="2483.74" width="90.59" height="5.45" style="fill:#CAC27E"/>
	<rect x="2623.49" y="2488.06" width="81.95" height="-3.19" style="fill:none;stroke:#D7D29E;stroke-width:8.64"/>
	<rect x="2709.75" y="2486.46" width="90.46" height="2.72" style="fill:#CAC27E"/>
	<rect x="2714.07" y="2490.78" width="81.82" height="-5.92" style="fill:none;stroke:#D7D29E;stroke-width:8.64"/>
	<rect x="2981.26" y="2486.46" width="90.46" height="2.72" style="fill:#CAC27E"/>
	<rect x="2985.58" y="2490.78" width="81.82" height="-5.92" style="fill:none;stroke:#D7D29E;stroke-width:8.64"/>
	<rect x="3071.72" y="2486.46" width="90.46" height="2.72" style="fill:#CAC27E"/>
	<rect x="3076.04" y="2490.78" width="81.82" height="-5.92" style="fill:none;stroke:#D7D29E;stroke-width:8.64"/>
	<rect x="3162.18" y="2486.46" width="90.59" height="2.72" style="fill:#CAC27E"/>
	<rect x="3166.50" y="2490.78" width="81.95" height="-5.92" style="fill:none;stroke:#D7D29E;stroke-width:8.64"/>
	<rect x="3705.20" y="2486.46" width="90.46" height="2.72" style="fill:#CAC27E"/>
	<rect x="3709.52" y="2490.78" width="81.82" height="-5.92" style="fill:none;stroke:#D7D29E;stroke-width:8.64"/>
	<line x1="390.80" y1="2489.19" x2="390.80" y2="100.86" style="stroke:#000000;stroke-width:5.76"/>
	<line x1="390.80" y1="2489.19" x2="350.83" y2="2489.19" style="stroke:#000000;stroke-width:5.76"/>
	<text x="300.72" y="2489.19" style="font-family:'Helvetica';font-size:99.99px;fill:#000000" transform="rotate(-90 300.72,2489.19)" text-anchor="middle">0</text>
	<line x1="390.80" y1="1907.91" x2="350.83" y2="1907.91" style="stroke:#000000;stroke-width:5.76"/>
	<text x="300.72" y="1907.91" style="font-family:'Helvetica';font-size:99.99px;fill:#000000" transform="rotate(-90 300.72,1907.91)" text-anchor="middle">.02</text>
	<line x1="390.80" y1="1326.64" x2="350.83" y2="1326.64" style="stroke:#000000;stroke-width:5.76"/>
	<text x="300.72" y="1326.64" style="font-family:'Helvetica';font-size:99.99px;fill:#000000" transform="rotate(-90 300.72,1326.64)" text-anchor="middle">.04</text>
	<line x1="390.80" y1="745.37" x2="350.83" y2="745.37" style="stroke:#000000;stroke-width:5.76"/>
	<text x="300.72" y="745.37" style="font-family:'Helvetica';font-size:99.99px;fill:#000000" transform="rotate(-90 300.72,745.37)" text-anchor="middle">.06</text>
	<line x1="390.80" y1="164.22" x2="350.83" y2="164.22" style="stroke:#000000;stroke-width:5.76"/>
	<text x="300.72" y="164.22" style="font-family:'Helvetica';font-size:99.99px;fill:#000000" transform="rotate(-90 300.72,164.22)" text-anchor="middle">.08</text>
	<text x="190.71" y="1294.96" style="font-family:'Helvetica';font-size:99.99px;fill:#000000" transform="rotate(-90 190.71,1294.96)" text-anchor="middle">Density</text>
	<line x1="390.80" y1="2489.19" x2="3859.02" y2="2489.19" style="stroke:#000000;stroke-width:5.76"/>
	<line x1="454.16" y1="2489.19" x2="454.16" y2="2529.16" style="stroke:#000000;stroke-width:5.76"/>
	<text x="454.16" y="2619.14" style="font-family:'Helvetica';font-size:99.99px;fill:#000000" text-anchor="middle">0</text>
	<line x1="1289.47" y1="2489.19" x2="1289.47" y2="2529.16" style="stroke:#000000;stroke-width:5.76"/>
	<text x="1289.47" y="2619.14" style="font-family:'Helvetica';font-size:99.99px;fill:#000000" text-anchor="middle">20</text>
	<line x1="2124.91" y1="2489.19" x2="2124.91" y2="2529.16" style="stroke:#000000;stroke-width:5.76"/>
	<text x="2124.91" y="2619.14" style="font-family:'Helvetica';font-size:99.99px;fill:#000000" text-anchor="middle">40</text>
	<line x1="2960.35" y1="2489.19" x2="2960.35" y2="2529.16" style="stroke:#000000;stroke-width:5.76"/>
	<text x="2960.35" y="2619.14" style="font-family:'Helvetica';font-size:99.99px;fill:#000000" text-anchor="middle">60</text>
	<line x1="3795.66" y1="2489.19" x2="3795.66" y2="2529.16" style="stroke:#000000;stroke-width:5.76"/>
	<text x="3795.66" y="2619.14" style="font-family:'Helvetica';font-size:99.99px;fill:#000000" text-anchor="middle">80</text>
	<text x="2124.91" y="2729.16" style="font-family:'Helvetica';font-size:99.99px;fill:#000000" text-anchor="middle">lead (mcg/dL)</text>
</svg>
