<?xml version="1.0" encoding="UTF-8" standalone="no"?>
<!-- This is a Stata 15.1 generated SVG file (http://www.stata.com) -->

<svg version="1.1" width="5.50in" height="4.00in" viewBox="0 0 3960 2880" xmlns="http://www.w3.org/2000/svg" xmlns:xlink="http://www.w3.org/1999/xlink">
	<desc>Stata Graph - Graph</desc>
	<rect x="0" y="0" width="3960" height="2880" style="fill:#EAF2F3;stroke:none"/>
	<rect x="0.00" y="0.00" width="3959.88" height="2880.00" style="fill:#EAF2F3"/>
	<rect x="2.88" y="2.88" width="3954.12" height="2874.24" style="fill:none;stroke:#EAF2F3;stroke-width:5.76"/>
	<rect x="390.80" y="100.86" width="3468.22" height="2388.33" style="fill:#FFFFFF"/>
	<rect x="393.68" y="103.74" width="3462.46" height="2382.57" style="fill:none;stroke:#FFFFFF;stroke-width:5.76"/>
	<line x1="390.80" y1="2489.19" x2="3859.02" y2="2489.19" style="stroke:#EAF2F3;stroke-width:8.64"/>
	<line x1="390.80" y1="2024.24" x2="3859.02" y2="2024.24" style="stroke:#EAF2F3;stroke-width:8.64"/>
	<line x1="390.80" y1="1559.17" x2="3859.02" y2="1559.17" style="stroke:#EAF2F3;stroke-width:8.64"/>
	<line x1="390.80" y1="1094.23" x2="3859.02" y2="1094.23" style="stroke:#EAF2F3;stroke-width:8.64"/>
	<line x1="390.80" y1="629.16" x2="3859.02" y2="629.16" style="stroke:#EAF2F3;stroke-width:8.64"/>
	<line x1="390.80" y1="164.22" x2="3859.02" y2="164.22" style="stroke:#EAF2F3;stroke-width:8.64"/>
	<rect x="669.74" y="1622.41" width="390.68" height="866.77" style="fill:#CAC27E"/>
	<rect x="674.05" y="1626.73" width="382.04" height="858.13" style="fill:none;stroke:#D7D29E;stroke-width:8.64"/>
	<rect x="1060.41" y="322.38" width="390.80" height="2166.81" style="fill:#CAC27E"/>
	<rect x="1064.73" y="326.70" width="382.16" height="2158.17" style="fill:none;stroke:#D7D29E;stroke-width:8.64"/>
	<rect x="1451.22" y="1362.41" width="390.80" height="1126.78" style="fill:#CAC27E"/>
	<rect x="1455.54" y="1366.73" width="382.16" height="1118.14" style="fill:none;stroke:#D7D29E;stroke-width:8.64"/>
	<rect x="1842.02" y="1189.03" width="390.68" height="1300.16" style="fill:#CAC27E"/>
	<rect x="1846.34" y="1193.35" width="382.04" height="1291.52" style="fill:none;stroke:#D7D29E;stroke-width:8.64"/>
	<rect x="2232.70" y="1969.17" width="390.80" height="520.01" style="fill:#CAC27E"/>
	<rect x="2237.02" y="1973.49" width="382.16" height="511.37" style="fill:none;stroke:#D7D29E;stroke-width:8.64"/>
	<rect x="2623.50" y="2402.56" width="390.68" height="86.63" style="fill:#CAC27E"/>
	<rect x="2627.82" y="2406.88" width="382.04" height="77.99" style="fill:none;stroke:#D7D29E;stroke-width:8.64"/>
	<rect x="3014.18" y="2229.18" width="390.80" height="260.01" style="fill:#CAC27E"/>
	<rect x="3018.50" y="2233.50" width="382.16" height="251.37" style="fill:none;stroke:#D7D29E;stroke-width:8.64"/>
	<rect x="3404.98" y="2402.56" width="390.68" height="86.63" style="fill:#CAC27E"/>
	<rect x="3409.30" y="2406.88" width="382.04" height="77.99" style="fill:none;stroke:#D7D29E;stroke-width:8.64"/>
	<line x1="390.80" y1="2489.19" x2="390.80" y2="100.86" style="stroke:#000000;stroke-width:5.76"/>
	<line x1="390.80" y1="2489.19" x2="350.83" y2="2489.19" style="stroke:#000000;stroke-width:5.76"/>
	<text x="300.72" y="2489.19" style="font-family:'Helvetica';font-size:99.99px;fill:#000000" transform="rotate(-90 300.72,2489.19)" text-anchor="middle">0</text>
	<line x1="390.80" y1="2024.24" x2="350.83" y2="2024.24" style="stroke:#000000;stroke-width:5.76"/>
	<text x="300.72" y="2024.24" style="font-family:'Helvetica';font-size:99.99px;fill:#000000" transform="rotate(-90 300.72,2024.24)" text-anchor="middle">.02</text>
	<line x1="390.80" y1="1559.17" x2="350.83" y2="1559.17" style="stroke:#000000;stroke-width:5.76"/>
	<text x="300.72" y="1559.17" style="font-family:'Helvetica';font-size:99.99px;fill:#000000" transform="rotate(-90 300.72,1559.17)" text-anchor="middle">.04</text>
	<line x1="390.80" y1="1094.23" x2="350.83" y2="1094.23" style="stroke:#000000;stroke-width:5.76"/>
	<text x="300.72" y="1094.23" style="font-family:'Helvetica';font-size:99.99px;fill:#000000" transform="rotate(-90 300.72,1094.23)" text-anchor="middle">.06</text>
	<line x1="390.80" y1="629.16" x2="350.83" y2="629.16" style="stroke:#000000;stroke-width:5.76"/>
	<text x="300.72" y="629.16" style="font-family:'Helvetica';font-size:99.99px;fill:#000000" transform="rotate(-90 300.72,629.16)" text-anchor="middle">.08</text>
	<line x1="390.80" y1="164.22" x2="350.83" y2="164.22" style="stroke:#000000;stroke-width:5.76"/>
	<text x="300.72" y="164.22" style="font-family:'Helvetica';font-size:99.99px;fill:#000000" transform="rotate(-90 300.72,164.22)" text-anchor="middle">.1</text>
	<text x="190.71" y="1294.96" style="font-family:'Helvetica';font-size:99.99px;fill:#000000" transform="rotate(-90 190.71,1294.96)" text-anchor="middle">Density</text>
	<line x1="390.80" y1="2489.19" x2="3859.02" y2="2489.19" style="stroke:#000000;stroke-width:5.76"/>
	<line x1="454.16" y1="2489.19" x2="454.16" y2="2529.16" style="stroke:#000000;stroke-width:5.76"/>
	<text x="454.16" y="2619.14" style="font-family:'Helvetica';font-size:99.99px;fill:#000000" text-anchor="middle">10</text>
	<line x1="1532.03" y1="2489.19" x2="1532.03" y2="2529.16" style="stroke:#000000;stroke-width:5.76"/>
	<text x="1532.03" y="2619.14" style="font-family:'Helvetica';font-size:99.99px;fill:#000000" text-anchor="middle">20</text>
	<line x1="2610.01" y1="2489.19" x2="2610.01" y2="2529.16" style="stroke:#000000;stroke-width:5.76"/>
	<text x="2610.01" y="2619.14" style="font-family:'Helvetica';font-size:99.99px;fill:#000000" text-anchor="middle">30</text>
	<line x1="3687.87" y1="2489.19" x2="3687.87" y2="2529.16" style="stroke:#000000;stroke-width:5.76"/>
	<text x="3687.87" y="2619.14" style="font-family:'Helvetica';font-size:99.99px;fill:#000000" text-anchor="middle">40</text>
	<text x="2124.91" y="2729.16" style="font-family:'Helvetica';font-size:99.99px;fill:#000000" text-anchor="middle">Mileage (mpg)</text>
</svg>
