<?xml version="1.0" encoding="UTF-8" standalone="no"?>
<!-- This is a Stata 15.0 generated SVG file (http://www.stata.com) -->

<svg version="1.1" width="5.50in" height="4.00in" viewBox="0 0 3960 2880" xmlns="http://www.w3.org/2000/svg" xmlns:xlink="http://www.w3.org/1999/xlink">
	<desc>Stata Graph - Graph</desc>
	<rect x="0" y="0" width="3960" height="2880" style="fill:#EAF2F3;stroke:none"/>
	<rect x="0.00" y="0.00" width="3959.88" height="2880.00" style="fill:#EAF2F3"/>
	<rect x="2.88" y="2.88" width="3954.12" height="2874.24" style="fill:none;stroke:#EAF2F3;stroke-width:5.76"/>
	<rect x="390.80" y="100.86" width="3468.22" height="2518.39" style="fill:#FFFFFF"/>
	<rect x="393.68" y="103.74" width="3462.46" height="2512.63" style="fill:none;stroke:#FFFFFF;stroke-width:5.76"/>
	<line x1="390.80" y1="1790.10" x2="3859.02" y2="1790.10" style="stroke:#EAF2F3;stroke-width:8.64"/>
	<line x1="390.80" y1="1061.81" x2="3859.02" y2="1061.81" style="stroke:#EAF2F3;stroke-width:8.64"/>
	<line x1="390.80" y1="333.52" x2="3859.02" y2="333.52" style="stroke:#EAF2F3;stroke-width:8.64"/>
	<rect x="561.08" y="1799.75" width="347.49" height="107.67" style="fill:#8DA3B7"/>
	<rect x="565.40" y="1804.07" width="338.85" height="99.03" style="fill:none;stroke:#1A476F;stroke-width:8.64"/>
	<line x1="561.08" y1="1853.59" x2="908.57" y2="1853.59" style="stroke:#1A476F;stroke-width:8.64"/>
	<rect x="1256.19" y="1627.86" width="347.49" height="302.83" style="fill:#8DA3B7"/>
	<rect x="1260.51" y="1632.18" width="338.85" height="294.19" style="fill:none;stroke:#1A476F;stroke-width:8.64"/>
	<line x1="1256.19" y1="1842.82" x2="1603.68" y2="1842.82" style="stroke:#1A476F;stroke-width:8.64"/>
	<line x1="1429.93" y1="1930.68" x2="1429.93" y2="1984.27" style="stroke:#1A476F;stroke-width:8.64"/>
	<line x1="1429.93" y1="1627.86" x2="1429.93" y2="1594.69" style="stroke:#1A476F;stroke-width:8.64"/>
	<line x1="1313.48" y1="1984.27" x2="1546.26" y2="1984.27" style="stroke:#1A476F;stroke-width:8.64"/>
	<line x1="1313.48" y1="1594.69" x2="1546.26" y2="1594.69" style="stroke:#1A476F;stroke-width:8.64"/>
	<rect x="1951.17" y="1601.50" width="347.49" height="307.03" style="fill:#8DA3B7"/>
	<rect x="1955.49" y="1605.82" width="338.85" height="298.39" style="fill:none;stroke:#1A476F;stroke-width:8.64"/>
	<line x1="1951.17" y1="1827.84" x2="2298.66" y2="1827.84" style="stroke:#1A476F;stroke-width:8.64"/>
	<line x1="2124.91" y1="1908.53" x2="2124.91" y2="2039.09" style="stroke:#1A476F;stroke-width:8.64"/>
	<line x1="2008.46" y1="2039.09" x2="2241.36" y2="2039.09" style="stroke:#1A476F;stroke-width:8.64"/>
	<rect x="2646.27" y="1478.36" width="347.49" height="355.92" style="fill:#8DA3B7"/>
	<rect x="2650.59" y="1482.68" width="338.85" height="347.28" style="fill:none;stroke:#1A476F;stroke-width:8.64"/>
	<line x1="2646.27" y1="1680.70" x2="2993.76" y2="1680.70" style="stroke:#1A476F;stroke-width:8.64"/>
	<line x1="2820.01" y1="1834.28" x2="2820.01" y2="1960.63" style="stroke:#1A476F;stroke-width:8.64"/>
	<line x1="2820.01" y1="1478.36" x2="2820.01" y2="1100.42" style="stroke:#1A476F;stroke-width:8.64"/>
	<line x1="2703.57" y1="1960.63" x2="2936.34" y2="1960.63" style="stroke:#1A476F;stroke-width:8.64"/>
	<line x1="2703.57" y1="1100.42" x2="2936.34" y2="1100.42" style="stroke:#1A476F;stroke-width:8.64"/>
	<rect x="3341.25" y="1659.17" width="347.49" height="278.94" style="fill:#8DA3B7"/>
	<rect x="3345.57" y="1663.49" width="338.85" height="270.30" style="fill:none;stroke:#1A476F;stroke-width:8.64"/>
	<line x1="3341.25" y1="1732.31" x2="3688.74" y2="1732.31" style="stroke:#1A476F;stroke-width:8.64"/>
	<line x1="3514.99" y1="1938.11" x2="3514.99" y2="1972.51" style="stroke:#1A476F;stroke-width:8.64"/>
	<line x1="3398.55" y1="1972.51" x2="3631.44" y2="1972.51" style="stroke:#1A476F;stroke-width:8.64"/>
	<circle cx="1429.93" cy="406.41" r="26.35" style="fill:#1A476F"/>
	<circle cx="1429.93" cy="406.41" r="22.03" style="fill:none;stroke:#1A476F;stroke-width:8.64"/>
	<circle cx="2124.91" cy="1007.85" r="26.35" style="fill:#1A476F"/>
	<circle cx="2124.91" cy="1007.85" r="22.03" style="fill:none;stroke:#1A476F;stroke-width:8.64"/>
	<circle cx="2124.91" cy="1007.60" r="26.35" style="fill:#1A476F"/>
	<circle cx="2124.91" cy="1007.60" r="22.03" style="fill:none;stroke:#1A476F;stroke-width:8.64"/>
	<circle cx="2124.91" cy="860.09" r="26.35" style="fill:#1A476F"/>
	<circle cx="2124.91" cy="860.09" r="22.03" style="fill:none;stroke:#1A476F;stroke-width:8.64"/>
	<circle cx="2124.91" cy="843.75" r="26.35" style="fill:#1A476F"/>
	<circle cx="2124.91" cy="843.75" r="22.03" style="fill:none;stroke:#1A476F;stroke-width:8.64"/>
	<circle cx="2124.91" cy="557.02" r="26.35" style="fill:#1A476F"/>
	<circle cx="2124.91" cy="557.02" r="22.03" style="fill:none;stroke:#1A476F;stroke-width:8.64"/>
	<circle cx="2124.91" cy="538.33" r="26.35" style="fill:#1A476F"/>
	<circle cx="2124.91" cy="538.33" r="22.03" style="fill:none;stroke:#1A476F;stroke-width:8.64"/>
	<circle cx="2124.91" cy="201.60" r="26.35" style="fill:#1A476F"/>
	<circle cx="2124.91" cy="201.60" r="22.03" style="fill:none;stroke:#1A476F;stroke-width:8.64"/>
	<circle cx="3514.99" cy="1106.98" r="26.35" style="fill:#1A476F"/>
	<circle cx="3514.99" cy="1106.98" r="22.03" style="fill:none;stroke:#1A476F;stroke-width:8.64"/>
	<circle cx="3514.99" cy="771.23" r="26.35" style="fill:#1A476F"/>
	<circle cx="3514.99" cy="771.23" r="22.03" style="fill:none;stroke:#1A476F;stroke-width:8.64"/>
	<line x1="390.80" y1="2619.25" x2="390.80" y2="100.86" style="stroke:#000000;stroke-width:5.76"/>
	<line x1="390.80" y1="2518.39" x2="350.83" y2="2518.39" style="stroke:#000000;stroke-width:5.76"/>
	<text x="300.72" y="2518.39" style="font-family:'Helvetica';font-size:99.99px;fill:#000000" transform="rotate(-90 300.72,2518.39)" text-anchor="middle">0</text>
	<line x1="390.80" y1="1790.10" x2="350.83" y2="1790.10" style="stroke:#000000;stroke-width:5.76"/>
	<text x="300.72" y="1790.10" style="font-family:'Helvetica';font-size:99.99px;fill:#000000" transform="rotate(-90 300.72,1790.10)" text-anchor="middle">5,000</text>
	<line x1="390.80" y1="1061.81" x2="350.83" y2="1061.81" style="stroke:#000000;stroke-width:5.76"/>
	<text x="300.72" y="1061.81" style="font-family:'Helvetica';font-size:99.99px;fill:#000000" transform="rotate(-90 300.72,1061.81)" text-anchor="middle">10,000</text>
	<line x1="390.80" y1="333.52" x2="350.83" y2="333.52" style="stroke:#000000;stroke-width:5.76"/>
	<text x="300.72" y="333.52" style="font-family:'Helvetica';font-size:99.99px;fill:#000000" transform="rotate(-90 300.72,333.52)" text-anchor="middle">15,000</text>
	<text x="190.71" y="1360.06" style="font-family:'Helvetica';font-size:99.99px;fill:#000000" transform="rotate(-90 190.71,1360.06)" text-anchor="middle">Price</text>
	<line x1="390.80" y1="2619.25" x2="3859.02" y2="2619.25" style="stroke:#000000;stroke-width:5.76"/>
	<text x="734.83" y="2729.16" style="font-family:'Helvetica';font-size:99.99px;fill:#000000" text-anchor="middle">1</text>
	<text x="1429.93" y="2729.16" style="font-family:'Helvetica';font-size:99.99px;fill:#000000" text-anchor="middle">2</text>
	<text x="2124.91" y="2729.16" style="font-family:'Helvetica';font-size:99.99px;fill:#000000" text-anchor="middle">3</text>
	<text x="2820.01" y="2729.16" style="font-family:'Helvetica';font-size:99.99px;fill:#000000" text-anchor="middle">4</text>
	<text x="3514.99" y="2729.16" style="font-family:'Helvetica';font-size:99.99px;fill:#000000" text-anchor="middle">5</text>
</svg>
