<?xml version="1.0" encoding="UTF-8" standalone="no"?>
<!-- This is a Stata 16.0 generated SVG file (http://www.stata.com) -->

<svg version="1.1" width="5.50in" height="4.00in" viewBox="0 0 3960 2880" xmlns="http://www.w3.org/2000/svg" xmlns:xlink="http://www.w3.org/1999/xlink">
	<desc>Stata Graph - Graph</desc>
	<rect x="0" y="0" width="3960" height="2880" style="fill:#EAF2F3;stroke:none"/>
	<rect x="0.00" y="0.00" width="3959.88" height="2880.00" style="fill:#EAF2F3"/>
	<rect x="2.88" y="2.88" width="3954.12" height="2874.24" style="fill:none;stroke:#EAF2F3;stroke-width:5.76"/>
	<rect x="390.80" y="100.86" width="3468.22" height="2388.33" style="fill:#FFFFFF"/>
	<rect x="393.68" y="103.74" width="3462.46" height="2382.57" style="fill:none;stroke:#FFFFFF;stroke-width:5.76"/>
	<circle cx="454.04" cy="2180.79" r="26.35" style="fill:#1A476F"/>
	<circle cx="454.04" cy="2180.79" r="22.03" style="fill:none;stroke:#1A476F;stroke-width:8.64"/>
	<circle cx="661.20" cy="2180.79" r="26.35" style="fill:#1A476F"/>
	<circle cx="661.20" cy="2180.79" r="22.03" style="fill:none;stroke:#1A476F;stroke-width:8.64"/>
	<circle cx="793.49" cy="2041.69" r="26.35" style="fill:#1A476F"/>
	<circle cx="793.49" cy="2041.69" r="22.03" style="fill:none;stroke:#1A476F;stroke-width:8.64"/>
	<circle cx="893.60" cy="2041.69" r="26.35" style="fill:#1A476F"/>
	<circle cx="893.60" cy="2041.69" r="22.03" style="fill:none;stroke:#1A476F;stroke-width:8.64"/>
	<circle cx="975.40" cy="2041.69" r="26.35" style="fill:#1A476F"/>
	<circle cx="975.40" cy="2041.69" r="22.03" style="fill:none;stroke:#1A476F;stroke-width:8.64"/>
	<circle cx="1045.32" cy="2041.69" r="26.35" style="fill:#1A476F"/>
	<circle cx="1045.32" cy="2041.69" r="22.03" style="fill:none;stroke:#1A476F;stroke-width:8.64"/>
	<circle cx="1107.07" cy="2041.69" r="26.35" style="fill:#1A476F"/>
	<circle cx="1107.07" cy="2041.69" r="22.03" style="fill:none;stroke:#1A476F;stroke-width:8.64"/>
	<circle cx="1162.38" cy="2041.69" r="26.35" style="fill:#1A476F"/>
	<circle cx="1162.38" cy="2041.69" r="22.03" style="fill:none;stroke:#1A476F;stroke-width:8.64"/>
	<circle cx="1213.12" cy="1972.14" r="26.35" style="fill:#1A476F"/>
	<circle cx="1213.12" cy="1972.14" r="22.03" style="fill:none;stroke:#1A476F;stroke-width:8.64"/>
	<circle cx="1259.90" cy="1972.14" r="26.35" style="fill:#1A476F"/>
	<circle cx="1259.90" cy="1972.14" r="22.03" style="fill:none;stroke:#1A476F;stroke-width:8.64"/>
	<circle cx="1303.58" cy="1902.59" r="26.35" style="fill:#1A476F"/>
	<circle cx="1303.58" cy="1902.59" r="22.03" style="fill:none;stroke:#1A476F;stroke-width:8.64"/>
	<circle cx="1344.67" cy="1902.59" r="26.35" style="fill:#1A476F"/>
	<circle cx="1344.67" cy="1902.59" r="22.03" style="fill:none;stroke:#1A476F;stroke-width:8.64"/>
	<circle cx="1383.53" cy="1902.59" r="26.35" style="fill:#1A476F"/>
	<circle cx="1383.53" cy="1902.59" r="22.03" style="fill:none;stroke:#1A476F;stroke-width:8.64"/>
	<circle cx="1420.65" cy="1902.59" r="26.35" style="fill:#1A476F"/>
	<circle cx="1420.65" cy="1902.59" r="22.03" style="fill:none;stroke:#1A476F;stroke-width:8.64"/>
	<circle cx="1456.04" cy="1833.04" r="26.35" style="fill:#1A476F"/>
	<circle cx="1456.04" cy="1833.04" r="22.03" style="fill:none;stroke:#1A476F;stroke-width:8.64"/>
	<circle cx="1490.07" cy="1833.04" r="26.35" style="fill:#1A476F"/>
	<circle cx="1490.07" cy="1833.04" r="22.03" style="fill:none;stroke:#1A476F;stroke-width:8.64"/>
	<circle cx="1522.87" cy="1833.04" r="26.35" style="fill:#1A476F"/>
	<circle cx="1522.87" cy="1833.04" r="22.03" style="fill:none;stroke:#1A476F;stroke-width:8.64"/>
	<circle cx="1554.67" cy="1833.04" r="26.35" style="fill:#1A476F"/>
	<circle cx="1554.67" cy="1833.04" r="22.03" style="fill:none;stroke:#1A476F;stroke-width:8.64"/>
	<circle cx="1585.48" cy="1763.49" r="26.35" style="fill:#1A476F"/>
	<circle cx="1585.48" cy="1763.49" r="22.03" style="fill:none;stroke:#1A476F;stroke-width:8.64"/>
	<circle cx="1615.43" cy="1763.49" r="26.35" style="fill:#1A476F"/>
	<circle cx="1615.43" cy="1763.49" r="22.03" style="fill:none;stroke:#1A476F;stroke-width:8.64"/>
	<circle cx="1644.64" cy="1763.49" r="26.35" style="fill:#1A476F"/>
	<circle cx="1644.64" cy="1763.49" r="22.03" style="fill:none;stroke:#1A476F;stroke-width:8.64"/>
	<circle cx="1673.22" cy="1763.49" r="26.35" style="fill:#1A476F"/>
	<circle cx="1673.22" cy="1763.49" r="22.03" style="fill:none;stroke:#1A476F;stroke-width:8.64"/>
	<circle cx="1701.19" cy="1763.49" r="26.35" style="fill:#1A476F"/>
	<circle cx="1701.19" cy="1763.49" r="22.03" style="fill:none;stroke:#1A476F;stroke-width:8.64"/>
	<circle cx="1728.54" cy="1763.49" r="26.35" style="fill:#1A476F"/>
	<circle cx="1728.54" cy="1763.49" r="22.03" style="fill:none;stroke:#1A476F;stroke-width:8.64"/>
	<circle cx="1755.52" cy="1763.49" r="26.35" style="fill:#1A476F"/>
	<circle cx="1755.52" cy="1763.49" r="22.03" style="fill:none;stroke:#1A476F;stroke-width:8.64"/>
	<circle cx="1782.00" cy="1763.49" r="26.35" style="fill:#1A476F"/>
	<circle cx="1782.00" cy="1763.49" r="22.03" style="fill:none;stroke:#1A476F;stroke-width:8.64"/>
	<circle cx="1808.23" cy="1763.49" r="26.35" style="fill:#1A476F"/>
	<circle cx="1808.23" cy="1763.49" r="22.03" style="fill:none;stroke:#1A476F;stroke-width:8.64"/>
	<circle cx="1833.97" cy="1694.07" r="26.35" style="fill:#1A476F"/>
	<circle cx="1833.97" cy="1694.07" r="22.03" style="fill:none;stroke:#1A476F;stroke-width:8.64"/>
	<circle cx="1859.47" cy="1694.07" r="26.35" style="fill:#1A476F"/>
	<circle cx="1859.47" cy="1694.07" r="22.03" style="fill:none;stroke:#1A476F;stroke-width:8.64"/>
	<circle cx="1884.84" cy="1694.07" r="26.35" style="fill:#1A476F"/>
	<circle cx="1884.84" cy="1694.07" r="22.03" style="fill:none;stroke:#1A476F;stroke-width:8.64"/>
	<circle cx="1909.83" cy="1694.07" r="26.35" style="fill:#1A476F"/>
	<circle cx="1909.83" cy="1694.07" r="22.03" style="fill:none;stroke:#1A476F;stroke-width:8.64"/>
	<circle cx="1934.71" cy="1694.07" r="26.35" style="fill:#1A476F"/>
	<circle cx="1934.71" cy="1694.07" r="22.03" style="fill:none;stroke:#1A476F;stroke-width:8.64"/>
	<circle cx="1959.46" cy="1694.07" r="26.35" style="fill:#1A476F"/>
	<circle cx="1959.46" cy="1694.07" r="22.03" style="fill:none;stroke:#1A476F;stroke-width:8.64"/>
	<circle cx="1983.96" cy="1694.07" r="26.35" style="fill:#1A476F"/>
	<circle cx="1983.96" cy="1694.07" r="22.03" style="fill:none;stroke:#1A476F;stroke-width:8.64"/>
	<circle cx="2008.46" cy="1694.07" r="26.35" style="fill:#1A476F"/>
	<circle cx="2008.46" cy="1694.07" r="22.03" style="fill:none;stroke:#1A476F;stroke-width:8.64"/>
	<circle cx="2032.84" cy="1624.52" r="26.35" style="fill:#1A476F"/>
	<circle cx="2032.84" cy="1624.52" r="22.03" style="fill:none;stroke:#1A476F;stroke-width:8.64"/>
	<circle cx="2057.22" cy="1624.52" r="26.35" style="fill:#1A476F"/>
	<circle cx="2057.22" cy="1624.52" r="22.03" style="fill:none;stroke:#1A476F;stroke-width:8.64"/>
	<circle cx="2081.60" cy="1624.52" r="26.35" style="fill:#1A476F"/>
	<circle cx="2081.60" cy="1624.52" r="22.03" style="fill:none;stroke:#1A476F;stroke-width:8.64"/>
	<circle cx="2105.98" cy="1554.97" r="26.35" style="fill:#1A476F"/>
	<circle cx="2105.98" cy="1554.97" r="22.03" style="fill:none;stroke:#1A476F;stroke-width:8.64"/>
	<circle cx="2130.36" cy="1554.97" r="26.35" style="fill:#1A476F"/>
	<circle cx="2130.36" cy="1554.97" r="22.03" style="fill:none;stroke:#1A476F;stroke-width:8.64"/>
	<circle cx="2154.86" cy="1554.97" r="26.35" style="fill:#1A476F"/>
	<circle cx="2154.86" cy="1554.97" r="22.03" style="fill:none;stroke:#1A476F;stroke-width:8.64"/>
	<circle cx="2179.49" cy="1554.97" r="26.35" style="fill:#1A476F"/>
	<circle cx="2179.49" cy="1554.97" r="22.03" style="fill:none;stroke:#1A476F;stroke-width:8.64"/>
	<circle cx="2204.24" cy="1554.97" r="26.35" style="fill:#1A476F"/>
	<circle cx="2204.24" cy="1554.97" r="22.03" style="fill:none;stroke:#1A476F;stroke-width:8.64"/>
	<circle cx="2228.99" cy="1485.42" r="26.35" style="fill:#1A476F"/>
	<circle cx="2228.99" cy="1485.42" r="22.03" style="fill:none;stroke:#1A476F;stroke-width:8.64"/>
	<circle cx="2254.11" cy="1485.42" r="26.35" style="fill:#1A476F"/>
	<circle cx="2254.11" cy="1485.42" r="22.03" style="fill:none;stroke:#1A476F;stroke-width:8.64"/>
	<circle cx="2279.35" cy="1485.42" r="26.35" style="fill:#1A476F"/>
	<circle cx="2279.35" cy="1485.42" r="22.03" style="fill:none;stroke:#1A476F;stroke-width:8.64"/>
	<circle cx="2304.84" cy="1485.42" r="26.35" style="fill:#1A476F"/>
	<circle cx="2304.84" cy="1485.42" r="22.03" style="fill:none;stroke:#1A476F;stroke-width:8.64"/>
	<circle cx="2330.71" cy="1485.42" r="26.35" style="fill:#1A476F"/>
	<circle cx="2330.71" cy="1485.42" r="22.03" style="fill:none;stroke:#1A476F;stroke-width:8.64"/>
	<circle cx="2356.82" cy="1415.87" r="26.35" style="fill:#1A476F"/>
	<circle cx="2356.82" cy="1415.87" r="22.03" style="fill:none;stroke:#1A476F;stroke-width:8.64"/>
	<circle cx="2383.43" cy="1415.87" r="26.35" style="fill:#1A476F"/>
	<circle cx="2383.43" cy="1415.87" r="22.03" style="fill:none;stroke:#1A476F;stroke-width:8.64"/>
	<circle cx="2410.28" cy="1415.87" r="26.35" style="fill:#1A476F"/>
	<circle cx="2410.28" cy="1415.87" r="22.03" style="fill:none;stroke:#1A476F;stroke-width:8.64"/>
	<circle cx="2437.75" cy="1346.32" r="26.35" style="fill:#1A476F"/>
	<circle cx="2437.75" cy="1346.32" r="22.03" style="fill:none;stroke:#1A476F;stroke-width:8.64"/>
	<circle cx="2465.72" cy="1346.32" r="26.35" style="fill:#1A476F"/>
	<circle cx="2465.72" cy="1346.32" r="22.03" style="fill:none;stroke:#1A476F;stroke-width:8.64"/>
	<circle cx="2494.18" cy="1346.32" r="26.35" style="fill:#1A476F"/>
	<circle cx="2494.18" cy="1346.32" r="22.03" style="fill:none;stroke:#1A476F;stroke-width:8.64"/>
	<circle cx="2523.51" cy="1346.32" r="26.35" style="fill:#1A476F"/>
	<circle cx="2523.51" cy="1346.32" r="22.03" style="fill:none;stroke:#1A476F;stroke-width:8.64"/>
	<circle cx="2553.46" cy="1276.77" r="26.35" style="fill:#1A476F"/>
	<circle cx="2553.46" cy="1276.77" r="22.03" style="fill:none;stroke:#1A476F;stroke-width:8.64"/>
	<circle cx="2584.27" cy="1276.77" r="26.35" style="fill:#1A476F"/>
	<circle cx="2584.27" cy="1276.77" r="22.03" style="fill:none;stroke:#1A476F;stroke-width:8.64"/>
	<circle cx="2615.95" cy="1276.77" r="26.35" style="fill:#1A476F"/>
	<circle cx="2615.95" cy="1276.77" r="22.03" style="fill:none;stroke:#1A476F;stroke-width:8.64"/>
	<circle cx="2648.74" cy="1276.77" r="26.35" style="fill:#1A476F"/>
	<circle cx="2648.74" cy="1276.77" r="22.03" style="fill:none;stroke:#1A476F;stroke-width:8.64"/>
	<circle cx="2682.90" cy="1276.77" r="26.35" style="fill:#1A476F"/>
	<circle cx="2682.90" cy="1276.77" r="22.03" style="fill:none;stroke:#1A476F;stroke-width:8.64"/>
	<circle cx="2718.29" cy="1207.22" r="26.35" style="fill:#1A476F"/>
	<circle cx="2718.29" cy="1207.22" r="22.03" style="fill:none;stroke:#1A476F;stroke-width:8.64"/>
	<circle cx="2755.29" cy="1207.22" r="26.35" style="fill:#1A476F"/>
	<circle cx="2755.29" cy="1207.22" r="22.03" style="fill:none;stroke:#1A476F;stroke-width:8.64"/>
	<circle cx="2794.28" cy="1207.22" r="26.35" style="fill:#1A476F"/>
	<circle cx="2794.28" cy="1207.22" r="22.03" style="fill:none;stroke:#1A476F;stroke-width:8.64"/>
	<circle cx="2835.36" cy="1068.24" r="26.35" style="fill:#1A476F"/>
	<circle cx="2835.36" cy="1068.24" r="22.03" style="fill:none;stroke:#1A476F;stroke-width:8.64"/>
	<circle cx="2879.04" cy="1068.24" r="26.35" style="fill:#1A476F"/>
	<circle cx="2879.04" cy="1068.24" r="22.03" style="fill:none;stroke:#1A476F;stroke-width:8.64"/>
	<circle cx="2925.82" cy="1068.24" r="26.35" style="fill:#1A476F"/>
	<circle cx="2925.82" cy="1068.24" r="22.03" style="fill:none;stroke:#1A476F;stroke-width:8.64"/>
	<circle cx="2976.43" cy="998.69" r="26.35" style="fill:#1A476F"/>
	<circle cx="2976.43" cy="998.69" r="22.03" style="fill:none;stroke:#1A476F;stroke-width:8.64"/>
	<circle cx="3031.88" cy="929.14" r="26.35" style="fill:#1A476F"/>
	<circle cx="3031.88" cy="929.14" r="22.03" style="fill:none;stroke:#1A476F;stroke-width:8.64"/>
	<circle cx="3093.50" cy="929.14" r="26.35" style="fill:#1A476F"/>
	<circle cx="3093.50" cy="929.14" r="22.03" style="fill:none;stroke:#1A476F;stroke-width:8.64"/>
	<circle cx="3163.55" cy="859.59" r="26.35" style="fill:#1A476F"/>
	<circle cx="3163.55" cy="859.59" r="22.03" style="fill:none;stroke:#1A476F;stroke-width:8.64"/>
	<circle cx="3245.34" cy="650.95" r="26.35" style="fill:#1A476F"/>
	<circle cx="3245.34" cy="650.95" r="22.03" style="fill:none;stroke:#1A476F;stroke-width:8.64"/>
	<circle cx="3345.46" cy="581.40" r="26.35" style="fill:#1A476F"/>
	<circle cx="3345.46" cy="581.40" r="22.03" style="fill:none;stroke:#1A476F;stroke-width:8.64"/>
	<circle cx="3477.75" cy="581.40" r="26.35" style="fill:#1A476F"/>
	<circle cx="3477.75" cy="581.40" r="22.03" style="fill:none;stroke:#1A476F;stroke-width:8.64"/>
	<circle cx="3684.78" cy="164.22" r="26.35" style="fill:#1A476F"/>
	<circle cx="3684.78" cy="164.22" r="22.03" style="fill:none;stroke:#1A476F;stroke-width:8.64"/>
	<path d=" M454.04 2425.95 L3684.78 642.65" stroke-linejoin="round" style="fill:none;stroke:#2D6D66;stroke-width:8.64"/>
	<line x1="390.80" y1="2489.19" x2="390.80" y2="100.86" style="stroke:#000000;stroke-width:5.76"/>
	<line x1="390.80" y1="2319.77" x2="350.83" y2="2319.77" style="stroke:#000000;stroke-width:5.76"/>
	<text x="300.72" y="2319.77" style="font-family:'Helvetica';font-size:99.99px;fill:#000000" transform="rotate(-90 300.72,2319.77)" text-anchor="middle">10</text>
	<line x1="390.80" y1="1624.39" x2="350.83" y2="1624.39" style="stroke:#000000;stroke-width:5.76"/>
	<text x="300.72" y="1624.39" style="font-family:'Helvetica';font-size:99.99px;fill:#000000" transform="rotate(-90 300.72,1624.39)" text-anchor="middle">20</text>
	<line x1="390.80" y1="929.02" x2="350.83" y2="929.02" style="stroke:#000000;stroke-width:5.76"/>
	<text x="300.72" y="929.02" style="font-family:'Helvetica';font-size:99.99px;fill:#000000" transform="rotate(-90 300.72,929.02)" text-anchor="middle">30</text>
	<line x1="390.80" y1="233.65" x2="350.83" y2="233.65" style="stroke:#000000;stroke-width:5.76"/>
	<text x="300.72" y="233.65" style="font-family:'Helvetica';font-size:99.99px;fill:#000000" transform="rotate(-90 300.72,233.65)" text-anchor="middle">40</text>
	<text x="190.71" y="1294.96" style="font-family:'Helvetica';font-size:99.99px;fill:#000000" transform="rotate(-90 190.71,1294.96)" text-anchor="middle">Mileage (mpg)</text>
	<line x1="390.80" y1="2489.19" x2="3859.02" y2="2489.19" style="stroke:#000000;stroke-width:5.76"/>
	<line x1="646.35" y1="2489.19" x2="646.35" y2="2529.16" style="stroke:#000000;stroke-width:5.76"/>
	<text x="646.35" y="2619.14" style="font-family:'Helvetica';font-size:99.99px;fill:#000000" text-anchor="middle">10</text>
	<line x1="1276.23" y1="2489.19" x2="1276.23" y2="2529.16" style="stroke:#000000;stroke-width:5.76"/>
	<text x="1276.23" y="2619.14" style="font-family:'Helvetica';font-size:99.99px;fill:#000000" text-anchor="middle">15</text>
	<line x1="1906.12" y1="2489.19" x2="1906.12" y2="2529.16" style="stroke:#000000;stroke-width:5.76"/>
	<text x="1906.12" y="2619.14" style="font-family:'Helvetica';font-size:99.99px;fill:#000000" text-anchor="middle">20</text>
	<line x1="2536.01" y1="2489.19" x2="2536.01" y2="2529.16" style="stroke:#000000;stroke-width:5.76"/>
	<text x="2536.01" y="2619.14" style="font-family:'Helvetica';font-size:99.99px;fill:#000000" text-anchor="middle">25</text>
	<line x1="3165.90" y1="2489.19" x2="3165.90" y2="2529.16" style="stroke:#000000;stroke-width:5.76"/>
	<text x="3165.90" y="2619.14" style="font-family:'Helvetica';font-size:99.99px;fill:#000000" text-anchor="middle">30</text>
	<line x1="3795.66" y1="2489.19" x2="3795.66" y2="2529.16" style="stroke:#000000;stroke-width:5.76"/>
	<text x="3795.66" y="2619.14" style="font-family:'Helvetica';font-size:99.99px;fill:#000000" text-anchor="middle">35</text>
	<text x="2124.91" y="2729.16" style="font-family:'Helvetica';font-size:99.99px;fill:#000000" text-anchor="middle">Inverse Normal</text>
</svg>
