<?xml version="1.0" encoding="UTF-8" standalone="no"?>
<!-- This is a Stata 16.0 generated SVG file (http://www.stata.com) -->

<svg version="1.1" width="5.50in" height="4.00in" viewBox="0 0 3960 2880" xmlns="http://www.w3.org/2000/svg" xmlns:xlink="http://www.w3.org/1999/xlink">
	<desc>Stata Graph - Graph</desc>
	<rect x="0" y="0" width="3960" height="2880" style="fill:#EAF2F3;stroke:none"/>
	<rect x="0.00" y="0.00" width="3959.88" height="2880.00" style="fill:#EAF2F3"/>
	<rect x="2.88" y="2.88" width="3954.12" height="2874.24" style="fill:none;stroke:#EAF2F3;stroke-width:5.76"/>
	<rect x="390.80" y="100.86" width="3468.22" height="2388.33" style="fill:#FFFFFF"/>
	<rect x="393.68" y="103.74" width="3462.46" height="2382.57" style="fill:none;stroke:#FFFFFF;stroke-width:5.76"/>
	<line x1="390.80" y1="2236.48" x2="3859.02" y2="2236.48" style="stroke:#EAF2F3;stroke-width:8.64"/>
	<line x1="390.80" y1="1718.45" x2="3859.02" y2="1718.45" style="stroke:#EAF2F3;stroke-width:8.64"/>
	<line x1="390.80" y1="1200.29" x2="3859.02" y2="1200.29" style="stroke:#EAF2F3;stroke-width:8.64"/>
	<line x1="390.80" y1="682.26" x2="3859.02" y2="682.26" style="stroke:#EAF2F3;stroke-width:8.64"/>
	<line x1="390.80" y1="164.22" x2="3859.02" y2="164.22" style="stroke:#EAF2F3;stroke-width:8.64"/>
	<circle cx="3241.76" cy="2355.41" r="26.35" style="fill:#1A476F"/>
	<circle cx="3241.76" cy="2355.41" r="22.03" style="fill:none;stroke:#1A476F;stroke-width:8.64"/>
	<circle cx="1169.68" cy="1803.09" r="26.35" style="fill:#1A476F"/>
	<circle cx="1169.68" cy="1803.09" r="22.03" style="fill:none;stroke:#1A476F;stroke-width:8.64"/>
	<circle cx="2337.02" cy="1888.11" r="26.35" style="fill:#1A476F"/>
	<circle cx="2337.02" cy="1888.11" r="22.03" style="fill:none;stroke:#1A476F;stroke-width:8.64"/>
	<circle cx="1870.36" cy="1854.20" r="26.35" style="fill:#1A476F"/>
	<circle cx="1870.36" cy="1854.20" r="22.03" style="fill:none;stroke:#1A476F;stroke-width:8.64"/>
	<circle cx="818.11" cy="1828.71" r="26.35" style="fill:#1A476F"/>
	<circle cx="818.11" cy="1828.71" r="22.03" style="fill:none;stroke:#1A476F;stroke-width:8.64"/>
	<circle cx="1402.58" cy="1819.80" r="26.35" style="fill:#1A476F"/>
	<circle cx="1402.58" cy="1819.80" r="22.03" style="fill:none;stroke:#1A476F;stroke-width:8.64"/>
	<circle cx="1819.12" cy="1206.11" r="26.35" style="fill:#1A476F"/>
	<circle cx="1819.12" cy="1206.11" r="22.03" style="fill:none;stroke:#1A476F;stroke-width:8.64"/>
	<circle cx="1809.10" cy="1822.65" r="26.35" style="fill:#1A476F"/>
	<circle cx="1809.10" cy="1822.65" r="22.03" style="fill:none;stroke:#1A476F;stroke-width:8.64"/>
	<circle cx="957.83" cy="1797.28" r="26.35" style="fill:#1A476F"/>
	<circle cx="957.83" cy="1797.28" r="22.03" style="fill:none;stroke:#1A476F;stroke-width:8.64"/>
	<circle cx="2280.84" cy="2169.90" r="26.35" style="fill:#1A476F"/>
	<circle cx="2280.84" cy="2169.90" r="22.03" style="fill:none;stroke:#1A476F;stroke-width:8.64"/>
	<circle cx="625.43" cy="1832.79" r="26.35" style="fill:#1A476F"/>
	<circle cx="625.43" cy="1832.79" r="22.03" style="fill:none;stroke:#1A476F;stroke-width:8.64"/>
	<circle cx="620.24" cy="1830.20" r="26.35" style="fill:#1A476F"/>
	<circle cx="620.24" cy="1830.20" r="22.03" style="fill:none;stroke:#1A476F;stroke-width:8.64"/>
	<circle cx="589.05" cy="1088.79" r="26.35" style="fill:#1A476F"/>
	<circle cx="589.05" cy="1088.79" r="22.03" style="fill:none;stroke:#1A476F;stroke-width:8.64"/>
	<circle cx="2119.59" cy="1050.42" r="26.35" style="fill:#1A476F"/>
	<circle cx="2119.59" cy="1050.42" r="22.03" style="fill:none;stroke:#1A476F;stroke-width:8.64"/>
	<circle cx="1147.29" cy="1895.17" r="26.35" style="fill:#1A476F"/>
	<circle cx="1147.29" cy="1895.17" r="22.03" style="fill:none;stroke:#1A476F;stroke-width:8.64"/>
	<circle cx="1554.55" cy="1483.81" r="26.35" style="fill:#1A476F"/>
	<circle cx="1554.55" cy="1483.81" r="22.03" style="fill:none;stroke:#1A476F;stroke-width:8.64"/>
	<circle cx="1483.52" cy="1447.18" r="26.35" style="fill:#1A476F"/>
	<circle cx="1483.52" cy="1447.18" r="22.03" style="fill:none;stroke:#1A476F;stroke-width:8.64"/>
	<circle cx="1653.55" cy="1327.76" r="26.35" style="fill:#1A476F"/>
	<circle cx="1653.55" cy="1327.76" r="22.03" style="fill:none;stroke:#1A476F;stroke-width:8.64"/>
	<circle cx="1286.01" cy="1655.95" r="26.35" style="fill:#1A476F"/>
	<circle cx="1286.01" cy="1655.95" r="22.03" style="fill:none;stroke:#1A476F;stroke-width:8.64"/>
	<circle cx="3199.68" cy="1504.72" r="26.35" style="fill:#1A476F"/>
	<circle cx="3199.68" cy="1504.72" r="22.03" style="fill:none;stroke:#1A476F;stroke-width:8.64"/>
	<circle cx="1106.20" cy="1666.72" r="26.35" style="fill:#1A476F"/>
	<circle cx="1106.20" cy="1666.72" r="22.03" style="fill:none;stroke:#1A476F;stroke-width:8.64"/>
	<circle cx="996.31" cy="1817.20" r="26.35" style="fill:#1A476F"/>
	<circle cx="996.31" cy="1817.20" r="22.03" style="fill:none;stroke:#1A476F;stroke-width:8.64"/>
	<circle cx="1633.87" cy="2042.93" r="26.35" style="fill:#1A476F"/>
	<circle cx="1633.87" cy="2042.93" r="22.03" style="fill:none;stroke:#1A476F;stroke-width:8.64"/>
	<circle cx="2350.14" cy="1273.18" r="26.35" style="fill:#1A476F"/>
	<circle cx="2350.14" cy="1273.18" r="22.03" style="fill:none;stroke:#1A476F;stroke-width:8.64"/>
	<circle cx="2259.92" cy="1951.85" r="26.35" style="fill:#1A476F"/>
	<circle cx="2259.92" cy="1951.85" r="22.03" style="fill:none;stroke:#1A476F;stroke-width:8.64"/>
	<circle cx="667.38" cy="2061.74" r="26.35" style="fill:#1A476F"/>
	<circle cx="667.38" cy="2061.74" r="22.03" style="fill:none;stroke:#1A476F;stroke-width:8.64"/>
	<circle cx="544.50" cy="1998.25" r="26.35" style="fill:#1A476F"/>
	<circle cx="544.50" cy="1998.25" r="22.03" style="fill:none;stroke:#1A476F;stroke-width:8.64"/>
	<circle cx="552.05" cy="1794.93" r="26.35" style="fill:#1A476F"/>
	<circle cx="552.05" cy="1794.93" r="22.03" style="fill:none;stroke:#1A476F;stroke-width:8.64"/>
	<circle cx="1634.37" cy="1525.14" r="26.35" style="fill:#1A476F"/>
	<circle cx="1634.37" cy="1525.14" r="22.03" style="fill:none;stroke:#1A476F;stroke-width:8.64"/>
	<circle cx="1483.64" cy="2276.20" r="26.35" style="fill:#1A476F"/>
	<circle cx="1483.64" cy="2276.20" r="22.03" style="fill:none;stroke:#1A476F;stroke-width:8.64"/>
	<circle cx="674.56" cy="1754.58" r="26.35" style="fill:#1A476F"/>
	<circle cx="674.56" cy="1754.58" r="22.03" style="fill:none;stroke:#1A476F;stroke-width:8.64"/>
	<circle cx="1003.24" cy="1613.50" r="26.35" style="fill:#1A476F"/>
	<circle cx="1003.24" cy="1613.50" r="22.03" style="fill:none;stroke:#1A476F;stroke-width:8.64"/>
	<circle cx="1370.16" cy="2217.55" r="26.35" style="fill:#1A476F"/>
	<circle cx="1370.16" cy="2217.55" r="22.03" style="fill:none;stroke:#1A476F;stroke-width:8.64"/>
	<circle cx="2438.00" cy="2147.50" r="26.35" style="fill:#1A476F"/>
	<circle cx="2438.00" cy="2147.50" r="22.03" style="fill:none;stroke:#1A476F;stroke-width:8.64"/>
	<circle cx="773.93" cy="1184.20" r="26.35" style="fill:#1A476F"/>
	<circle cx="773.93" cy="1184.20" r="22.03" style="fill:none;stroke:#1A476F;stroke-width:8.64"/>
	<circle cx="1811.95" cy="1927.71" r="26.35" style="fill:#1A476F"/>
	<circle cx="1811.95" cy="1927.71" r="22.03" style="fill:none;stroke:#1A476F;stroke-width:8.64"/>
	<circle cx="1883.97" cy="1964.96" r="26.35" style="fill:#1A476F"/>
	<circle cx="1883.97" cy="1964.96" r="22.03" style="fill:none;stroke:#1A476F;stroke-width:8.64"/>
	<circle cx="1508.88" cy="1874.75" r="26.35" style="fill:#1A476F"/>
	<circle cx="1508.88" cy="1874.75" r="22.03" style="fill:none;stroke:#1A476F;stroke-width:8.64"/>
	<circle cx="2261.16" cy="2159.75" r="26.35" style="fill:#1A476F"/>
	<circle cx="2261.16" cy="2159.75" r="22.03" style="fill:none;stroke:#1A476F;stroke-width:8.64"/>
	<circle cx="1591.05" cy="1295.46" r="26.35" style="fill:#1A476F"/>
	<circle cx="1591.05" cy="1295.46" r="22.03" style="fill:none;stroke:#1A476F;stroke-width:8.64"/>
	<circle cx="704.14" cy="1666.22" r="26.35" style="fill:#1A476F"/>
	<circle cx="704.14" cy="1666.22" r="22.03" style="fill:none;stroke:#1A476F;stroke-width:8.64"/>
	<circle cx="2114.52" cy="1151.41" r="26.35" style="fill:#1A476F"/>
	<circle cx="2114.52" cy="1151.41" r="22.03" style="fill:none;stroke:#1A476F;stroke-width:8.64"/>
	<circle cx="2008.71" cy="475.09" r="26.35" style="fill:#1A476F"/>
	<circle cx="2008.71" cy="475.09" r="22.03" style="fill:none;stroke:#1A476F;stroke-width:8.64"/>
	<circle cx="2735.12" cy="1782.92" r="26.35" style="fill:#1A476F"/>
	<circle cx="2735.12" cy="1782.92" r="22.03" style="fill:none;stroke:#1A476F;stroke-width:8.64"/>
	<circle cx="2438.12" cy="1525.89" r="26.35" style="fill:#1A476F"/>
	<circle cx="2438.12" cy="1525.89" r="22.03" style="fill:none;stroke:#1A476F;stroke-width:8.64"/>
	<circle cx="2575.86" cy="2425.95" r="26.35" style="fill:#1A476F"/>
	<circle cx="2575.86" cy="2425.95" r="22.03" style="fill:none;stroke:#1A476F;stroke-width:8.64"/>
	<circle cx="1401.35" cy="1819.18" r="26.35" style="fill:#1A476F"/>
	<circle cx="1401.35" cy="1819.18" r="22.03" style="fill:none;stroke:#1A476F;stroke-width:8.64"/>
	<circle cx="2111.55" cy="2186.11" r="26.35" style="fill:#1A476F"/>
	<circle cx="2111.55" cy="2186.11" r="22.03" style="fill:none;stroke:#1A476F;stroke-width:8.64"/>
	<circle cx="1803.66" cy="1923.38" r="26.35" style="fill:#1A476F"/>
	<circle cx="1803.66" cy="1923.38" r="22.03" style="fill:none;stroke:#1A476F;stroke-width:8.64"/>
	<circle cx="1885.70" cy="1965.71" r="26.35" style="fill:#1A476F"/>
	<circle cx="1885.70" cy="1965.71" r="22.03" style="fill:none;stroke:#1A476F;stroke-width:8.64"/>
	<circle cx="2212.90" cy="2134.75" r="26.35" style="fill:#1A476F"/>
	<circle cx="2212.90" cy="2134.75" r="22.03" style="fill:none;stroke:#1A476F;stroke-width:8.64"/>
	<circle cx="1593.78" cy="1296.94" r="26.35" style="fill:#1A476F"/>
	<circle cx="1593.78" cy="1296.94" r="22.03" style="fill:none;stroke:#1A476F;stroke-width:8.64"/>
	<circle cx="1243.81" cy="1841.46" r="26.35" style="fill:#1A476F"/>
	<circle cx="1243.81" cy="1841.46" r="22.03" style="fill:none;stroke:#1A476F;stroke-width:8.64"/>
	<circle cx="2724.11" cy="1984.39" r="26.35" style="fill:#1A476F"/>
	<circle cx="2724.11" cy="1984.39" r="22.03" style="fill:none;stroke:#1A476F;stroke-width:8.64"/>
	<circle cx="1512.72" cy="1151.41" r="26.35" style="fill:#1A476F"/>
	<circle cx="1512.72" cy="1151.41" r="22.03" style="fill:none;stroke:#1A476F;stroke-width:8.64"/>
	<circle cx="3020.12" cy="2137.35" r="26.35" style="fill:#1A476F"/>
	<circle cx="3020.12" cy="2137.35" r="22.03" style="fill:none;stroke:#1A476F;stroke-width:8.64"/>
	<circle cx="3306.11" cy="1041.64" r="26.35" style="fill:#1A476F"/>
	<circle cx="3306.11" cy="1041.64" r="22.03" style="fill:none;stroke:#1A476F;stroke-width:8.64"/>
	<circle cx="2866.42" cy="1954.32" r="26.35" style="fill:#1A476F"/>
	<circle cx="2866.42" cy="1954.32" r="22.03" style="fill:none;stroke:#1A476F;stroke-width:8.64"/>
	<circle cx="1948.07" cy="1790.72" r="26.35" style="fill:#1A476F"/>
	<circle cx="1948.07" cy="1790.72" r="22.03" style="fill:none;stroke:#1A476F;stroke-width:8.64"/>
	<circle cx="2784.50" cy="2222.87" r="26.35" style="fill:#1A476F"/>
	<circle cx="2784.50" cy="2222.87" r="22.03" style="fill:none;stroke:#1A476F;stroke-width:8.64"/>
	<circle cx="1893.50" cy="1348.05" r="26.35" style="fill:#1A476F"/>
	<circle cx="1893.50" cy="1348.05" r="22.03" style="fill:none;stroke:#1A476F;stroke-width:8.64"/>
	<circle cx="2602.09" cy="1403.25" r="26.35" style="fill:#1A476F"/>
	<circle cx="2602.09" cy="1403.25" r="22.03" style="fill:none;stroke:#1A476F;stroke-width:8.64"/>
	<circle cx="3567.34" cy="1694.69" r="26.35" style="fill:#1A476F"/>
	<circle cx="3567.34" cy="1694.69" r="22.03" style="fill:none;stroke:#1A476F;stroke-width:8.64"/>
	<circle cx="454.04" cy="1744.31" r="26.35" style="fill:#1A476F"/>
	<circle cx="454.04" cy="1744.31" r="22.03" style="fill:none;stroke:#1A476F;stroke-width:8.64"/>
	<circle cx="3582.32" cy="2116.93" r="26.35" style="fill:#1A476F"/>
	<circle cx="3582.32" cy="2116.93" r="22.03" style="fill:none;stroke:#1A476F;stroke-width:8.64"/>
	<circle cx="3795.66" cy="1294.59" r="26.35" style="fill:#1A476F"/>
	<circle cx="3795.66" cy="1294.59" r="22.03" style="fill:none;stroke:#1A476F;stroke-width:8.64"/>
	<circle cx="1889.54" cy="2071.39" r="26.35" style="fill:#1A476F"/>
	<circle cx="1889.54" cy="2071.39" r="22.03" style="fill:none;stroke:#1A476F;stroke-width:8.64"/>
	<circle cx="2608.40" cy="1095.72" r="26.35" style="fill:#1A476F"/>
	<circle cx="2608.40" cy="1095.72" r="22.03" style="fill:none;stroke:#1A476F;stroke-width:8.64"/>
	<circle cx="1908.84" cy="2081.29" r="26.35" style="fill:#1A476F"/>
	<circle cx="1908.84" cy="2081.29" r="22.03" style="fill:none;stroke:#1A476F;stroke-width:8.64"/>
	<circle cx="2485.15" cy="1861.01" r="26.35" style="fill:#1A476F"/>
	<circle cx="2485.15" cy="1861.01" r="22.03" style="fill:none;stroke:#1A476F;stroke-width:8.64"/>
	<circle cx="3160.95" cy="344.90" r="26.35" style="fill:#1A476F"/>
	<circle cx="3160.95" cy="344.90" r="22.03" style="fill:none;stroke:#1A476F;stroke-width:8.64"/>
	<circle cx="3412.53" cy="2132.77" r="26.35" style="fill:#1A476F"/>
	<circle cx="3412.53" cy="2132.77" r="22.03" style="fill:none;stroke:#1A476F;stroke-width:8.64"/>
	<circle cx="2638.60" cy="1733.05" r="26.35" style="fill:#1A476F"/>
	<circle cx="2638.60" cy="1733.05" r="22.03" style="fill:none;stroke:#1A476F;stroke-width:8.64"/>
	<circle cx="696.96" cy="1558.93" r="26.35" style="fill:#1A476F"/>
	<circle cx="696.96" cy="1558.93" r="22.03" style="fill:none;stroke:#1A476F;stroke-width:8.64"/>
	<line x1="390.80" y1="2489.19" x2="390.80" y2="100.86" style="stroke:#000000;stroke-width:5.76"/>
	<line x1="390.80" y1="2236.48" x2="350.83" y2="2236.48" style="stroke:#000000;stroke-width:5.76"/>
	<text x="300.72" y="2236.48" style="font-family:'Helvetica';font-size:99.99px;fill:#000000" transform="rotate(-90 300.72,2236.48)" text-anchor="middle">-5</text>
	<line x1="390.80" y1="1718.45" x2="350.83" y2="1718.45" style="stroke:#000000;stroke-width:5.76"/>
	<text x="300.72" y="1718.45" style="font-family:'Helvetica';font-size:99.99px;fill:#000000" transform="rotate(-90 300.72,1718.45)" text-anchor="middle">0</text>
	<line x1="390.80" y1="1200.29" x2="350.83" y2="1200.29" style="stroke:#000000;stroke-width:5.76"/>
	<text x="300.72" y="1200.29" style="font-family:'Helvetica';font-size:99.99px;fill:#000000" transform="rotate(-90 300.72,1200.29)" text-anchor="middle">5</text>
	<line x1="390.80" y1="682.26" x2="350.83" y2="682.26" style="stroke:#000000;stroke-width:5.76"/>
	<text x="300.72" y="682.26" style="font-family:'Helvetica';font-size:99.99px;fill:#000000" transform="rotate(-90 300.72,682.26)" text-anchor="middle">10</text>
	<line x1="390.80" y1="164.22" x2="350.83" y2="164.22" style="stroke:#000000;stroke-width:5.76"/>
	<text x="300.72" y="164.22" style="font-family:'Helvetica';font-size:99.99px;fill:#000000" transform="rotate(-90 300.72,164.22)" text-anchor="middle">15</text>
	<text x="190.71" y="1294.96" style="font-family:'Helvetica';font-size:99.99px;fill:#000000" transform="rotate(-90 190.71,1294.96)" text-anchor="middle">Residuals</text>
	<line x1="390.80" y1="2489.19" x2="3859.02" y2="2489.19" style="stroke:#000000;stroke-width:5.76"/>
	<line x1="604.77" y1="2489.19" x2="604.77" y2="2529.16" style="stroke:#000000;stroke-width:5.76"/>
	<text x="604.77" y="2619.14" style="font-family:'Helvetica';font-size:99.99px;fill:#000000" text-anchor="middle">15</text>
	<line x1="1607.64" y1="2489.19" x2="1607.64" y2="2529.16" style="stroke:#000000;stroke-width:5.76"/>
	<text x="1607.64" y="2619.14" style="font-family:'Helvetica';font-size:99.99px;fill:#000000" text-anchor="middle">20</text>
	<line x1="2610.63" y1="2489.19" x2="2610.63" y2="2529.16" style="stroke:#000000;stroke-width:5.76"/>
	<text x="2610.63" y="2619.14" style="font-family:'Helvetica';font-size:99.99px;fill:#000000" text-anchor="middle">25</text>
	<line x1="3613.50" y1="2489.19" x2="3613.50" y2="2529.16" style="stroke:#000000;stroke-width:5.76"/>
	<text x="3613.50" y="2619.14" style="font-family:'Helvetica';font-size:99.99px;fill:#000000" text-anchor="middle">30</text>
	<text x="2124.91" y="2729.16" style="font-family:'Helvetica';font-size:99.99px;fill:#000000" text-anchor="middle">Linear prediction</text>
</svg>
