<?xml version="1.0" encoding="UTF-8" standalone="no"?>
<!-- This is a Stata 15.1 generated SVG file (http://www.stata.com) -->

<svg version="1.1" width="5.50in" height="4.00in" viewBox="0 0 3960 2880" xmlns="http://www.w3.org/2000/svg" xmlns:xlink="http://www.w3.org/1999/xlink">
	<desc>Stata Graph - Graph</desc>
	<rect x="0" y="0" width="3960" height="2880" style="fill:#EAF2F3;stroke:none"/>
	<rect x="0.00" y="0.00" width="3959.88" height="2880.00" style="fill:#EAF2F3"/>
	<rect x="2.88" y="2.88" width="3954.12" height="2874.24" style="fill:none;stroke:#EAF2F3;stroke-width:5.76"/>
	<rect x="390.80" y="261.37" width="3468.22" height="1972.27" style="fill:#FFFFFF"/>
	<rect x="393.68" y="264.25" width="3462.46" height="1966.51" style="fill:none;stroke:#FFFFFF;stroke-width:5.76"/>
	<line x1="390.80" y1="2151.46" x2="3859.02" y2="2151.46" style="stroke:#EAF2F3;stroke-width:8.64"/>
	<line x1="390.80" y1="1694.81" x2="3859.02" y2="1694.81" style="stroke:#EAF2F3;stroke-width:8.64"/>
	<line x1="390.80" y1="1238.03" x2="3859.02" y2="1238.03" style="stroke:#EAF2F3;stroke-width:8.64"/>
	<line x1="390.80" y1="781.38" x2="3859.02" y2="781.38" style="stroke:#EAF2F3;stroke-width:8.64"/>
	<line x1="390.80" y1="324.73" x2="3859.02" y2="324.73" style="stroke:#EAF2F3;stroke-width:8.64"/>
	<line x1="454.16" y1="555.41" x2="454.16" y2="336.12" style="stroke:#1A476F;stroke-width:8.64"/>
	<line x1="432.13" y1="336.12" x2="476.19" y2="336.12" stroke-linecap="round" style="stroke:#1A476F;stroke-width:8.64"/>
	<line x1="432.13" y1="555.41" x2="476.19" y2="555.41" stroke-linecap="round" style="stroke:#1A476F;stroke-width:8.64"/>
	<line x1="2124.91" y1="595.87" x2="2124.91" y2="467.54" style="stroke:#1A476F;stroke-width:8.64"/>
	<line x1="2102.88" y1="467.54" x2="2146.94" y2="467.54" stroke-linecap="round" style="stroke:#1A476F;stroke-width:8.64"/>
	<line x1="2102.88" y1="595.87" x2="2146.94" y2="595.87" stroke-linecap="round" style="stroke:#1A476F;stroke-width:8.64"/>
	<line x1="3795.66" y1="705.52" x2="3795.66" y2="529.91" style="stroke:#1A476F;stroke-width:8.64"/>
	<line x1="3773.63" y1="529.91" x2="3817.69" y2="529.91" stroke-linecap="round" style="stroke:#1A476F;stroke-width:8.64"/>
	<line x1="3773.63" y1="705.52" x2="3817.69" y2="705.52" stroke-linecap="round" style="stroke:#1A476F;stroke-width:8.64"/>
	<line x1="454.16" y1="2170.27" x2="454.16" y2="1978.95" style="stroke:#90353B;stroke-width:8.64"/>
	<line x1="432.13" y1="1978.95" x2="476.19" y2="1978.95" stroke-linecap="round" style="stroke:#90353B;stroke-width:8.64"/>
	<line x1="432.13" y1="2170.27" x2="476.19" y2="2170.27" stroke-linecap="round" style="stroke:#90353B;stroke-width:8.64"/>
	<line x1="2124.91" y1="1834.03" x2="2124.91" y2="1715.10" style="stroke:#90353B;stroke-width:8.64"/>
	<line x1="2102.88" y1="1715.10" x2="2146.94" y2="1715.10" stroke-linecap="round" style="stroke:#90353B;stroke-width:8.64"/>
	<line x1="2102.88" y1="1834.03" x2="2146.94" y2="1834.03" stroke-linecap="round" style="stroke:#90353B;stroke-width:8.64"/>
	<line x1="3795.66" y1="1568.83" x2="3795.66" y2="1380.35" style="stroke:#90353B;stroke-width:8.64"/>
	<line x1="3773.63" y1="1380.35" x2="3817.69" y2="1380.35" stroke-linecap="round" style="stroke:#90353B;stroke-width:8.64"/>
	<line x1="3773.63" y1="1568.83" x2="3817.69" y2="1568.83" stroke-linecap="round" style="stroke:#90353B;stroke-width:8.64"/>
	<line x1="454.04" y1="445.89" x2="2124.91" y2="531.77" stroke-linecap="round" style="stroke:#1A476F;stroke-width:8.64"/>
	<line x1="2124.91" y1="531.77" x2="3795.66" y2="617.78" stroke-linecap="round" style="stroke:#1A476F;stroke-width:8.64"/>
	<circle cx="454.04" cy="445.89" r="26.35" style="fill:#1A476F"/>
	<circle cx="454.04" cy="445.89" r="22.03" style="fill:none;stroke:#1A476F;stroke-width:8.64"/>
	<circle cx="2124.91" cy="531.77" r="26.35" style="fill:#1A476F"/>
	<circle cx="2124.91" cy="531.77" r="22.03" style="fill:none;stroke:#1A476F;stroke-width:8.64"/>
	<circle cx="3795.66" cy="617.78" r="26.35" style="fill:#1A476F"/>
	<circle cx="3795.66" cy="617.78" r="22.03" style="fill:none;stroke:#1A476F;stroke-width:8.64"/>
	<line x1="454.04" y1="2074.73" x2="2124.91" y2="1774.63" stroke-linecap="round" style="stroke:#90353B;stroke-width:8.64"/>
	<line x1="2124.91" y1="1774.63" x2="3795.66" y2="1474.65" stroke-linecap="round" style="stroke:#90353B;stroke-width:8.64"/>
	<circle cx="454.04" cy="2074.73" r="26.35" style="fill:#90353B"/>
	<circle cx="454.04" cy="2074.73" r="22.03" style="fill:none;stroke:#90353B;stroke-width:8.64"/>
	<circle cx="2124.91" cy="1774.63" r="26.35" style="fill:#90353B"/>
	<circle cx="2124.91" cy="1774.63" r="22.03" style="fill:none;stroke:#90353B;stroke-width:8.64"/>
	<circle cx="3795.66" cy="1474.65" r="26.35" style="fill:#90353B"/>
	<circle cx="3795.66" cy="1474.65" r="22.03" style="fill:none;stroke:#90353B;stroke-width:8.64"/>
	<line x1="390.80" y1="2233.63" x2="390.80" y2="261.37" style="stroke:#000000;stroke-width:5.76"/>
	<line x1="390.80" y1="2151.46" x2="350.83" y2="2151.46" style="stroke:#000000;stroke-width:5.76"/>
	<text x="300.72" y="2151.46" style="font-family:'Helvetica';font-size:99.99px;fill:#000000" transform="rotate(-90 300.72,2151.46)" text-anchor="middle">10</text>
	<line x1="390.80" y1="1694.81" x2="350.83" y2="1694.81" style="stroke:#000000;stroke-width:5.76"/>
	<text x="300.72" y="1694.81" style="font-family:'Helvetica';font-size:99.99px;fill:#000000" transform="rotate(-90 300.72,1694.81)" text-anchor="middle">12</text>
	<line x1="390.80" y1="1238.03" x2="350.83" y2="1238.03" style="stroke:#000000;stroke-width:5.76"/>
	<text x="300.72" y="1238.03" style="font-family:'Helvetica';font-size:99.99px;fill:#000000" transform="rotate(-90 300.72,1238.03)" text-anchor="middle">14</text>
	<line x1="390.80" y1="781.38" x2="350.83" y2="781.38" style="stroke:#000000;stroke-width:5.76"/>
	<text x="300.72" y="781.38" style="font-family:'Helvetica';font-size:99.99px;fill:#000000" transform="rotate(-90 300.72,781.38)" text-anchor="middle">16</text>
	<line x1="390.80" y1="324.73" x2="350.83" y2="324.73" style="stroke:#000000;stroke-width:5.76"/>
	<text x="300.72" y="324.73" style="font-family:'Helvetica';font-size:99.99px;fill:#000000" transform="rotate(-90 300.72,324.73)" text-anchor="middle">18</text>
	<text x="190.71" y="1247.56" style="font-family:'Helvetica';font-size:99.99px;fill:#000000" transform="rotate(-90 190.71,1247.56)" text-anchor="middle">Linear Prediction</text>
	<line x1="390.80" y1="2233.63" x2="3859.02" y2="2233.63" style="stroke:#000000;stroke-width:5.76"/>
	<line x1="454.16" y1="2233.63" x2="454.16" y2="2273.73" style="stroke:#000000;stroke-width:5.76"/>
	<text x="454.16" y="2363.59" style="font-family:'Helvetica';font-size:99.99px;fill:#000000" text-anchor="middle">20</text>
	<line x1="2124.91" y1="2233.63" x2="2124.91" y2="2273.73" style="stroke:#000000;stroke-width:5.76"/>
	<text x="2124.91" y="2363.59" style="font-family:'Helvetica';font-size:99.99px;fill:#000000" text-anchor="middle">45</text>
	<line x1="3795.66" y1="2233.63" x2="3795.66" y2="2273.73" style="stroke:#000000;stroke-width:5.76"/>
	<text x="3795.66" y="2363.59" style="font-family:'Helvetica';font-size:99.99px;fill:#000000" text-anchor="middle">70</text>
	<text x="2124.91" y="2473.60" style="font-family:'Helvetica';font-size:99.99px;fill:#000000" text-anchor="middle">age in years</text>
	<rect x="1297.02" y="2558.24" width="1655.77" height="186.37" style="fill:#FFFFFF"/>
	<rect x="1299.90" y="2561.12" width="1650.02" height="180.61" style="fill:none;stroke:#000000;stroke-width:5.76"/>
	<line x1="1340.21" y1="2651.43" x2="1714.56" y2="2651.43" style="stroke:#1A476F;stroke-width:8.64"/>
	<circle cx="1527.45" cy="2651.43" r="26.35" style="fill:#1A476F"/>
	<circle cx="1527.45" cy="2651.43" r="22.03" style="fill:none;stroke:#1A476F;stroke-width:8.64"/>
	<line x1="2135.06" y1="2651.43" x2="2509.53" y2="2651.43" style="stroke:#90353B;stroke-width:8.64"/>
	<circle cx="2322.29" cy="2651.43" r="26.35" style="fill:#90353B"/>
	<circle cx="2322.29" cy="2651.43" r="22.03" style="fill:none;stroke:#90353B;stroke-width:8.64"/>
	<text x="1774.58" y="2686.46" style="font-family:'Helvetica';font-size:99.99px;fill:#000000">Male</text>
	<text x="2569.42" y="2686.46" style="font-family:'Helvetica';font-size:99.99px;fill:#000000">Female</text>
	<text x="1979.88" y="206.19" style="font-family:'Helvetica';font-size:125.98px;fill:#1E2D53" text-anchor="middle">Predictive Margins of sex with 95% CIs</text>
</svg>
