<?xml version="1.0" encoding="UTF-8" standalone="no"?>
<!-- This is a Stata 15.0 generated SVG file (http://www.stata.com) -->

<svg version="1.1" width="5.50in" height="4.00in" viewBox="0 0 3960 2880" xmlns="http://www.w3.org/2000/svg" xmlns:xlink="http://www.w3.org/1999/xlink">
	<desc>Stata Graph - Graph</desc>
	<rect x="0" y="0" width="3960" height="2880" style="fill:#EAF2F3;stroke:none"/>
	<rect x="0.00" y="0.00" width="3959.88" height="2880.00" style="fill:#EAF2F3"/>
	<rect x="2.88" y="2.88" width="3954.12" height="2874.24" style="fill:none;stroke:#EAF2F3;stroke-width:5.76"/>
	<rect x="390.80" y="100.86" width="3468.22" height="2388.33" style="fill:#FFFFFF"/>
	<rect x="393.68" y="103.74" width="3462.46" height="2382.57" style="fill:none;stroke:#FFFFFF;stroke-width:5.76"/>
	<line x1="390.80" y1="2425.82" x2="3859.02" y2="2425.82" style="stroke:#EAF2F3;stroke-width:8.64"/>
	<line x1="390.80" y1="1876.97" x2="3859.02" y2="1876.97" style="stroke:#EAF2F3;stroke-width:8.64"/>
	<line x1="390.80" y1="1328.00" x2="3859.02" y2="1328.00" style="stroke:#EAF2F3;stroke-width:8.64"/>
	<line x1="390.80" y1="779.15" x2="3859.02" y2="779.15" style="stroke:#EAF2F3;stroke-width:8.64"/>
	<line x1="390.80" y1="230.18" x2="3859.02" y2="230.18" style="stroke:#EAF2F3;stroke-width:8.64"/>
	<circle cx="2639.71" cy="1609.79" r="26.35" style="fill:#1A476F"/>
	<circle cx="2639.71" cy="1609.79" r="22.03" style="fill:none;stroke:#1A476F;stroke-width:8.64"/>
	<circle cx="1230.08" cy="1376.39" r="26.35" style="fill:#1A476F"/>
	<circle cx="1230.08" cy="1376.39" r="22.03" style="fill:none;stroke:#1A476F;stroke-width:8.64"/>
	<circle cx="1435.13" cy="1160.81" r="26.35" style="fill:#1A476F"/>
	<circle cx="1435.13" cy="1160.81" r="22.03" style="fill:none;stroke:#1A476F;stroke-width:8.64"/>
	<circle cx="741.88" cy="1325.03" r="26.35" style="fill:#1A476F"/>
	<circle cx="741.88" cy="1325.03" r="22.03" style="fill:none;stroke:#1A476F;stroke-width:8.64"/>
	<circle cx="1209.78" cy="1255.36" r="26.35" style="fill:#1A476F"/>
	<circle cx="1209.78" cy="1255.36" r="22.03" style="fill:none;stroke:#1A476F;stroke-width:8.64"/>
	<circle cx="1987.92" cy="1467.60" r="26.35" style="fill:#1A476F"/>
	<circle cx="1987.92" cy="1467.60" r="22.03" style="fill:none;stroke:#1A476F;stroke-width:8.64"/>
	<circle cx="1656.27" cy="1722.65" r="26.35" style="fill:#1A476F"/>
	<circle cx="1656.27" cy="1722.65" r="22.03" style="fill:none;stroke:#1A476F;stroke-width:8.64"/>
	<circle cx="1882.73" cy="1519.08" r="26.35" style="fill:#1A476F"/>
	<circle cx="1882.73" cy="1519.08" r="22.03" style="fill:none;stroke:#1A476F;stroke-width:8.64"/>
	<circle cx="454.04" cy="1275.04" r="26.35" style="fill:#1A476F"/>
	<circle cx="454.04" cy="1275.04" r="22.03" style="fill:none;stroke:#1A476F;stroke-width:8.64"/>
	<circle cx="748.19" cy="1438.27" r="26.35" style="fill:#1A476F"/>
	<circle cx="748.19" cy="1438.27" r="22.03" style="fill:none;stroke:#1A476F;stroke-width:8.64"/>
	<circle cx="841.00" cy="721.24" r="26.35" style="fill:#1A476F"/>
	<circle cx="841.00" cy="721.24" r="22.03" style="fill:none;stroke:#1A476F;stroke-width:8.64"/>
	<circle cx="1877.29" cy="418.16" r="26.35" style="fill:#1A476F"/>
	<circle cx="1877.29" cy="418.16" r="22.03" style="fill:none;stroke:#1A476F;stroke-width:8.64"/>
	<circle cx="993.84" cy="1355.10" r="26.35" style="fill:#1A476F"/>
	<circle cx="993.84" cy="1355.10" r="22.03" style="fill:none;stroke:#1A476F;stroke-width:8.64"/>
	<circle cx="1354.07" cy="896.35" r="26.35" style="fill:#1A476F"/>
	<circle cx="1354.07" cy="896.35" r="22.03" style="fill:none;stroke:#1A476F;stroke-width:8.64"/>
	<circle cx="1996.83" cy="1253.01" r="26.35" style="fill:#1A476F"/>
	<circle cx="1996.83" cy="1253.01" r="22.03" style="fill:none;stroke:#1A476F;stroke-width:8.64"/>
	<circle cx="1996.83" cy="1033.47" r="26.35" style="fill:#1A476F"/>
	<circle cx="1996.83" cy="1033.47" r="22.03" style="fill:none;stroke:#1A476F;stroke-width:8.64"/>
	<circle cx="1097.29" cy="1083.09" r="26.35" style="fill:#1A476F"/>
	<circle cx="1097.29" cy="1083.09" r="22.03" style="fill:none;stroke:#1A476F;stroke-width:8.64"/>
	<circle cx="3486.53" cy="1201.53" r="26.35" style="fill:#1A476F"/>
	<circle cx="3486.53" cy="1201.53" r="22.03" style="fill:none;stroke:#1A476F;stroke-width:8.64"/>
	<circle cx="982.95" cy="1129.38" r="26.35" style="fill:#1A476F"/>
	<circle cx="982.95" cy="1129.38" r="22.03" style="fill:none;stroke:#1A476F;stroke-width:8.64"/>
	<circle cx="982.95" cy="1348.92" r="26.35" style="fill:#1A476F"/>
	<circle cx="982.95" cy="1348.92" r="22.03" style="fill:none;stroke:#1A476F;stroke-width:8.64"/>
	<circle cx="1663.32" cy="1616.84" r="26.35" style="fill:#1A476F"/>
	<circle cx="1663.32" cy="1616.84" r="22.03" style="fill:none;stroke:#1A476F;stroke-width:8.64"/>
	<circle cx="2351.74" cy="791.28" r="26.35" style="fill:#1A476F"/>
	<circle cx="2351.74" cy="791.28" r="22.03" style="fill:none;stroke:#1A476F;stroke-width:8.64"/>
	<circle cx="2138.52" cy="1441.49" r="26.35" style="fill:#1A476F"/>
	<circle cx="2138.52" cy="1441.49" r="22.03" style="fill:none;stroke:#1A476F;stroke-width:8.64"/>
	<circle cx="961.41" cy="1776.12" r="26.35" style="fill:#1A476F"/>
	<circle cx="961.41" cy="1776.12" r="22.03" style="fill:none;stroke:#1A476F;stroke-width:8.64"/>
	<circle cx="1337.74" cy="1985.14" r="26.35" style="fill:#1A476F"/>
	<circle cx="1337.74" cy="1985.14" r="22.03" style="fill:none;stroke:#1A476F;stroke-width:8.64"/>
	<circle cx="961.41" cy="1556.58" r="26.35" style="fill:#1A476F"/>
	<circle cx="961.41" cy="1556.58" r="22.03" style="fill:none;stroke:#1A476F;stroke-width:8.64"/>
	<circle cx="1567.91" cy="1015.03" r="26.35" style="fill:#1A476F"/>
	<circle cx="1567.91" cy="1015.03" r="22.03" style="fill:none;stroke:#1A476F;stroke-width:8.64"/>
	<circle cx="1453.82" cy="1829.95" r="26.35" style="fill:#1A476F"/>
	<circle cx="1453.82" cy="1829.95" r="22.03" style="fill:none;stroke:#1A476F;stroke-width:8.64"/>
	<circle cx="644.12" cy="1270.70" r="26.35" style="fill:#1A476F"/>
	<circle cx="644.12" cy="1270.70" r="22.03" style="fill:none;stroke:#1A476F;stroke-width:8.64"/>
	<circle cx="1095.93" cy="1192.12" r="26.35" style="fill:#1A476F"/>
	<circle cx="1095.93" cy="1192.12" r="22.03" style="fill:none;stroke:#1A476F;stroke-width:8.64"/>
	<circle cx="1594.77" cy="1908.16" r="26.35" style="fill:#1A476F"/>
	<circle cx="1594.77" cy="1908.16" r="22.03" style="fill:none;stroke:#1A476F;stroke-width:8.64"/>
	<circle cx="1882.73" cy="1409.31" r="26.35" style="fill:#1A476F"/>
	<circle cx="1882.73" cy="1409.31" r="22.03" style="fill:none;stroke:#1A476F;stroke-width:8.64"/>
	<circle cx="741.88" cy="666.29" r="26.35" style="fill:#1A476F"/>
	<circle cx="741.88" cy="666.29" r="22.03" style="fill:none;stroke:#1A476F;stroke-width:8.64"/>
	<circle cx="1987.92" cy="1577.37" r="26.35" style="fill:#1A476F"/>
	<circle cx="1987.92" cy="1577.37" r="22.03" style="fill:none;stroke:#1A476F;stroke-width:8.64"/>
	<circle cx="1435.13" cy="1270.58" r="26.35" style="fill:#1A476F"/>
	<circle cx="1435.13" cy="1270.58" r="22.03" style="fill:none;stroke:#1A476F;stroke-width:8.64"/>
	<circle cx="1279.33" cy="1293.97" r="26.35" style="fill:#1A476F"/>
	<circle cx="1279.33" cy="1293.97" r="22.03" style="fill:none;stroke:#1A476F;stroke-width:8.64"/>
	<circle cx="1712.33" cy="1424.41" r="26.35" style="fill:#1A476F"/>
	<circle cx="1712.33" cy="1424.41" r="22.03" style="fill:none;stroke:#1A476F;stroke-width:8.64"/>
	<circle cx="1715.92" cy="877.54" r="26.35" style="fill:#1A476F"/>
	<circle cx="1715.92" cy="877.54" r="22.03" style="fill:none;stroke:#1A476F;stroke-width:8.64"/>
	<circle cx="870.71" cy="1286.67" r="26.35" style="fill:#1A476F"/>
	<circle cx="870.71" cy="1286.67" r="22.03" style="fill:none;stroke:#1A476F;stroke-width:8.64"/>
	<circle cx="2108.45" cy="656.27" r="26.35" style="fill:#1A476F"/>
	<circle cx="2108.45" cy="656.27" r="22.03" style="fill:none;stroke:#1A476F;stroke-width:8.64"/>
	<circle cx="2810.36" cy="387.10" r="26.35" style="fill:#1A476F"/>
	<circle cx="2810.36" cy="387.10" r="22.03" style="fill:none;stroke:#1A476F;stroke-width:8.64"/>
	<circle cx="2284.55" cy="1083.34" r="26.35" style="fill:#1A476F"/>
	<circle cx="2284.55" cy="1083.34" r="22.03" style="fill:none;stroke:#1A476F;stroke-width:8.64"/>
	<circle cx="2139.39" cy="1771.29" r="26.35" style="fill:#1A476F"/>
	<circle cx="2139.39" cy="1771.29" r="22.03" style="fill:none;stroke:#1A476F;stroke-width:8.64"/>
	<circle cx="1279.33" cy="1293.97" r="26.35" style="fill:#1A476F"/>
	<circle cx="1279.33" cy="1293.97" r="22.03" style="fill:none;stroke:#1A476F;stroke-width:8.64"/>
	<circle cx="2152.63" cy="1778.59" r="26.35" style="fill:#1A476F"/>
	<circle cx="2152.63" cy="1778.59" r="22.03" style="fill:none;stroke:#1A476F;stroke-width:8.64"/>
	<circle cx="1987.92" cy="1577.37" r="26.35" style="fill:#1A476F"/>
	<circle cx="1987.92" cy="1577.37" r="22.03" style="fill:none;stroke:#1A476F;stroke-width:8.64"/>
	<circle cx="1656.27" cy="1393.34" r="26.35" style="fill:#1A476F"/>
	<circle cx="1656.27" cy="1393.34" r="22.03" style="fill:none;stroke:#1A476F;stroke-width:8.64"/>
	<circle cx="1996.83" cy="1033.47" r="26.35" style="fill:#1A476F"/>
	<circle cx="1996.83" cy="1033.47" r="22.03" style="fill:none;stroke:#1A476F;stroke-width:8.64"/>
	<circle cx="3015.17" cy="2367.16" r="26.35" style="fill:#1A476F"/>
	<circle cx="3015.17" cy="2367.16" r="22.03" style="fill:none;stroke:#1A476F;stroke-width:8.64"/>
	<circle cx="2780.54" cy="1578.23" r="26.35" style="fill:#1A476F"/>
	<circle cx="2780.54" cy="1578.23" r="22.03" style="fill:none;stroke:#1A476F;stroke-width:8.64"/>
	<circle cx="2779.67" cy="1358.20" r="26.35" style="fill:#1A476F"/>
	<circle cx="2779.67" cy="1358.20" r="22.03" style="fill:none;stroke:#1A476F;stroke-width:8.64"/>
	<circle cx="2970.00" cy="1683.30" r="26.35" style="fill:#1A476F"/>
	<circle cx="2970.00" cy="1683.30" r="22.03" style="fill:none;stroke:#1A476F;stroke-width:8.64"/>
	<circle cx="3647.28" cy="741.78" r="26.35" style="fill:#1A476F"/>
	<circle cx="3647.28" cy="741.78" r="22.03" style="fill:none;stroke:#1A476F;stroke-width:8.64"/>
	<circle cx="2662.36" cy="1402.87" r="26.35" style="fill:#1A476F"/>
	<circle cx="2662.36" cy="1402.87" r="22.03" style="fill:none;stroke:#1A476F;stroke-width:8.64"/>
	<circle cx="2674.11" cy="1738.74" r="26.35" style="fill:#1A476F"/>
	<circle cx="2674.11" cy="1738.74" r="22.03" style="fill:none;stroke:#1A476F;stroke-width:8.64"/>
	<circle cx="2393.45" cy="1582.94" r="26.35" style="fill:#1A476F"/>
	<circle cx="2393.45" cy="1582.94" r="22.03" style="fill:none;stroke:#1A476F;stroke-width:8.64"/>
	<circle cx="2813.95" cy="1377.13" r="26.35" style="fill:#1A476F"/>
	<circle cx="2813.95" cy="1377.13" r="22.03" style="fill:none;stroke:#1A476F;stroke-width:8.64"/>
	<circle cx="2380.83" cy="807.49" r="26.35" style="fill:#1A476F"/>
	<circle cx="2380.83" cy="807.49" r="22.03" style="fill:none;stroke:#1A476F;stroke-width:8.64"/>
	<circle cx="2934.24" cy="894.99" r="26.35" style="fill:#1A476F"/>
	<circle cx="2934.24" cy="894.99" r="22.03" style="fill:none;stroke:#1A476F;stroke-width:8.64"/>
	<circle cx="2826.70" cy="1274.54" r="26.35" style="fill:#1A476F"/>
	<circle cx="2826.70" cy="1274.54" r="22.03" style="fill:none;stroke:#1A476F;stroke-width:8.64"/>
	<circle cx="3795.66" cy="824.20" r="26.35" style="fill:#1A476F"/>
	<circle cx="3795.66" cy="824.20" r="22.03" style="fill:none;stroke:#1A476F;stroke-width:8.64"/>
	<circle cx="2915.92" cy="2202.20" r="26.35" style="fill:#1A476F"/>
	<circle cx="2915.92" cy="2202.20" r="22.03" style="fill:none;stroke:#1A476F;stroke-width:8.64"/>
	<circle cx="3028.53" cy="837.57" r="26.35" style="fill:#1A476F"/>
	<circle cx="3028.53" cy="837.57" r="22.03" style="fill:none;stroke:#1A476F;stroke-width:8.64"/>
	<circle cx="2994.50" cy="2245.89" r="26.35" style="fill:#1A476F"/>
	<circle cx="2994.50" cy="2245.89" r="22.03" style="fill:none;stroke:#1A476F;stroke-width:8.64"/>
	<circle cx="2896.99" cy="1642.83" r="26.35" style="fill:#1A476F"/>
	<circle cx="2896.99" cy="1642.83" r="22.03" style="fill:none;stroke:#1A476F;stroke-width:8.64"/>
	<circle cx="3793.43" cy="164.22" r="26.35" style="fill:#1A476F"/>
	<circle cx="3793.43" cy="164.22" r="22.03" style="fill:none;stroke:#1A476F;stroke-width:8.64"/>
	<circle cx="2976.81" cy="1467.60" r="26.35" style="fill:#1A476F"/>
	<circle cx="2976.81" cy="1467.60" r="22.03" style="fill:none;stroke:#1A476F;stroke-width:8.64"/>
	<circle cx="2910.97" cy="1430.97" r="26.35" style="fill:#1A476F"/>
	<circle cx="2910.97" cy="1430.97" r="22.03" style="fill:none;stroke:#1A476F;stroke-width:8.64"/>
	<circle cx="2822.12" cy="2259.99" r="26.35" style="fill:#1A476F"/>
	<circle cx="2822.12" cy="2259.99" r="22.03" style="fill:none;stroke:#1A476F;stroke-width:8.64"/>
	<line x1="390.80" y1="2489.19" x2="390.80" y2="100.86" style="stroke:#000000;stroke-width:5.76"/>
	<line x1="390.80" y1="2425.82" x2="350.83" y2="2425.82" style="stroke:#000000;stroke-width:5.76"/>
	<text x="300.72" y="2425.82" style="font-family:'Helvetica';font-size:99.99px;fill:#000000" transform="rotate(-90 300.72,2425.82)" text-anchor="middle">-10</text>
	<line x1="390.80" y1="1876.97" x2="350.83" y2="1876.97" style="stroke:#000000;stroke-width:5.76"/>
	<text x="300.72" y="1876.97" style="font-family:'Helvetica';font-size:99.99px;fill:#000000" transform="rotate(-90 300.72,1876.97)" text-anchor="middle">-5</text>
	<line x1="390.80" y1="1328.00" x2="350.83" y2="1328.00" style="stroke:#000000;stroke-width:5.76"/>
	<text x="300.72" y="1328.00" style="font-family:'Helvetica';font-size:99.99px;fill:#000000" transform="rotate(-90 300.72,1328.00)" text-anchor="middle">0</text>
	<line x1="390.80" y1="779.15" x2="350.83" y2="779.15" style="stroke:#000000;stroke-width:5.76"/>
	<text x="300.72" y="779.15" style="font-family:'Helvetica';font-size:99.99px;fill:#000000" transform="rotate(-90 300.72,779.15)" text-anchor="middle">5</text>
	<line x1="390.80" y1="230.18" x2="350.83" y2="230.18" style="stroke:#000000;stroke-width:5.76"/>
	<text x="300.72" y="230.18" style="font-family:'Helvetica';font-size:99.99px;fill:#000000" transform="rotate(-90 300.72,230.18)" text-anchor="middle">10</text>
	<text x="190.71" y="1294.96" style="font-family:'Helvetica';font-size:99.99px;fill:#000000" transform="rotate(-90 190.71,1294.96)" text-anchor="middle">Residuals</text>
	<line x1="390.80" y1="2489.19" x2="3859.02" y2="2489.19" style="stroke:#000000;stroke-width:5.76"/>
	<line x1="747.45" y1="2489.19" x2="747.45" y2="2529.16" style="stroke:#000000;stroke-width:5.76"/>
	<text x="747.45" y="2619.14" style="font-family:'Helvetica';font-size:99.99px;fill:#000000" text-anchor="middle">15</text>
	<line x1="1736.58" y1="2489.19" x2="1736.58" y2="2529.16" style="stroke:#000000;stroke-width:5.76"/>
	<text x="1736.58" y="2619.14" style="font-family:'Helvetica';font-size:99.99px;fill:#000000" text-anchor="middle">20</text>
	<line x1="2725.59" y1="2489.19" x2="2725.59" y2="2529.16" style="stroke:#000000;stroke-width:5.76"/>
	<text x="2725.59" y="2619.14" style="font-family:'Helvetica';font-size:99.99px;fill:#000000" text-anchor="middle">25</text>
	<line x1="3714.60" y1="2489.19" x2="3714.60" y2="2529.16" style="stroke:#000000;stroke-width:5.76"/>
	<text x="3714.60" y="2619.14" style="font-family:'Helvetica';font-size:99.99px;fill:#000000" text-anchor="middle">30</text>
	<text x="2124.91" y="2729.16" style="font-family:'Helvetica';font-size:99.99px;fill:#000000" text-anchor="middle">Linear prediction</text>
</svg>
