<?xml version="1.0" encoding="UTF-8" standalone="no"?>
<!-- This is a Stata 15.1 generated SVG file (http://www.stata.com) -->

<svg version="1.1" width="5.50in" height="4.00in" viewBox="0 0 3960 2880" xmlns="http://www.w3.org/2000/svg" xmlns:xlink="http://www.w3.org/1999/xlink">
	<desc>Stata Graph - Graph</desc>
	<rect x="0" y="0" width="3960" height="2880" style="fill:#EAF2F3;stroke:none"/>
	<rect x="0.00" y="0.00" width="3959.88" height="2880.00" style="fill:#EAF2F3"/>
	<rect x="2.88" y="2.88" width="3954.12" height="2874.24" style="fill:none;stroke:#EAF2F3;stroke-width:5.76"/>
	<rect x="390.80" y="100.86" width="3468.22" height="2388.33" style="fill:#FFFFFF"/>
	<rect x="393.68" y="103.74" width="3462.46" height="2382.57" style="fill:none;stroke:#FFFFFF;stroke-width:5.76"/>
	<line x1="390.80" y1="2489.19" x2="3859.02" y2="2489.19" style="stroke:#EAF2F3;stroke-width:8.64"/>
	<line x1="390.80" y1="2024.24" x2="3859.02" y2="2024.24" style="stroke:#EAF2F3;stroke-width:8.64"/>
	<line x1="390.80" y1="1559.17" x2="3859.02" y2="1559.17" style="stroke:#EAF2F3;stroke-width:8.64"/>
	<line x1="390.80" y1="1094.23" x2="3859.02" y2="1094.23" style="stroke:#EAF2F3;stroke-width:8.64"/>
	<line x1="390.80" y1="629.16" x2="3859.02" y2="629.16" style="stroke:#EAF2F3;stroke-width:8.64"/>
	<line x1="390.80" y1="164.22" x2="3859.02" y2="164.22" style="stroke:#EAF2F3;stroke-width:8.64"/>
	<rect x="669.74" y="1622.41" width="390.68" height="866.77" style="fill:#CAC27E"/>
	<rect x="674.05" y="1626.73" width="382.04" height="858.13" style="fill:none;stroke:#D7D29E;stroke-width:8.64"/>
	<rect x="1060.41" y="322.38" width="390.80" height="2166.81" style="fill:#CAC27E"/>
	<rect x="1064.73" y="326.70" width="382.16" height="2158.17" style="fill:none;stroke:#D7D29E;stroke-width:8.64"/>
	<rect x="1451.22" y="1362.41" width="390.80" height="1126.78" style="fill:#CAC27E"/>
	<rect x="1455.54" y="1366.73" width="382.16" height="1118.14" style="fill:none;stroke:#D7D29E;stroke-width:8.64"/>
	<rect x="1842.02" y="1189.03" width="390.68" height="1300.16" style="fill:#CAC27E"/>
	<rect x="1846.34" y="1193.35" width="382.04" height="1291.52" style="fill:none;stroke:#D7D29E;stroke-width:8.64"/>
	<rect x="2232.70" y="1969.17" width="390.80" height="520.01" style="fill:#CAC27E"/>
	<rect x="2237.02" y="1973.49" width="382.16" height="511.37" style="fill:none;stroke:#D7D29E;stroke-width:8.64"/>
	<rect x="2623.50" y="2402.56" width="390.68" height="86.63" style="fill:#CAC27E"/>
	<rect x="2627.82" y="2406.88" width="382.04" height="77.99" style="fill:none;stroke:#D7D29E;stroke-width:8.64"/>
	<rect x="3014.18" y="2229.18" width="390.80" height="260.01" style="fill:#CAC27E"/>
	<rect x="3018.50" y="2233.50" width="382.16" height="251.37" style="fill:none;stroke:#D7D29E;stroke-width:8.64"/>
	<rect x="3404.98" y="2402.56" width="390.68" height="86.63" style="fill:#CAC27E"/>
	<rect x="3409.30" y="2406.88" width="382.04" height="77.99" style="fill:none;stroke:#D7D29E;stroke-width:8.64"/>
	<line x1="669.61" y1="2048.50" x2="680.13" y2="2036.49" stroke-linecap="round" style="stroke:#2D6D66;stroke-width:8.64"/>
	<line x1="680.13" y1="2036.49" x2="690.52" y2="2024.37" stroke-linecap="round" style="stroke:#2D6D66;stroke-width:8.64"/>
	<line x1="690.52" y1="2024.37" x2="701.04" y2="2011.99" stroke-linecap="round" style="stroke:#2D6D66;stroke-width:8.64"/>
	<line x1="701.04" y1="2011.99" x2="711.44" y2="1999.49" stroke-linecap="round" style="stroke:#2D6D66;stroke-width:8.64"/>
	<line x1="711.44" y1="1999.49" x2="721.96" y2="1986.74" stroke-linecap="round" style="stroke:#2D6D66;stroke-width:8.64"/>
	<line x1="721.96" y1="1986.74" x2="732.35" y2="1973.75" stroke-linecap="round" style="stroke:#2D6D66;stroke-width:8.64"/>
	<line x1="732.35" y1="1973.75" x2="742.87" y2="1960.63" stroke-linecap="round" style="stroke:#2D6D66;stroke-width:8.64"/>
	<line x1="742.87" y1="1960.63" x2="753.27" y2="1947.39" stroke-linecap="round" style="stroke:#2D6D66;stroke-width:8.64"/>
	<line x1="753.27" y1="1947.39" x2="763.78" y2="1933.90" stroke-linecap="round" style="stroke:#2D6D66;stroke-width:8.64"/>
	<line x1="763.78" y1="1933.90" x2="774.18" y2="1920.29" stroke-linecap="round" style="stroke:#2D6D66;stroke-width:8.64"/>
	<line x1="774.18" y1="1920.29" x2="784.70" y2="1906.43" stroke-linecap="round" style="stroke:#2D6D66;stroke-width:8.64"/>
	<line x1="784.70" y1="1906.43" x2="795.09" y2="1892.44" stroke-linecap="round" style="stroke:#2D6D66;stroke-width:8.64"/>
	<line x1="795.09" y1="1892.44" x2="805.61" y2="1878.34" stroke-linecap="round" style="stroke:#2D6D66;stroke-width:8.64"/>
	<line x1="805.61" y1="1878.34" x2="816.01" y2="1863.98" stroke-linecap="round" style="stroke:#2D6D66;stroke-width:8.64"/>
	<line x1="816.01" y1="1863.98" x2="826.53" y2="1849.50" stroke-linecap="round" style="stroke:#2D6D66;stroke-width:8.64"/>
	<line x1="826.53" y1="1849.50" x2="836.92" y2="1834.90" stroke-linecap="round" style="stroke:#2D6D66;stroke-width:8.64"/>
	<line x1="836.92" y1="1834.90" x2="847.44" y2="1820.17" stroke-linecap="round" style="stroke:#2D6D66;stroke-width:8.64"/>
	<line x1="847.44" y1="1820.17" x2="857.84" y2="1805.32" stroke-linecap="round" style="stroke:#2D6D66;stroke-width:8.64"/>
	<line x1="857.84" y1="1805.32" x2="868.35" y2="1790.22" stroke-linecap="round" style="stroke:#2D6D66;stroke-width:8.64"/>
	<line x1="868.35" y1="1790.22" x2="878.75" y2="1775.13" stroke-linecap="round" style="stroke:#2D6D66;stroke-width:8.64"/>
	<line x1="878.75" y1="1775.13" x2="889.27" y2="1759.78" stroke-linecap="round" style="stroke:#2D6D66;stroke-width:8.64"/>
	<line x1="889.27" y1="1759.78" x2="899.66" y2="1744.43" stroke-linecap="round" style="stroke:#2D6D66;stroke-width:8.64"/>
	<line x1="899.66" y1="1744.43" x2="910.18" y2="1728.84" stroke-linecap="round" style="stroke:#2D6D66;stroke-width:8.64"/>
	<line x1="910.18" y1="1728.84" x2="920.58" y2="1713.25" stroke-linecap="round" style="stroke:#2D6D66;stroke-width:8.64"/>
	<line x1="920.58" y1="1713.25" x2="931.10" y2="1697.53" stroke-linecap="round" style="stroke:#2D6D66;stroke-width:8.64"/>
	<line x1="931.10" y1="1697.53" x2="941.49" y2="1681.69" stroke-linecap="round" style="stroke:#2D6D66;stroke-width:8.64"/>
	<line x1="941.49" y1="1681.69" x2="951.88" y2="1665.85" stroke-linecap="round" style="stroke:#2D6D66;stroke-width:8.64"/>
	<line x1="951.88" y1="1665.85" x2="962.40" y2="1649.89" stroke-linecap="round" style="stroke:#2D6D66;stroke-width:8.64"/>
	<line x1="962.40" y1="1649.89" x2="972.80" y2="1633.80" stroke-linecap="round" style="stroke:#2D6D66;stroke-width:8.64"/>
	<line x1="972.80" y1="1633.80" x2="983.32" y2="1617.71" stroke-linecap="round" style="stroke:#2D6D66;stroke-width:8.64"/>
	<line x1="983.32" y1="1617.71" x2="993.71" y2="1601.50" stroke-linecap="round" style="stroke:#2D6D66;stroke-width:8.64"/>
	<line x1="993.71" y1="1601.50" x2="1004.23" y2="1585.29" stroke-linecap="round" style="stroke:#2D6D66;stroke-width:8.64"/>
	<line x1="1004.23" y1="1585.29" x2="1014.63" y2="1569.08" stroke-linecap="round" style="stroke:#2D6D66;stroke-width:8.64"/>
	<line x1="1014.63" y1="1569.08" x2="1025.14" y2="1552.86" stroke-linecap="round" style="stroke:#2D6D66;stroke-width:8.64"/>
	<line x1="1025.14" y1="1552.86" x2="1035.54" y2="1536.53" stroke-linecap="round" style="stroke:#2D6D66;stroke-width:8.64"/>
	<line x1="1035.54" y1="1536.53" x2="1046.06" y2="1520.19" stroke-linecap="round" style="stroke:#2D6D66;stroke-width:8.64"/>
	<line x1="1046.06" y1="1520.19" x2="1056.45" y2="1503.98" stroke-linecap="round" style="stroke:#2D6D66;stroke-width:8.64"/>
	<line x1="1056.45" y1="1503.98" x2="1066.97" y2="1487.65" stroke-linecap="round" style="stroke:#2D6D66;stroke-width:8.64"/>
	<line x1="1066.97" y1="1487.65" x2="1077.37" y2="1471.31" stroke-linecap="round" style="stroke:#2D6D66;stroke-width:8.64"/>
	<line x1="1077.37" y1="1471.31" x2="1087.89" y2="1455.10" stroke-linecap="round" style="stroke:#2D6D66;stroke-width:8.64"/>
	<line x1="1087.89" y1="1455.10" x2="1098.28" y2="1438.89" stroke-linecap="round" style="stroke:#2D6D66;stroke-width:8.64"/>
	<line x1="1098.28" y1="1438.89" x2="1108.80" y2="1422.67" stroke-linecap="round" style="stroke:#2D6D66;stroke-width:8.64"/>
	<line x1="1108.80" y1="1422.67" x2="1119.19" y2="1406.59" stroke-linecap="round" style="stroke:#2D6D66;stroke-width:8.64"/>
	<line x1="1119.19" y1="1406.59" x2="1129.71" y2="1390.62" stroke-linecap="round" style="stroke:#2D6D66;stroke-width:8.64"/>
	<line x1="1129.71" y1="1390.62" x2="1140.11" y2="1374.53" stroke-linecap="round" style="stroke:#2D6D66;stroke-width:8.64"/>
	<line x1="1140.11" y1="1374.53" x2="1150.63" y2="1358.69" stroke-linecap="round" style="stroke:#2D6D66;stroke-width:8.64"/>
	<line x1="1150.63" y1="1358.69" x2="1161.02" y2="1342.85" stroke-linecap="round" style="stroke:#2D6D66;stroke-width:8.64"/>
	<line x1="1161.02" y1="1342.85" x2="1171.54" y2="1327.26" stroke-linecap="round" style="stroke:#2D6D66;stroke-width:8.64"/>
	<line x1="1171.54" y1="1327.26" x2="1181.94" y2="1311.67" stroke-linecap="round" style="stroke:#2D6D66;stroke-width:8.64"/>
	<line x1="1181.94" y1="1311.67" x2="1192.45" y2="1296.20" stroke-linecap="round" style="stroke:#2D6D66;stroke-width:8.64"/>
	<line x1="1192.45" y1="1296.20" x2="1202.85" y2="1280.85" stroke-linecap="round" style="stroke:#2D6D66;stroke-width:8.64"/>
	<line x1="1202.85" y1="1280.85" x2="1213.37" y2="1265.75" stroke-linecap="round" style="stroke:#2D6D66;stroke-width:8.64"/>
	<line x1="1213.37" y1="1265.75" x2="1223.76" y2="1250.78" stroke-linecap="round" style="stroke:#2D6D66;stroke-width:8.64"/>
	<line x1="1223.76" y1="1250.78" x2="1234.28" y2="1235.93" stroke-linecap="round" style="stroke:#2D6D66;stroke-width:8.64"/>
	<line x1="1234.28" y1="1235.93" x2="1244.68" y2="1221.20" stroke-linecap="round" style="stroke:#2D6D66;stroke-width:8.64"/>
	<line x1="1244.68" y1="1221.20" x2="1255.07" y2="1206.85" stroke-linecap="round" style="stroke:#2D6D66;stroke-width:8.64"/>
	<line x1="1255.07" y1="1206.85" x2="1265.59" y2="1192.49" stroke-linecap="round" style="stroke:#2D6D66;stroke-width:8.64"/>
	<line x1="1265.59" y1="1192.49" x2="1275.99" y2="1178.51" stroke-linecap="round" style="stroke:#2D6D66;stroke-width:8.64"/>
	<line x1="1275.99" y1="1178.51" x2="1286.51" y2="1164.65" stroke-linecap="round" style="stroke:#2D6D66;stroke-width:8.64"/>
	<line x1="1286.51" y1="1164.65" x2="1296.90" y2="1151.03" stroke-linecap="round" style="stroke:#2D6D66;stroke-width:8.64"/>
	<line x1="1296.90" y1="1151.03" x2="1307.42" y2="1137.67" stroke-linecap="round" style="stroke:#2D6D66;stroke-width:8.64"/>
	<line x1="1307.42" y1="1137.67" x2="1317.81" y2="1124.55" stroke-linecap="round" style="stroke:#2D6D66;stroke-width:8.64"/>
	<line x1="1317.81" y1="1124.55" x2="1328.33" y2="1111.68" stroke-linecap="round" style="stroke:#2D6D66;stroke-width:8.64"/>
	<line x1="1328.33" y1="1111.68" x2="1338.73" y2="1099.18" stroke-linecap="round" style="stroke:#2D6D66;stroke-width:8.64"/>
	<line x1="1338.73" y1="1099.18" x2="1349.25" y2="1086.81" stroke-linecap="round" style="stroke:#2D6D66;stroke-width:8.64"/>
	<line x1="1349.25" y1="1086.81" x2="1359.64" y2="1074.80" stroke-linecap="round" style="stroke:#2D6D66;stroke-width:8.64"/>
	<line x1="1359.64" y1="1074.80" x2="1370.16" y2="1063.05" stroke-linecap="round" style="stroke:#2D6D66;stroke-width:8.64"/>
	<line x1="1370.16" y1="1063.05" x2="1380.56" y2="1051.66" stroke-linecap="round" style="stroke:#2D6D66;stroke-width:8.64"/>
	<line x1="1380.56" y1="1051.66" x2="1391.07" y2="1040.52" stroke-linecap="round" style="stroke:#2D6D66;stroke-width:8.64"/>
	<line x1="1391.07" y1="1040.52" x2="1401.47" y2="1029.76" stroke-linecap="round" style="stroke:#2D6D66;stroke-width:8.64"/>
	<line x1="1401.47" y1="1029.76" x2="1411.99" y2="1019.36" stroke-linecap="round" style="stroke:#2D6D66;stroke-width:8.64"/>
	<line x1="1411.99" y1="1019.36" x2="1422.38" y2="1009.21" stroke-linecap="round" style="stroke:#2D6D66;stroke-width:8.64"/>
	<line x1="1422.38" y1="1009.21" x2="1432.90" y2="999.56" stroke-linecap="round" style="stroke:#2D6D66;stroke-width:8.64"/>
	<line x1="1432.90" y1="999.56" x2="1443.30" y2="990.15" stroke-linecap="round" style="stroke:#2D6D66;stroke-width:8.64"/>
	<line x1="1443.30" y1="990.15" x2="1453.82" y2="981.12" stroke-linecap="round" style="stroke:#2D6D66;stroke-width:8.64"/>
	<line x1="1453.82" y1="981.12" x2="1464.21" y2="972.46" stroke-linecap="round" style="stroke:#2D6D66;stroke-width:8.64"/>
	<line x1="1464.21" y1="972.46" x2="1474.73" y2="964.17" stroke-linecap="round" style="stroke:#2D6D66;stroke-width:8.64"/>
	<line x1="1474.73" y1="964.17" x2="1485.12" y2="956.25" stroke-linecap="round" style="stroke:#2D6D66;stroke-width:8.64"/>
	<line x1="1485.12" y1="956.25" x2="1495.64" y2="948.82" stroke-linecap="round" style="stroke:#2D6D66;stroke-width:8.64"/>
	<line x1="1495.64" y1="948.82" x2="1506.04" y2="941.64" stroke-linecap="round" style="stroke:#2D6D66;stroke-width:8.64"/>
	<line x1="1506.04" y1="941.64" x2="1516.56" y2="934.96" stroke-linecap="round" style="stroke:#2D6D66;stroke-width:8.64"/>
	<line x1="1516.56" y1="934.96" x2="1526.95" y2="928.65" stroke-linecap="round" style="stroke:#2D6D66;stroke-width:8.64"/>
	<line x1="1526.95" y1="928.65" x2="1537.47" y2="922.83" stroke-linecap="round" style="stroke:#2D6D66;stroke-width:8.64"/>
	<line x1="1537.47" y1="922.83" x2="1547.87" y2="917.39" stroke-linecap="round" style="stroke:#2D6D66;stroke-width:8.64"/>
	<line x1="1547.87" y1="917.39" x2="1558.38" y2="912.31" stroke-linecap="round" style="stroke:#2D6D66;stroke-width:8.64"/>
	<line x1="1558.38" y1="912.31" x2="1568.78" y2="907.73" stroke-linecap="round" style="stroke:#2D6D66;stroke-width:8.64"/>
	<line x1="1568.78" y1="907.73" x2="1579.17" y2="903.65" stroke-linecap="round" style="stroke:#2D6D66;stroke-width:8.64"/>
	<line x1="1579.17" y1="903.65" x2="1589.69" y2="899.81" stroke-linecap="round" style="stroke:#2D6D66;stroke-width:8.64"/>
	<line x1="1589.69" y1="899.81" x2="1600.09" y2="896.60" stroke-linecap="round" style="stroke:#2D6D66;stroke-width:8.64"/>
	<line x1="1600.09" y1="896.60" x2="1610.61" y2="893.75" stroke-linecap="round" style="stroke:#2D6D66;stroke-width:8.64"/>
	<line x1="1610.61" y1="893.75" x2="1621.00" y2="891.28" stroke-linecap="round" style="stroke:#2D6D66;stroke-width:8.64"/>
	<line x1="1621.00" y1="891.28" x2="1631.52" y2="889.42" stroke-linecap="round" style="stroke:#2D6D66;stroke-width:8.64"/>
	<line x1="1631.52" y1="889.42" x2="1641.91" y2="887.81" stroke-linecap="round" style="stroke:#2D6D66;stroke-width:8.64"/>
	<line x1="1641.91" y1="887.81" x2="1652.43" y2="886.82" stroke-linecap="round" style="stroke:#2D6D66;stroke-width:8.64"/>
	<line x1="1652.43" y1="886.82" x2="1662.83" y2="886.20" stroke-linecap="round" style="stroke:#2D6D66;stroke-width:8.64"/>
	<line x1="1662.83" y1="886.20" x2="1673.35" y2="886.08" stroke-linecap="round" style="stroke:#2D6D66;stroke-width:8.64"/>
	<line x1="1673.35" y1="886.08" x2="1683.74" y2="886.33" stroke-linecap="round" style="stroke:#2D6D66;stroke-width:8.64"/>
	<line x1="1683.74" y1="886.33" x2="1694.26" y2="887.07" stroke-linecap="round" style="stroke:#2D6D66;stroke-width:8.64"/>
	<line x1="1694.26" y1="887.07" x2="1704.66" y2="888.18" stroke-linecap="round" style="stroke:#2D6D66;stroke-width:8.64"/>
	<line x1="1704.66" y1="888.18" x2="1715.17" y2="889.91" stroke-linecap="round" style="stroke:#2D6D66;stroke-width:8.64"/>
	<line x1="1715.17" y1="889.91" x2="1725.57" y2="892.02" stroke-linecap="round" style="stroke:#2D6D66;stroke-width:8.64"/>
	<line x1="1725.57" y1="892.02" x2="1736.09" y2="894.49" stroke-linecap="round" style="stroke:#2D6D66;stroke-width:8.64"/>
	<line x1="1736.09" y1="894.49" x2="1746.48" y2="897.46" stroke-linecap="round" style="stroke:#2D6D66;stroke-width:8.64"/>
	<line x1="1746.48" y1="897.46" x2="1757.00" y2="900.93" stroke-linecap="round" style="stroke:#2D6D66;stroke-width:8.64"/>
	<line x1="1757.00" y1="900.93" x2="1767.40" y2="904.76" stroke-linecap="round" style="stroke:#2D6D66;stroke-width:8.64"/>
	<line x1="1767.40" y1="904.76" x2="1777.92" y2="908.97" stroke-linecap="round" style="stroke:#2D6D66;stroke-width:8.64"/>
	<line x1="1777.92" y1="908.97" x2="1788.31" y2="913.80" stroke-linecap="round" style="stroke:#2D6D66;stroke-width:8.64"/>
	<line x1="1788.31" y1="913.80" x2="1798.83" y2="918.87" stroke-linecap="round" style="stroke:#2D6D66;stroke-width:8.64"/>
	<line x1="1798.83" y1="918.87" x2="1809.22" y2="924.44" stroke-linecap="round" style="stroke:#2D6D66;stroke-width:8.64"/>
	<line x1="1809.22" y1="924.44" x2="1819.74" y2="930.51" stroke-linecap="round" style="stroke:#2D6D66;stroke-width:8.64"/>
	<line x1="1819.74" y1="930.51" x2="1830.14" y2="936.82" stroke-linecap="round" style="stroke:#2D6D66;stroke-width:8.64"/>
	<line x1="1830.14" y1="936.82" x2="1840.66" y2="943.62" stroke-linecap="round" style="stroke:#2D6D66;stroke-width:8.64"/>
	<line x1="1840.66" y1="943.62" x2="1851.05" y2="950.92" stroke-linecap="round" style="stroke:#2D6D66;stroke-width:8.64"/>
	<line x1="1851.05" y1="950.92" x2="1861.57" y2="958.47" stroke-linecap="round" style="stroke:#2D6D66;stroke-width:8.64"/>
	<line x1="1861.57" y1="958.47" x2="1871.97" y2="966.52" stroke-linecap="round" style="stroke:#2D6D66;stroke-width:8.64"/>
	<line x1="1871.97" y1="966.52" x2="1882.48" y2="974.81" stroke-linecap="round" style="stroke:#2D6D66;stroke-width:8.64"/>
	<line x1="1882.48" y1="974.81" x2="1892.88" y2="983.60" stroke-linecap="round" style="stroke:#2D6D66;stroke-width:8.64"/>
	<line x1="1892.88" y1="983.60" x2="1903.28" y2="992.75" stroke-linecap="round" style="stroke:#2D6D66;stroke-width:8.64"/>
	<line x1="1903.28" y1="992.75" x2="1913.79" y2="1002.28" stroke-linecap="round" style="stroke:#2D6D66;stroke-width:8.64"/>
	<line x1="1913.79" y1="1002.28" x2="1924.19" y2="1012.06" stroke-linecap="round" style="stroke:#2D6D66;stroke-width:8.64"/>
	<line x1="1924.19" y1="1012.06" x2="1934.71" y2="1022.33" stroke-linecap="round" style="stroke:#2D6D66;stroke-width:8.64"/>
	<line x1="1934.71" y1="1022.33" x2="1945.10" y2="1032.85" stroke-linecap="round" style="stroke:#2D6D66;stroke-width:8.64"/>
	<line x1="1945.10" y1="1032.85" x2="1955.62" y2="1043.74" stroke-linecap="round" style="stroke:#2D6D66;stroke-width:8.64"/>
	<line x1="1955.62" y1="1043.74" x2="1966.02" y2="1054.88" stroke-linecap="round" style="stroke:#2D6D66;stroke-width:8.64"/>
	<line x1="1966.02" y1="1054.88" x2="1976.54" y2="1066.39" stroke-linecap="round" style="stroke:#2D6D66;stroke-width:8.64"/>
	<line x1="1976.54" y1="1066.39" x2="1986.93" y2="1078.14" stroke-linecap="round" style="stroke:#2D6D66;stroke-width:8.64"/>
	<line x1="1986.93" y1="1078.14" x2="1997.45" y2="1090.27" stroke-linecap="round" style="stroke:#2D6D66;stroke-width:8.64"/>
	<line x1="1997.45" y1="1090.27" x2="2007.84" y2="1102.65" stroke-linecap="round" style="stroke:#2D6D66;stroke-width:8.64"/>
	<line x1="2007.84" y1="1102.65" x2="2018.36" y2="1115.27" stroke-linecap="round" style="stroke:#2D6D66;stroke-width:8.64"/>
	<line x1="2018.36" y1="1115.27" x2="2028.76" y2="1128.26" stroke-linecap="round" style="stroke:#2D6D66;stroke-width:8.64"/>
	<line x1="2028.76" y1="1128.26" x2="2039.28" y2="1141.38" stroke-linecap="round" style="stroke:#2D6D66;stroke-width:8.64"/>
	<line x1="2039.28" y1="1141.38" x2="2049.67" y2="1154.87" stroke-linecap="round" style="stroke:#2D6D66;stroke-width:8.64"/>
	<line x1="2049.67" y1="1154.87" x2="2060.19" y2="1168.48" stroke-linecap="round" style="stroke:#2D6D66;stroke-width:8.64"/>
	<line x1="2060.19" y1="1168.48" x2="2070.59" y2="1182.47" stroke-linecap="round" style="stroke:#2D6D66;stroke-width:8.64"/>
	<line x1="2070.59" y1="1182.47" x2="2081.10" y2="1196.58" stroke-linecap="round" style="stroke:#2D6D66;stroke-width:8.64"/>
	<line x1="2081.10" y1="1196.58" x2="2091.50" y2="1210.93" stroke-linecap="round" style="stroke:#2D6D66;stroke-width:8.64"/>
	<line x1="2091.50" y1="1210.93" x2="2102.02" y2="1225.41" stroke-linecap="round" style="stroke:#2D6D66;stroke-width:8.64"/>
	<line x1="2102.02" y1="1225.41" x2="2112.41" y2="1240.14" stroke-linecap="round" style="stroke:#2D6D66;stroke-width:8.64"/>
	<line x1="2112.41" y1="1240.14" x2="2122.93" y2="1254.99" stroke-linecap="round" style="stroke:#2D6D66;stroke-width:8.64"/>
	<line x1="2122.93" y1="1254.99" x2="2133.33" y2="1270.09" stroke-linecap="round" style="stroke:#2D6D66;stroke-width:8.64"/>
	<line x1="2133.33" y1="1270.09" x2="2143.84" y2="1285.18" stroke-linecap="round" style="stroke:#2D6D66;stroke-width:8.64"/>
	<line x1="2143.84" y1="1285.18" x2="2154.24" y2="1300.53" stroke-linecap="round" style="stroke:#2D6D66;stroke-width:8.64"/>
	<line x1="2154.24" y1="1300.53" x2="2164.76" y2="1316.00" stroke-linecap="round" style="stroke:#2D6D66;stroke-width:8.64"/>
	<line x1="2164.76" y1="1316.00" x2="2175.15" y2="1331.72" stroke-linecap="round" style="stroke:#2D6D66;stroke-width:8.64"/>
	<line x1="2175.15" y1="1331.72" x2="2185.67" y2="1347.43" stroke-linecap="round" style="stroke:#2D6D66;stroke-width:8.64"/>
	<line x1="2185.67" y1="1347.43" x2="2196.07" y2="1363.15" stroke-linecap="round" style="stroke:#2D6D66;stroke-width:8.64"/>
	<line x1="2196.07" y1="1363.15" x2="2206.46" y2="1379.11" stroke-linecap="round" style="stroke:#2D6D66;stroke-width:8.64"/>
	<line x1="2206.46" y1="1379.11" x2="2216.98" y2="1395.08" stroke-linecap="round" style="stroke:#2D6D66;stroke-width:8.64"/>
	<line x1="2216.98" y1="1395.08" x2="2227.38" y2="1411.17" stroke-linecap="round" style="stroke:#2D6D66;stroke-width:8.64"/>
	<line x1="2227.38" y1="1411.17" x2="2237.89" y2="1427.25" stroke-linecap="round" style="stroke:#2D6D66;stroke-width:8.64"/>
	<line x1="2237.89" y1="1427.25" x2="2248.29" y2="1443.47" stroke-linecap="round" style="stroke:#2D6D66;stroke-width:8.64"/>
	<line x1="2248.29" y1="1443.47" x2="2258.81" y2="1459.68" stroke-linecap="round" style="stroke:#2D6D66;stroke-width:8.64"/>
	<line x1="2258.81" y1="1459.68" x2="2269.20" y2="1476.01" stroke-linecap="round" style="stroke:#2D6D66;stroke-width:8.64"/>
	<line x1="2269.20" y1="1476.01" x2="2279.72" y2="1492.22" stroke-linecap="round" style="stroke:#2D6D66;stroke-width:8.64"/>
	<line x1="2279.72" y1="1492.22" x2="2290.12" y2="1508.56" stroke-linecap="round" style="stroke:#2D6D66;stroke-width:8.64"/>
	<line x1="2290.12" y1="1508.56" x2="2300.64" y2="1524.90" stroke-linecap="round" style="stroke:#2D6D66;stroke-width:8.64"/>
	<line x1="2300.64" y1="1524.90" x2="2311.03" y2="1541.11" stroke-linecap="round" style="stroke:#2D6D66;stroke-width:8.64"/>
	<line x1="2311.03" y1="1541.11" x2="2321.55" y2="1557.44" stroke-linecap="round" style="stroke:#2D6D66;stroke-width:8.64"/>
	<line x1="2321.55" y1="1557.44" x2="2331.95" y2="1573.65" stroke-linecap="round" style="stroke:#2D6D66;stroke-width:8.64"/>
	<line x1="2331.95" y1="1573.65" x2="2342.46" y2="1589.99" stroke-linecap="round" style="stroke:#2D6D66;stroke-width:8.64"/>
	<line x1="2342.46" y1="1589.99" x2="2352.86" y2="1606.08" stroke-linecap="round" style="stroke:#2D6D66;stroke-width:8.64"/>
	<line x1="2352.86" y1="1606.08" x2="2363.38" y2="1622.29" stroke-linecap="round" style="stroke:#2D6D66;stroke-width:8.64"/>
	<line x1="2363.38" y1="1622.29" x2="2373.77" y2="1638.38" stroke-linecap="round" style="stroke:#2D6D66;stroke-width:8.64"/>
	<line x1="2373.77" y1="1638.38" x2="2384.29" y2="1654.34" stroke-linecap="round" style="stroke:#2D6D66;stroke-width:8.64"/>
	<line x1="2384.29" y1="1654.34" x2="2394.69" y2="1670.31" stroke-linecap="round" style="stroke:#2D6D66;stroke-width:8.64"/>
	<line x1="2394.69" y1="1670.31" x2="2405.20" y2="1686.15" stroke-linecap="round" style="stroke:#2D6D66;stroke-width:8.64"/>
	<line x1="2405.20" y1="1686.15" x2="2415.60" y2="1701.99" stroke-linecap="round" style="stroke:#2D6D66;stroke-width:8.64"/>
	<line x1="2415.60" y1="1701.99" x2="2426.12" y2="1717.70" stroke-linecap="round" style="stroke:#2D6D66;stroke-width:8.64"/>
	<line x1="2426.12" y1="1717.70" x2="2436.51" y2="1733.30" stroke-linecap="round" style="stroke:#2D6D66;stroke-width:8.64"/>
	<line x1="2436.51" y1="1733.30" x2="2447.03" y2="1748.77" stroke-linecap="round" style="stroke:#2D6D66;stroke-width:8.64"/>
	<line x1="2447.03" y1="1748.77" x2="2457.43" y2="1764.11" stroke-linecap="round" style="stroke:#2D6D66;stroke-width:8.64"/>
	<line x1="2457.43" y1="1764.11" x2="2467.95" y2="1779.33" stroke-linecap="round" style="stroke:#2D6D66;stroke-width:8.64"/>
	<line x1="2467.95" y1="1779.33" x2="2478.34" y2="1794.55" stroke-linecap="round" style="stroke:#2D6D66;stroke-width:8.64"/>
	<line x1="2478.34" y1="1794.55" x2="2488.86" y2="1809.53" stroke-linecap="round" style="stroke:#2D6D66;stroke-width:8.64"/>
	<line x1="2488.86" y1="1809.53" x2="2499.26" y2="1824.38" stroke-linecap="round" style="stroke:#2D6D66;stroke-width:8.64"/>
	<line x1="2499.26" y1="1824.38" x2="2509.77" y2="1839.11" stroke-linecap="round" style="stroke:#2D6D66;stroke-width:8.64"/>
	<line x1="2509.77" y1="1839.11" x2="2520.17" y2="1853.71" stroke-linecap="round" style="stroke:#2D6D66;stroke-width:8.64"/>
	<line x1="2520.17" y1="1853.71" x2="2530.56" y2="1868.06" stroke-linecap="round" style="stroke:#2D6D66;stroke-width:8.64"/>
	<line x1="2530.56" y1="1868.06" x2="2541.08" y2="1882.30" stroke-linecap="round" style="stroke:#2D6D66;stroke-width:8.64"/>
	<line x1="2541.08" y1="1882.30" x2="2551.48" y2="1896.40" stroke-linecap="round" style="stroke:#2D6D66;stroke-width:8.64"/>
	<line x1="2551.48" y1="1896.40" x2="2562.00" y2="1910.39" stroke-linecap="round" style="stroke:#2D6D66;stroke-width:8.64"/>
	<line x1="2562.00" y1="1910.39" x2="2572.39" y2="1924.13" stroke-linecap="round" style="stroke:#2D6D66;stroke-width:8.64"/>
	<line x1="2572.39" y1="1924.13" x2="2582.91" y2="1937.74" stroke-linecap="round" style="stroke:#2D6D66;stroke-width:8.64"/>
	<line x1="2582.91" y1="1937.74" x2="2593.30" y2="1951.10" stroke-linecap="round" style="stroke:#2D6D66;stroke-width:8.64"/>
	<line x1="2593.30" y1="1951.10" x2="2603.82" y2="1964.35" stroke-linecap="round" style="stroke:#2D6D66;stroke-width:8.64"/>
	<line x1="2603.82" y1="1964.35" x2="2614.22" y2="1977.46" stroke-linecap="round" style="stroke:#2D6D66;stroke-width:8.64"/>
	<line x1="2614.22" y1="1977.46" x2="2624.74" y2="1990.33" stroke-linecap="round" style="stroke:#2D6D66;stroke-width:8.64"/>
	<line x1="2624.74" y1="1990.33" x2="2635.13" y2="2002.96" stroke-linecap="round" style="stroke:#2D6D66;stroke-width:8.64"/>
	<line x1="2635.13" y1="2002.96" x2="2645.65" y2="2015.46" stroke-linecap="round" style="stroke:#2D6D66;stroke-width:8.64"/>
	<line x1="2645.65" y1="2015.46" x2="2656.05" y2="2027.83" stroke-linecap="round" style="stroke:#2D6D66;stroke-width:8.64"/>
	<line x1="2656.05" y1="2027.83" x2="2666.57" y2="2039.96" stroke-linecap="round" style="stroke:#2D6D66;stroke-width:8.64"/>
	<line x1="2666.57" y1="2039.96" x2="2676.96" y2="2051.84" stroke-linecap="round" style="stroke:#2D6D66;stroke-width:8.64"/>
	<line x1="2676.96" y1="2051.84" x2="2687.48" y2="2063.60" stroke-linecap="round" style="stroke:#2D6D66;stroke-width:8.64"/>
	<line x1="2687.48" y1="2063.60" x2="2697.87" y2="2075.10" stroke-linecap="round" style="stroke:#2D6D66;stroke-width:8.64"/>
	<line x1="2697.87" y1="2075.10" x2="2708.39" y2="2086.37" stroke-linecap="round" style="stroke:#2D6D66;stroke-width:8.64"/>
	<line x1="2708.39" y1="2086.37" x2="2718.79" y2="2097.50" stroke-linecap="round" style="stroke:#2D6D66;stroke-width:8.64"/>
	<line x1="2718.79" y1="2097.50" x2="2729.31" y2="2108.39" stroke-linecap="round" style="stroke:#2D6D66;stroke-width:8.64"/>
	<line x1="2729.31" y1="2108.39" x2="2739.70" y2="2119.16" stroke-linecap="round" style="stroke:#2D6D66;stroke-width:8.64"/>
	<line x1="2739.70" y1="2119.16" x2="2750.22" y2="2129.68" stroke-linecap="round" style="stroke:#2D6D66;stroke-width:8.64"/>
	<line x1="2750.22" y1="2129.68" x2="2760.61" y2="2140.08" stroke-linecap="round" style="stroke:#2D6D66;stroke-width:8.64"/>
	<line x1="2760.61" y1="2140.08" x2="2771.13" y2="2150.10" stroke-linecap="round" style="stroke:#2D6D66;stroke-width:8.64"/>
	<line x1="2771.13" y1="2150.10" x2="2781.53" y2="2160.12" stroke-linecap="round" style="stroke:#2D6D66;stroke-width:8.64"/>
	<line x1="2781.53" y1="2160.12" x2="2792.05" y2="2169.78" stroke-linecap="round" style="stroke:#2D6D66;stroke-width:8.64"/>
	<line x1="2792.05" y1="2169.78" x2="2802.44" y2="2179.31" stroke-linecap="round" style="stroke:#2D6D66;stroke-width:8.64"/>
	<line x1="2802.44" y1="2179.31" x2="2812.96" y2="2188.59" stroke-linecap="round" style="stroke:#2D6D66;stroke-width:8.64"/>
	<line x1="2812.96" y1="2188.59" x2="2823.36" y2="2197.74" stroke-linecap="round" style="stroke:#2D6D66;stroke-width:8.64"/>
	<line x1="2823.36" y1="2197.74" x2="2833.88" y2="2206.66" stroke-linecap="round" style="stroke:#2D6D66;stroke-width:8.64"/>
	<line x1="2833.88" y1="2206.66" x2="2844.27" y2="2215.44" stroke-linecap="round" style="stroke:#2D6D66;stroke-width:8.64"/>
	<line x1="2844.27" y1="2215.44" x2="2854.66" y2="2223.98" stroke-linecap="round" style="stroke:#2D6D66;stroke-width:8.64"/>
	<line x1="2854.66" y1="2223.98" x2="2865.18" y2="2232.27" stroke-linecap="round" style="stroke:#2D6D66;stroke-width:8.64"/>
	<line x1="2865.18" y1="2232.27" x2="2875.58" y2="2240.44" stroke-linecap="round" style="stroke:#2D6D66;stroke-width:8.64"/>
	<line x1="2875.58" y1="2240.44" x2="2886.10" y2="2248.36" stroke-linecap="round" style="stroke:#2D6D66;stroke-width:8.64"/>
	<line x1="2886.10" y1="2248.36" x2="2896.49" y2="2256.16" stroke-linecap="round" style="stroke:#2D6D66;stroke-width:8.64"/>
	<line x1="2896.49" y1="2256.16" x2="2907.01" y2="2263.71" stroke-linecap="round" style="stroke:#2D6D66;stroke-width:8.64"/>
	<line x1="2907.01" y1="2263.71" x2="2917.41" y2="2271.13" stroke-linecap="round" style="stroke:#2D6D66;stroke-width:8.64"/>
	<line x1="2917.41" y1="2271.13" x2="2927.93" y2="2278.31" stroke-linecap="round" style="stroke:#2D6D66;stroke-width:8.64"/>
	<line x1="2927.93" y1="2278.31" x2="2938.32" y2="2285.36" stroke-linecap="round" style="stroke:#2D6D66;stroke-width:8.64"/>
	<line x1="2938.32" y1="2285.36" x2="2948.84" y2="2292.17" stroke-linecap="round" style="stroke:#2D6D66;stroke-width:8.64"/>
	<line x1="2948.84" y1="2292.17" x2="2959.23" y2="2298.85" stroke-linecap="round" style="stroke:#2D6D66;stroke-width:8.64"/>
	<line x1="2959.23" y1="2298.85" x2="2969.75" y2="2305.41" stroke-linecap="round" style="stroke:#2D6D66;stroke-width:8.64"/>
	<line x1="2969.75" y1="2305.41" x2="2980.15" y2="2311.72" stroke-linecap="round" style="stroke:#2D6D66;stroke-width:8.64"/>
	<line x1="2980.15" y1="2311.72" x2="2990.67" y2="2317.91" stroke-linecap="round" style="stroke:#2D6D66;stroke-width:8.64"/>
	<line x1="2990.67" y1="2317.91" x2="3001.06" y2="2323.85" stroke-linecap="round" style="stroke:#2D6D66;stroke-width:8.64"/>
	<line x1="3001.06" y1="2323.85" x2="3011.58" y2="2329.67" stroke-linecap="round" style="stroke:#2D6D66;stroke-width:8.64"/>
	<line x1="3011.58" y1="2329.67" x2="3021.97" y2="2335.36" stroke-linecap="round" style="stroke:#2D6D66;stroke-width:8.64"/>
	<line x1="3021.97" y1="2335.36" x2="3032.49" y2="2340.93" stroke-linecap="round" style="stroke:#2D6D66;stroke-width:8.64"/>
	<line x1="3032.49" y1="2340.93" x2="3042.89" y2="2346.25" stroke-linecap="round" style="stroke:#2D6D66;stroke-width:8.64"/>
	<line x1="3042.89" y1="2346.25" x2="3053.41" y2="2351.45" stroke-linecap="round" style="stroke:#2D6D66;stroke-width:8.64"/>
	<line x1="3053.41" y1="2351.45" x2="3063.80" y2="2356.52" stroke-linecap="round" style="stroke:#2D6D66;stroke-width:8.64"/>
	<line x1="3063.80" y1="2356.52" x2="3074.32" y2="2361.35" stroke-linecap="round" style="stroke:#2D6D66;stroke-width:8.64"/>
	<line x1="3074.32" y1="2361.35" x2="3084.72" y2="2366.17" stroke-linecap="round" style="stroke:#2D6D66;stroke-width:8.64"/>
	<line x1="3084.72" y1="2366.17" x2="3095.24" y2="2370.75" stroke-linecap="round" style="stroke:#2D6D66;stroke-width:8.64"/>
	<line x1="3095.24" y1="2370.75" x2="3105.63" y2="2375.21" stroke-linecap="round" style="stroke:#2D6D66;stroke-width:8.64"/>
	<line x1="3105.63" y1="2375.21" x2="3116.15" y2="2379.54" stroke-linecap="round" style="stroke:#2D6D66;stroke-width:8.64"/>
	<line x1="3116.15" y1="2379.54" x2="3126.54" y2="2383.75" stroke-linecap="round" style="stroke:#2D6D66;stroke-width:8.64"/>
	<line x1="3126.54" y1="2383.75" x2="3137.06" y2="2387.83" stroke-linecap="round" style="stroke:#2D6D66;stroke-width:8.64"/>
	<line x1="3137.06" y1="2387.83" x2="3147.46" y2="2391.67" stroke-linecap="round" style="stroke:#2D6D66;stroke-width:8.64"/>
	<line x1="3147.46" y1="2391.67" x2="3157.85" y2="2395.50" stroke-linecap="round" style="stroke:#2D6D66;stroke-width:8.64"/>
	<line x1="3157.85" y1="2395.50" x2="3168.37" y2="2399.22" stroke-linecap="round" style="stroke:#2D6D66;stroke-width:8.64"/>
	<line x1="3168.37" y1="2399.22" x2="3178.77" y2="2402.81" stroke-linecap="round" style="stroke:#2D6D66;stroke-width:8.64"/>
	<line x1="3178.77" y1="2402.81" x2="3189.28" y2="2406.27" stroke-linecap="round" style="stroke:#2D6D66;stroke-width:8.64"/>
	<line x1="3189.28" y1="2406.27" x2="3199.68" y2="2409.49" stroke-linecap="round" style="stroke:#2D6D66;stroke-width:8.64"/>
	<line x1="3199.68" y1="2409.49" x2="3210.20" y2="2412.71" stroke-linecap="round" style="stroke:#2D6D66;stroke-width:8.64"/>
	<line x1="3210.20" y1="2412.71" x2="3220.59" y2="2415.92" stroke-linecap="round" style="stroke:#2D6D66;stroke-width:8.64"/>
	<line x1="3220.59" y1="2415.92" x2="3231.11" y2="2418.89" stroke-linecap="round" style="stroke:#2D6D66;stroke-width:8.64"/>
	<line x1="3231.11" y1="2418.89" x2="3241.51" y2="2421.74" stroke-linecap="round" style="stroke:#2D6D66;stroke-width:8.64"/>
	<line x1="3241.51" y1="2421.74" x2="3252.03" y2="2424.59" stroke-linecap="round" style="stroke:#2D6D66;stroke-width:8.64"/>
	<line x1="3252.03" y1="2424.59" x2="3262.42" y2="2427.31" stroke-linecap="round" style="stroke:#2D6D66;stroke-width:8.64"/>
	<line x1="3262.42" y1="2427.31" x2="3272.94" y2="2429.91" stroke-linecap="round" style="stroke:#2D6D66;stroke-width:8.64"/>
	<line x1="3272.94" y1="2429.91" x2="3283.34" y2="2432.38" stroke-linecap="round" style="stroke:#2D6D66;stroke-width:8.64"/>
	<line x1="3283.34" y1="2432.38" x2="3293.85" y2="2434.86" stroke-linecap="round" style="stroke:#2D6D66;stroke-width:8.64"/>
	<line x1="3293.85" y1="2434.86" x2="3304.25" y2="2437.08" stroke-linecap="round" style="stroke:#2D6D66;stroke-width:8.64"/>
	<line x1="3304.25" y1="2437.08" x2="3314.77" y2="2439.44" stroke-linecap="round" style="stroke:#2D6D66;stroke-width:8.64"/>
	<line x1="3314.77" y1="2439.44" x2="3325.16" y2="2441.54" stroke-linecap="round" style="stroke:#2D6D66;stroke-width:8.64"/>
	<line x1="3325.16" y1="2441.54" x2="3335.68" y2="2443.64" stroke-linecap="round" style="stroke:#2D6D66;stroke-width:8.64"/>
	<line x1="3335.68" y1="2443.64" x2="3346.08" y2="2445.62" stroke-linecap="round" style="stroke:#2D6D66;stroke-width:8.64"/>
	<line x1="3346.08" y1="2445.62" x2="3356.59" y2="2447.60" stroke-linecap="round" style="stroke:#2D6D66;stroke-width:8.64"/>
	<line x1="3356.59" y1="2447.60" x2="3366.99" y2="2449.46" stroke-linecap="round" style="stroke:#2D6D66;stroke-width:8.64"/>
	<line x1="3366.99" y1="2449.46" x2="3377.51" y2="2451.19" stroke-linecap="round" style="stroke:#2D6D66;stroke-width:8.64"/>
	<line x1="3377.51" y1="2451.19" x2="3387.90" y2="2452.93" stroke-linecap="round" style="stroke:#2D6D66;stroke-width:8.64"/>
	<line x1="3387.90" y1="2452.93" x2="3398.42" y2="2454.53" stroke-linecap="round" style="stroke:#2D6D66;stroke-width:8.64"/>
	<line x1="3398.42" y1="2454.53" x2="3408.82" y2="2456.14" stroke-linecap="round" style="stroke:#2D6D66;stroke-width:8.64"/>
	<line x1="3408.82" y1="2456.14" x2="3419.34" y2="2457.63" stroke-linecap="round" style="stroke:#2D6D66;stroke-width:8.64"/>
	<line x1="3419.34" y1="2457.63" x2="3429.73" y2="2459.11" stroke-linecap="round" style="stroke:#2D6D66;stroke-width:8.64"/>
	<line x1="3429.73" y1="2459.11" x2="3440.25" y2="2460.47" stroke-linecap="round" style="stroke:#2D6D66;stroke-width:8.64"/>
	<line x1="3440.25" y1="2460.47" x2="3450.64" y2="2461.84" stroke-linecap="round" style="stroke:#2D6D66;stroke-width:8.64"/>
	<line x1="3450.64" y1="2461.84" x2="3461.16" y2="2463.07" stroke-linecap="round" style="stroke:#2D6D66;stroke-width:8.64"/>
	<line x1="3461.16" y1="2463.07" x2="3471.56" y2="2464.31" stroke-linecap="round" style="stroke:#2D6D66;stroke-width:8.64"/>
	<line x1="3471.56" y1="2464.31" x2="3481.95" y2="2465.55" stroke-linecap="round" style="stroke:#2D6D66;stroke-width:8.64"/>
	<line x1="3481.95" y1="2465.55" x2="3492.47" y2="2466.66" stroke-linecap="round" style="stroke:#2D6D66;stroke-width:8.64"/>
	<line x1="3492.47" y1="2466.66" x2="3502.87" y2="2467.78" stroke-linecap="round" style="stroke:#2D6D66;stroke-width:8.64"/>
	<line x1="3502.87" y1="2467.78" x2="3513.39" y2="2468.77" stroke-linecap="round" style="stroke:#2D6D66;stroke-width:8.64"/>
	<line x1="3513.39" y1="2468.77" x2="3523.78" y2="2469.76" stroke-linecap="round" style="stroke:#2D6D66;stroke-width:8.64"/>
	<line x1="3523.78" y1="2469.76" x2="3534.30" y2="2470.75" stroke-linecap="round" style="stroke:#2D6D66;stroke-width:8.64"/>
	<line x1="3534.30" y1="2470.75" x2="3544.70" y2="2471.61" stroke-linecap="round" style="stroke:#2D6D66;stroke-width:8.64"/>
	<line x1="3544.70" y1="2471.61" x2="3555.21" y2="2472.48" stroke-linecap="round" style="stroke:#2D6D66;stroke-width:8.64"/>
	<line x1="3555.21" y1="2472.48" x2="3565.61" y2="2473.34" stroke-linecap="round" style="stroke:#2D6D66;stroke-width:8.64"/>
	<line x1="3565.61" y1="2473.34" x2="3576.13" y2="2474.09" stroke-linecap="round" style="stroke:#2D6D66;stroke-width:8.64"/>
	<line x1="3576.13" y1="2474.09" x2="3586.52" y2="2474.83" stroke-linecap="round" style="stroke:#2D6D66;stroke-width:8.64"/>
	<line x1="3586.52" y1="2474.83" x2="3597.04" y2="2475.57" stroke-linecap="round" style="stroke:#2D6D66;stroke-width:8.64"/>
	<line x1="3597.04" y1="2475.57" x2="3607.44" y2="2476.31" stroke-linecap="round" style="stroke:#2D6D66;stroke-width:8.64"/>
	<line x1="3607.44" y1="2476.31" x2="3617.95" y2="2476.93" stroke-linecap="round" style="stroke:#2D6D66;stroke-width:8.64"/>
	<line x1="3617.95" y1="2476.93" x2="3628.35" y2="2477.55" stroke-linecap="round" style="stroke:#2D6D66;stroke-width:8.64"/>
	<line x1="3628.35" y1="2477.55" x2="3638.87" y2="2478.17" stroke-linecap="round" style="stroke:#2D6D66;stroke-width:8.64"/>
	<line x1="3638.87" y1="2478.17" x2="3649.26" y2="2478.79" stroke-linecap="round" style="stroke:#2D6D66;stroke-width:8.64"/>
	<line x1="3649.26" y1="2478.79" x2="3659.78" y2="2479.28" stroke-linecap="round" style="stroke:#2D6D66;stroke-width:8.64"/>
	<line x1="3659.78" y1="2479.28" x2="3670.18" y2="2479.78" stroke-linecap="round" style="stroke:#2D6D66;stroke-width:8.64"/>
	<line x1="3670.18" y1="2479.78" x2="3680.70" y2="2480.28" stroke-linecap="round" style="stroke:#2D6D66;stroke-width:8.64"/>
	<line x1="3680.70" y1="2480.28" x2="3691.09" y2="2480.77" stroke-linecap="round" style="stroke:#2D6D66;stroke-width:8.64"/>
	<line x1="3691.09" y1="2480.77" x2="3701.61" y2="2481.27" stroke-linecap="round" style="stroke:#2D6D66;stroke-width:8.64"/>
	<line x1="3701.61" y1="2481.27" x2="3712.01" y2="2481.64" stroke-linecap="round" style="stroke:#2D6D66;stroke-width:8.64"/>
	<line x1="3712.01" y1="2481.64" x2="3722.52" y2="2482.13" stroke-linecap="round" style="stroke:#2D6D66;stroke-width:8.64"/>
	<line x1="3722.52" y1="2482.13" x2="3732.92" y2="2482.50" stroke-linecap="round" style="stroke:#2D6D66;stroke-width:8.64"/>
	<line x1="3732.92" y1="2482.50" x2="3743.44" y2="2482.87" stroke-linecap="round" style="stroke:#2D6D66;stroke-width:8.64"/>
	<line x1="3743.44" y1="2482.87" x2="3753.83" y2="2483.12" stroke-linecap="round" style="stroke:#2D6D66;stroke-width:8.64"/>
	<line x1="3753.83" y1="2483.12" x2="3764.35" y2="2483.49" stroke-linecap="round" style="stroke:#2D6D66;stroke-width:8.64"/>
	<line x1="3764.35" y1="2483.49" x2="3774.75" y2="2483.86" stroke-linecap="round" style="stroke:#2D6D66;stroke-width:8.64"/>
	<line x1="3774.75" y1="2483.86" x2="3785.26" y2="2484.11" stroke-linecap="round" style="stroke:#2D6D66;stroke-width:8.64"/>
	<line x1="3785.26" y1="2484.11" x2="3795.66" y2="2484.36" stroke-linecap="round" style="stroke:#2D6D66;stroke-width:8.64"/>
	<line x1="390.80" y1="2489.19" x2="390.80" y2="100.86" style="stroke:#000000;stroke-width:5.76"/>
	<line x1="390.80" y1="2489.19" x2="350.83" y2="2489.19" style="stroke:#000000;stroke-width:5.76"/>
	<text x="300.72" y="2489.19" style="font-family:'Helvetica';font-size:99.99px;fill:#000000" transform="rotate(-90 300.72,2489.19)" text-anchor="middle">0</text>
	<line x1="390.80" y1="2024.24" x2="350.83" y2="2024.24" style="stroke:#000000;stroke-width:5.76"/>
	<text x="300.72" y="2024.24" style="font-family:'Helvetica';font-size:99.99px;fill:#000000" transform="rotate(-90 300.72,2024.24)" text-anchor="middle">.02</text>
	<line x1="390.80" y1="1559.17" x2="350.83" y2="1559.17" style="stroke:#000000;stroke-width:5.76"/>
	<text x="300.72" y="1559.17" style="font-family:'Helvetica';font-size:99.99px;fill:#000000" transform="rotate(-90 300.72,1559.17)" text-anchor="middle">.04</text>
	<line x1="390.80" y1="1094.23" x2="350.83" y2="1094.23" style="stroke:#000000;stroke-width:5.76"/>
	<text x="300.72" y="1094.23" style="font-family:'Helvetica';font-size:99.99px;fill:#000000" transform="rotate(-90 300.72,1094.23)" text-anchor="middle">.06</text>
	<line x1="390.80" y1="629.16" x2="350.83" y2="629.16" style="stroke:#000000;stroke-width:5.76"/>
	<text x="300.72" y="629.16" style="font-family:'Helvetica';font-size:99.99px;fill:#000000" transform="rotate(-90 300.72,629.16)" text-anchor="middle">.08</text>
	<line x1="390.80" y1="164.22" x2="350.83" y2="164.22" style="stroke:#000000;stroke-width:5.76"/>
	<text x="300.72" y="164.22" style="font-family:'Helvetica';font-size:99.99px;fill:#000000" transform="rotate(-90 300.72,164.22)" text-anchor="middle">.1</text>
	<text x="190.71" y="1294.96" style="font-family:'Helvetica';font-size:99.99px;fill:#000000" transform="rotate(-90 190.71,1294.96)" text-anchor="middle">Density</text>
	<line x1="390.80" y1="2489.19" x2="3859.02" y2="2489.19" style="stroke:#000000;stroke-width:5.76"/>
	<line x1="454.16" y1="2489.19" x2="454.16" y2="2529.16" style="stroke:#000000;stroke-width:5.76"/>
	<text x="454.16" y="2619.14" style="font-family:'Helvetica';font-size:99.99px;fill:#000000" text-anchor="middle">10</text>
	<line x1="1532.03" y1="2489.19" x2="1532.03" y2="2529.16" style="stroke:#000000;stroke-width:5.76"/>
	<text x="1532.03" y="2619.14" style="font-family:'Helvetica';font-size:99.99px;fill:#000000" text-anchor="middle">20</text>
	<line x1="2610.01" y1="2489.19" x2="2610.01" y2="2529.16" style="stroke:#000000;stroke-width:5.76"/>
	<text x="2610.01" y="2619.14" style="font-family:'Helvetica';font-size:99.99px;fill:#000000" text-anchor="middle">30</text>
	<line x1="3687.87" y1="2489.19" x2="3687.87" y2="2529.16" style="stroke:#000000;stroke-width:5.76"/>
	<text x="3687.87" y="2619.14" style="font-family:'Helvetica';font-size:99.99px;fill:#000000" text-anchor="middle">40</text>
	<text x="2124.91" y="2729.16" style="font-family:'Helvetica';font-size:99.99px;fill:#000000" text-anchor="middle">Mileage (mpg)</text>
</svg>
