<?xml version="1.0" encoding="UTF-8" standalone="no"?>
<!-- This is a Stata 15.1 generated SVG file (http://www.stata.com) -->

<svg version="1.1" width="5.50in" height="4.00in" viewBox="0 0 3960 2880" xmlns="http://www.w3.org/2000/svg" xmlns:xlink="http://www.w3.org/1999/xlink">
	<desc>Stata Graph - Graph</desc>
	<rect x="0" y="0" width="3960" height="2880" style="fill:#EAF2F3;stroke:none"/>
	<rect x="0.00" y="0.00" width="3959.88" height="2880.00" style="fill:#EAF2F3"/>
	<rect x="2.88" y="2.88" width="3954.12" height="2874.24" style="fill:none;stroke:#EAF2F3;stroke-width:5.76"/>
	<rect x="390.80" y="261.37" width="3468.22" height="2227.82" style="fill:#FFFFFF"/>
	<rect x="393.68" y="264.25" width="3462.46" height="2222.06" style="fill:none;stroke:#FFFFFF;stroke-width:5.76"/>
	<line x1="390.80" y1="2425.82" x2="3859.02" y2="2425.82" style="stroke:#EAF2F3;stroke-width:8.64"/>
	<line x1="390.80" y1="1900.61" x2="3859.02" y2="1900.61" style="stroke:#EAF2F3;stroke-width:8.64"/>
	<line x1="390.80" y1="1375.28" x2="3859.02" y2="1375.28" style="stroke:#EAF2F3;stroke-width:8.64"/>
	<line x1="390.80" y1="849.94" x2="3859.02" y2="849.94" style="stroke:#EAF2F3;stroke-width:8.64"/>
	<line x1="390.80" y1="324.73" x2="3859.02" y2="324.73" style="stroke:#EAF2F3;stroke-width:8.64"/>
	<line x1="454.16" y1="1119.11" x2="454.16" y2="623.22" style="stroke:#1A476F;stroke-width:8.64"/>
	<line x1="432.13" y1="623.22" x2="476.19" y2="623.22" stroke-linecap="round" style="stroke:#1A476F;stroke-width:8.64"/>
	<line x1="432.13" y1="1119.11" x2="476.19" y2="1119.11" stroke-linecap="round" style="stroke:#1A476F;stroke-width:8.64"/>
	<line x1="1568.04" y1="1347.80" x2="1568.04" y2="995.97" style="stroke:#1A476F;stroke-width:8.64"/>
	<line x1="1546.01" y1="995.97" x2="1590.06" y2="995.97" stroke-linecap="round" style="stroke:#1A476F;stroke-width:8.64"/>
	<line x1="1546.01" y1="1347.80" x2="1590.06" y2="1347.80" stroke-linecap="round" style="stroke:#1A476F;stroke-width:8.64"/>
	<line x1="2681.91" y1="1726.74" x2="2681.91" y2="1218.48" style="stroke:#1A476F;stroke-width:8.64"/>
	<line x1="2659.88" y1="1218.48" x2="2703.94" y2="1218.48" stroke-linecap="round" style="stroke:#1A476F;stroke-width:8.64"/>
	<line x1="2659.88" y1="1726.74" x2="2703.94" y2="1726.74" stroke-linecap="round" style="stroke:#1A476F;stroke-width:8.64"/>
	<line x1="3795.66" y1="2176.34" x2="3795.66" y2="1370.33" style="stroke:#1A476F;stroke-width:8.64"/>
	<line x1="3773.63" y1="1370.33" x2="3817.69" y2="1370.33" stroke-linecap="round" style="stroke:#1A476F;stroke-width:8.64"/>
	<line x1="3773.63" y1="2176.34" x2="3817.69" y2="2176.34" stroke-linecap="round" style="stroke:#1A476F;stroke-width:8.64"/>
	<line x1="454.04" y1="871.23" x2="1567.91" y2="1171.95" stroke-linecap="round" style="stroke:#1A476F;stroke-width:8.64"/>
	<line x1="1567.91" y1="1171.95" x2="2681.79" y2="1472.67" stroke-linecap="round" style="stroke:#1A476F;stroke-width:8.64"/>
	<line x1="2681.79" y1="1472.67" x2="3795.66" y2="1773.39" stroke-linecap="round" style="stroke:#1A476F;stroke-width:8.64"/>
	<circle cx="454.04" cy="871.23" r="26.35" style="fill:#1A476F"/>
	<circle cx="454.04" cy="871.23" r="22.03" style="fill:none;stroke:#1A476F;stroke-width:8.64"/>
	<circle cx="1567.91" cy="1171.95" r="26.35" style="fill:#1A476F"/>
	<circle cx="1567.91" cy="1171.95" r="22.03" style="fill:none;stroke:#1A476F;stroke-width:8.64"/>
	<circle cx="2681.79" cy="1472.67" r="26.35" style="fill:#1A476F"/>
	<circle cx="2681.79" cy="1472.67" r="22.03" style="fill:none;stroke:#1A476F;stroke-width:8.64"/>
	<circle cx="3795.66" cy="1773.39" r="26.35" style="fill:#1A476F"/>
	<circle cx="3795.66" cy="1773.39" r="22.03" style="fill:none;stroke:#1A476F;stroke-width:8.64"/>
	<line x1="390.80" y1="2489.19" x2="390.80" y2="261.37" style="stroke:#000000;stroke-width:5.76"/>
	<line x1="390.80" y1="2425.82" x2="350.83" y2="2425.82" style="stroke:#000000;stroke-width:5.76"/>
	<text x="300.72" y="2425.82" style="font-family:'Helvetica';font-size:99.99px;fill:#000000" transform="rotate(-90 300.72,2425.82)" text-anchor="middle">-.003</text>
	<line x1="390.80" y1="1900.61" x2="350.83" y2="1900.61" style="stroke:#000000;stroke-width:5.76"/>
	<text x="300.72" y="1900.61" style="font-family:'Helvetica';font-size:99.99px;fill:#000000" transform="rotate(-90 300.72,1900.61)" text-anchor="middle">-.002</text>
	<line x1="390.80" y1="1375.28" x2="350.83" y2="1375.28" style="stroke:#000000;stroke-width:5.76"/>
	<text x="300.72" y="1375.28" style="font-family:'Helvetica';font-size:99.99px;fill:#000000" transform="rotate(-90 300.72,1375.28)" text-anchor="middle">-.001</text>
	<line x1="390.80" y1="849.94" x2="350.83" y2="849.94" style="stroke:#000000;stroke-width:5.76"/>
	<text x="300.72" y="849.94" style="font-family:'Helvetica';font-size:99.99px;fill:#000000" transform="rotate(-90 300.72,849.94)" text-anchor="middle">0</text>
	<line x1="390.80" y1="324.73" x2="350.83" y2="324.73" style="stroke:#000000;stroke-width:5.76"/>
	<text x="300.72" y="324.73" style="font-family:'Helvetica';font-size:99.99px;fill:#000000" transform="rotate(-90 300.72,324.73)" text-anchor="middle">.001</text>
	<text x="190.71" y="1375.28" style="font-family:'Helvetica';font-size:99.99px;fill:#000000" transform="rotate(-90 190.71,1375.28)" text-anchor="middle">Effects on Linear Prediction</text>
	<line x1="390.80" y1="2489.19" x2="3859.02" y2="2489.19" style="stroke:#000000;stroke-width:5.76"/>
	<line x1="454.16" y1="2489.19" x2="454.16" y2="2529.16" style="stroke:#000000;stroke-width:5.76"/>
	<text x="454.16" y="2619.14" style="font-family:'Helvetica';font-size:99.99px;fill:#000000" text-anchor="middle">2.25</text>
	<line x1="1568.04" y1="2489.19" x2="1568.04" y2="2529.16" style="stroke:#000000;stroke-width:5.76"/>
	<text x="1568.04" y="2619.14" style="font-family:'Helvetica';font-size:99.99px;fill:#000000" text-anchor="middle">2.75</text>
	<line x1="2681.91" y1="2489.19" x2="2681.91" y2="2529.16" style="stroke:#000000;stroke-width:5.76"/>
	<text x="2681.91" y="2619.14" style="font-family:'Helvetica';font-size:99.99px;fill:#000000" text-anchor="middle">3.25</text>
	<line x1="3795.66" y1="2489.19" x2="3795.66" y2="2529.16" style="stroke:#000000;stroke-width:5.76"/>
	<text x="3795.66" y="2619.14" style="font-family:'Helvetica';font-size:99.99px;fill:#000000" text-anchor="middle">3.75</text>
	<text x="2124.91" y="2729.16" style="font-family:'Helvetica';font-size:99.99px;fill:#000000" text-anchor="middle">Gear Ratio</text>
	<text x="1979.88" y="206.19" style="font-family:'Helvetica';font-size:125.98px;fill:#1E2D53" text-anchor="middle">Average Marginal Effects of price with 95% CIs</text>
</svg>
