<?xml version="1.0" encoding="UTF-8" standalone="no"?>
<!-- This is a Stata 15.0 generated SVG file (http://www.stata.com) -->

<svg version="1.1" width="5.50in" height="4.00in" viewBox="0 0 3960 2880" xmlns="http://www.w3.org/2000/svg" xmlns:xlink="http://www.w3.org/1999/xlink">
	<desc>Stata Graph - Graph</desc>
	<rect x="0" y="0" width="3960" height="2880" style="fill:#EAF2F3;stroke:none"/>
	<rect x="0.00" y="0.00" width="3959.88" height="2880.00" style="fill:#EAF2F3"/>
	<rect x="2.88" y="2.88" width="3954.12" height="2874.24" style="fill:none;stroke:#EAF2F3;stroke-width:5.76"/>
	<rect x="290.81" y="100.86" width="3568.21" height="1992.81" style="fill:#FFFFFF"/>
	<rect x="293.69" y="103.74" width="3562.45" height="1987.05" style="fill:none;stroke:#FFFFFF;stroke-width:5.76"/>
	<line x1="290.81" y1="2030.31" x2="3859.02" y2="2030.31" style="stroke:#EAF2F3;stroke-width:8.64"/>
	<line x1="290.81" y1="1428.37" x2="3859.02" y2="1428.37" style="stroke:#EAF2F3;stroke-width:8.64"/>
	<line x1="290.81" y1="826.30" x2="3859.02" y2="826.30" style="stroke:#EAF2F3;stroke-width:8.64"/>
	<line x1="290.81" y1="224.37" x2="3859.02" y2="224.37" style="stroke:#EAF2F3;stroke-width:8.64"/>
	<circle cx="1596.87" cy="1307.95" r="26.35" style="fill:#1A476F"/>
	<circle cx="1596.87" cy="1307.95" r="22.03" style="fill:none;stroke:#1A476F;stroke-width:8.64"/>
	<circle cx="2042.99" cy="1609.05" r="26.35" style="fill:#1A476F"/>
	<circle cx="2042.99" cy="1609.05" r="22.03" style="fill:none;stroke:#1A476F;stroke-width:8.64"/>
	<circle cx="1288.86" cy="1307.95" r="26.35" style="fill:#1A476F"/>
	<circle cx="1288.86" cy="1307.95" r="22.03" style="fill:none;stroke:#1A476F;stroke-width:8.64"/>
	<circle cx="1936.81" cy="1428.37" r="26.35" style="fill:#1A476F"/>
	<circle cx="1936.81" cy="1428.37" r="22.03" style="fill:none;stroke:#1A476F;stroke-width:8.64"/>
	<circle cx="2818.41" cy="1729.34" r="26.35" style="fill:#1A476F"/>
	<circle cx="2818.41" cy="1729.34" r="22.03" style="fill:none;stroke:#1A476F;stroke-width:8.64"/>
	<circle cx="2382.93" cy="1548.78" r="26.35" style="fill:#1A476F"/>
	<circle cx="2382.93" cy="1548.78" r="22.03" style="fill:none;stroke:#1A476F;stroke-width:8.64"/>
	<circle cx="853.38" cy="1067.25" r="26.35" style="fill:#1A476F"/>
	<circle cx="853.38" cy="1067.25" r="22.03" style="fill:none;stroke:#1A476F;stroke-width:8.64"/>
	<circle cx="1968.62" cy="1428.37" r="26.35" style="fill:#1A476F"/>
	<circle cx="1968.62" cy="1428.37" r="22.03" style="fill:none;stroke:#1A476F;stroke-width:8.64"/>
	<circle cx="2605.93" cy="1669.19" r="26.35" style="fill:#1A476F"/>
	<circle cx="2605.93" cy="1669.19" r="22.03" style="fill:none;stroke:#1A476F;stroke-width:8.64"/>
	<circle cx="2096.08" cy="1488.64" r="26.35" style="fill:#1A476F"/>
	<circle cx="2096.08" cy="1488.64" r="22.03" style="fill:none;stroke:#1A476F;stroke-width:8.64"/>
	<circle cx="3083.97" cy="1789.60" r="26.35" style="fill:#1A476F"/>
	<circle cx="3083.97" cy="1789.60" r="22.03" style="fill:none;stroke:#1A476F;stroke-width:8.64"/>
	<circle cx="2627.21" cy="1789.60" r="26.35" style="fill:#1A476F"/>
	<circle cx="2627.21" cy="1789.60" r="22.03" style="fill:none;stroke:#1A476F;stroke-width:8.64"/>
	<circle cx="3041.53" cy="1368.22" r="26.35" style="fill:#1A476F"/>
	<circle cx="3041.53" cy="1368.22" r="22.03" style="fill:none;stroke:#1A476F;stroke-width:8.64"/>
	<circle cx="725.92" cy="886.57" r="26.35" style="fill:#1A476F"/>
	<circle cx="725.92" cy="886.57" r="22.03" style="fill:none;stroke:#1A476F;stroke-width:8.64"/>
	<circle cx="2404.22" cy="1669.19" r="26.35" style="fill:#1A476F"/>
	<circle cx="2404.22" cy="1669.19" r="22.03" style="fill:none;stroke:#1A476F;stroke-width:8.64"/>
	<circle cx="1862.44" cy="1307.95" r="26.35" style="fill:#1A476F"/>
	<circle cx="1862.44" cy="1307.95" r="22.03" style="fill:none;stroke:#1A476F;stroke-width:8.64"/>
	<circle cx="1904.88" cy="1307.95" r="26.35" style="fill:#1A476F"/>
	<circle cx="1904.88" cy="1307.95" r="22.03" style="fill:none;stroke:#1A476F;stroke-width:8.64"/>
	<circle cx="1405.68" cy="1187.67" r="26.35" style="fill:#1A476F"/>
	<circle cx="1405.68" cy="1187.67" r="22.03" style="fill:none;stroke:#1A476F;stroke-width:8.64"/>
	<circle cx="2128.01" cy="1488.64" r="26.35" style="fill:#1A476F"/>
	<circle cx="2128.01" cy="1488.64" r="22.03" style="fill:none;stroke:#1A476F;stroke-width:8.64"/>
	<circle cx="736.44" cy="826.43" r="26.35" style="fill:#1A476F"/>
	<circle cx="736.44" cy="826.43" r="22.03" style="fill:none;stroke:#1A476F;stroke-width:8.64"/>
	<circle cx="2308.56" cy="1548.78" r="26.35" style="fill:#1A476F"/>
	<circle cx="2308.56" cy="1548.78" r="22.03" style="fill:none;stroke:#1A476F;stroke-width:8.64"/>
	<circle cx="2308.56" cy="1669.19" r="26.35" style="fill:#1A476F"/>
	<circle cx="2308.56" cy="1669.19" r="22.03" style="fill:none;stroke:#1A476F;stroke-width:8.64"/>
	<circle cx="2457.30" cy="1609.05" r="26.35" style="fill:#1A476F"/>
	<circle cx="2457.30" cy="1609.05" r="22.03" style="fill:none;stroke:#1A476F;stroke-width:8.64"/>
	<circle cx="396.62" cy="946.84" r="26.35" style="fill:#1A476F"/>
	<circle cx="396.62" cy="946.84" r="22.03" style="fill:none;stroke:#1A476F;stroke-width:8.64"/>
	<circle cx="1299.50" cy="1368.22" r="26.35" style="fill:#1A476F"/>
	<circle cx="1299.50" cy="1368.22" r="22.03" style="fill:none;stroke:#1A476F;stroke-width:8.64"/>
	<circle cx="3625.75" cy="1910.02" r="26.35" style="fill:#1A476F"/>
	<circle cx="3625.75" cy="1910.02" r="22.03" style="fill:none;stroke:#1A476F;stroke-width:8.64"/>
	<circle cx="3498.29" cy="1910.02" r="26.35" style="fill:#1A476F"/>
	<circle cx="3498.29" cy="1910.02" r="22.03" style="fill:none;stroke:#1A476F;stroke-width:8.64"/>
	<circle cx="2552.84" cy="1789.60" r="26.35" style="fill:#1A476F"/>
	<circle cx="2552.84" cy="1789.60" r="22.03" style="fill:none;stroke:#1A476F;stroke-width:8.64"/>
	<circle cx="1225.12" cy="1307.95" r="26.35" style="fill:#1A476F"/>
	<circle cx="1225.12" cy="1307.95" r="22.03" style="fill:none;stroke:#1A476F;stroke-width:8.64"/>
	<circle cx="2797.12" cy="1789.60" r="26.35" style="fill:#1A476F"/>
	<circle cx="2797.12" cy="1789.60" r="22.03" style="fill:none;stroke:#1A476F;stroke-width:8.64"/>
	<circle cx="2436.02" cy="1729.34" r="26.35" style="fill:#1A476F"/>
	<circle cx="2436.02" cy="1729.34" r="22.03" style="fill:none;stroke:#1A476F;stroke-width:8.64"/>
	<circle cx="2064.27" cy="1548.78" r="26.35" style="fill:#1A476F"/>
	<circle cx="2064.27" cy="1548.78" r="22.03" style="fill:none;stroke:#1A476F;stroke-width:8.64"/>
	<circle cx="2871.49" cy="1789.60" r="26.35" style="fill:#1A476F"/>
	<circle cx="2871.49" cy="1789.60" r="22.03" style="fill:none;stroke:#1A476F;stroke-width:8.64"/>
	<circle cx="1490.69" cy="1428.37" r="26.35" style="fill:#1A476F"/>
	<circle cx="1490.69" cy="1428.37" r="22.03" style="fill:none;stroke:#1A476F;stroke-width:8.64"/>
	<circle cx="2797.12" cy="1368.22" r="26.35" style="fill:#1A476F"/>
	<circle cx="2797.12" cy="1368.22" r="22.03" style="fill:none;stroke:#1A476F;stroke-width:8.64"/>
	<circle cx="2000.54" cy="1488.64" r="26.35" style="fill:#1A476F"/>
	<circle cx="2000.54" cy="1488.64" r="22.03" style="fill:none;stroke:#1A476F;stroke-width:8.64"/>
	<circle cx="1989.90" cy="1488.64" r="26.35" style="fill:#1A476F"/>
	<circle cx="1989.90" cy="1488.64" r="22.03" style="fill:none;stroke:#1A476F;stroke-width:8.64"/>
	<circle cx="2404.22" cy="1548.78" r="26.35" style="fill:#1A476F"/>
	<circle cx="2404.22" cy="1548.78" r="22.03" style="fill:none;stroke:#1A476F;stroke-width:8.64"/>
	<circle cx="2064.27" cy="1488.64" r="26.35" style="fill:#1A476F"/>
	<circle cx="2064.27" cy="1488.64" r="22.03" style="fill:none;stroke:#1A476F;stroke-width:8.64"/>
	<circle cx="1384.39" cy="1187.67" r="26.35" style="fill:#1A476F"/>
	<circle cx="1384.39" cy="1187.67" r="22.03" style="fill:none;stroke:#1A476F;stroke-width:8.64"/>
	<circle cx="2765.32" cy="1669.19" r="26.35" style="fill:#1A476F"/>
	<circle cx="2765.32" cy="1669.19" r="22.03" style="fill:none;stroke:#1A476F;stroke-width:8.64"/>
	<circle cx="1947.45" cy="946.84" r="26.35" style="fill:#1A476F"/>
	<circle cx="1947.45" cy="946.84" r="22.03" style="fill:none;stroke:#1A476F;stroke-width:8.64"/>
	<circle cx="396.62" cy="585.60" r="26.35" style="fill:#1A476F"/>
	<circle cx="396.62" cy="585.60" r="22.03" style="fill:none;stroke:#1A476F;stroke-width:8.64"/>
	<circle cx="821.45" cy="1127.40" r="26.35" style="fill:#1A476F"/>
	<circle cx="821.45" cy="1127.40" r="22.03" style="fill:none;stroke:#1A476F;stroke-width:8.64"/>
	<circle cx="1161.39" cy="1067.25" r="26.35" style="fill:#1A476F"/>
	<circle cx="1161.39" cy="1067.25" r="22.03" style="fill:none;stroke:#1A476F;stroke-width:8.64"/>
	<circle cx="2021.70" cy="1548.78" r="26.35" style="fill:#1A476F"/>
	<circle cx="2021.70" cy="1548.78" r="22.03" style="fill:none;stroke:#1A476F;stroke-width:8.64"/>
	<circle cx="2414.73" cy="1548.78" r="26.35" style="fill:#1A476F"/>
	<circle cx="2414.73" cy="1548.78" r="22.03" style="fill:none;stroke:#1A476F;stroke-width:8.64"/>
	<circle cx="2170.45" cy="1548.78" r="26.35" style="fill:#1A476F"/>
	<circle cx="2170.45" cy="1548.78" r="22.03" style="fill:none;stroke:#1A476F;stroke-width:8.64"/>
	<circle cx="1894.24" cy="1488.64" r="26.35" style="fill:#1A476F"/>
	<circle cx="1894.24" cy="1488.64" r="22.03" style="fill:none;stroke:#1A476F;stroke-width:8.64"/>
	<circle cx="1883.72" cy="1488.64" r="26.35" style="fill:#1A476F"/>
	<circle cx="1883.72" cy="1488.64" r="22.03" style="fill:none;stroke:#1A476F;stroke-width:8.64"/>
	<circle cx="2117.36" cy="1488.64" r="26.35" style="fill:#1A476F"/>
	<circle cx="2117.36" cy="1488.64" r="22.03" style="fill:none;stroke:#1A476F;stroke-width:8.64"/>
	<circle cx="1341.94" cy="1187.67" r="26.35" style="fill:#1A476F"/>
	<circle cx="1341.94" cy="1187.67" r="22.03" style="fill:none;stroke:#1A476F;stroke-width:8.64"/>
	<circle cx="1490.69" cy="1609.05" r="26.35" style="fill:#90353B"/>
	<circle cx="1490.69" cy="1609.05" r="22.03" style="fill:none;stroke:#90353B;stroke-width:8.64"/>
	<circle cx="683.35" cy="1247.81" r="26.35" style="fill:#90353B"/>
	<circle cx="683.35" cy="1247.81" r="22.03" style="fill:none;stroke:#90353B;stroke-width:8.64"/>
	<circle cx="1299.50" cy="1127.40" r="26.35" style="fill:#90353B"/>
	<circle cx="1299.50" cy="1127.40" r="22.03" style="fill:none;stroke:#90353B;stroke-width:8.64"/>
	<circle cx="1002.00" cy="1247.81" r="26.35" style="fill:#90353B"/>
	<circle cx="1002.00" cy="1247.81" r="22.03" style="fill:none;stroke:#90353B;stroke-width:8.64"/>
	<circle cx="630.26" cy="525.46" r="26.35" style="fill:#90353B"/>
	<circle cx="630.26" cy="525.46" r="22.03" style="fill:none;stroke:#90353B;stroke-width:8.64"/>
	<circle cx="906.47" cy="1187.67" r="26.35" style="fill:#90353B"/>
	<circle cx="906.47" cy="1187.67" r="22.03" style="fill:none;stroke:#90353B;stroke-width:8.64"/>
	<circle cx="1405.68" cy="1368.22" r="26.35" style="fill:#90353B"/>
	<circle cx="1405.68" cy="1368.22" r="22.03" style="fill:none;stroke:#90353B;stroke-width:8.64"/>
	<circle cx="747.08" cy="1368.22" r="26.35" style="fill:#90353B"/>
	<circle cx="747.08" cy="1368.22" r="22.03" style="fill:none;stroke:#90353B;stroke-width:8.64"/>
	<circle cx="863.90" cy="1127.40" r="26.35" style="fill:#90353B"/>
	<circle cx="863.90" cy="1127.40" r="22.03" style="fill:none;stroke:#90353B;stroke-width:8.64"/>
	<circle cx="354.05" cy="946.84" r="26.35" style="fill:#90353B"/>
	<circle cx="354.05" cy="946.84" r="22.03" style="fill:none;stroke:#90353B;stroke-width:8.64"/>
	<circle cx="587.81" cy="826.43" r="26.35" style="fill:#90353B"/>
	<circle cx="587.81" cy="826.43" r="22.03" style="fill:none;stroke:#90353B;stroke-width:8.64"/>
	<circle cx="2117.36" cy="1789.60" r="26.35" style="fill:#90353B"/>
	<circle cx="2117.36" cy="1789.60" r="22.03" style="fill:none;stroke:#90353B;stroke-width:8.64"/>
	<circle cx="428.42" cy="1067.25" r="26.35" style="fill:#90353B"/>
	<circle cx="428.42" cy="1067.25" r="22.03" style="fill:none;stroke:#90353B;stroke-width:8.64"/>
	<circle cx="662.06" cy="525.46" r="26.35" style="fill:#90353B"/>
	<circle cx="662.06" cy="525.46" r="22.03" style="fill:none;stroke:#90353B;stroke-width:8.64"/>
	<circle cx="1044.57" cy="1548.78" r="26.35" style="fill:#90353B"/>
	<circle cx="1044.57" cy="1548.78" r="22.03" style="fill:none;stroke:#90353B;stroke-width:8.64"/>
	<circle cx="821.45" cy="766.16" r="26.35" style="fill:#90353B"/>
	<circle cx="821.45" cy="766.16" r="22.03" style="fill:none;stroke:#90353B;stroke-width:8.64"/>
	<circle cx="1320.66" cy="1548.78" r="26.35" style="fill:#90353B"/>
	<circle cx="1320.66" cy="1548.78" r="22.03" style="fill:none;stroke:#90353B;stroke-width:8.64"/>
	<circle cx="779.01" cy="1247.81" r="26.35" style="fill:#90353B"/>
	<circle cx="779.01" cy="1247.81" r="22.03" style="fill:none;stroke:#90353B;stroke-width:8.64"/>
	<circle cx="651.54" cy="164.22" r="26.35" style="fill:#90353B"/>
	<circle cx="651.54" cy="164.22" r="22.03" style="fill:none;stroke:#90353B;stroke-width:8.64"/>
	<circle cx="534.60" cy="1127.40" r="26.35" style="fill:#90353B"/>
	<circle cx="534.60" cy="1127.40" r="22.03" style="fill:none;stroke:#90353B;stroke-width:8.64"/>
	<circle cx="598.33" cy="1127.40" r="26.35" style="fill:#90353B"/>
	<circle cx="598.33" cy="1127.40" r="22.03" style="fill:none;stroke:#90353B;stroke-width:8.64"/>
	<circle cx="1851.80" cy="1609.05" r="26.35" style="fill:#90353B"/>
	<circle cx="1851.80" cy="1609.05" r="22.03" style="fill:none;stroke:#90353B;stroke-width:8.64"/>
	<line x1="396.62" y1="893.13" x2="2011.18" y2="1439.88" stroke-linecap="round" style="stroke:#55752F;stroke-width:8.64"/>
	<line x1="2011.18" y1="1439.88" x2="3625.75" y2="1986.62" stroke-linecap="round" style="stroke:#55752F;stroke-width:8.64"/>
	<line x1="354.05" y1="792.15" x2="1235.77" y2="1313.15" stroke-linecap="round" style="stroke:#E37E00;stroke-width:8.64"/>
	<line x1="1235.77" y1="1313.15" x2="2117.36" y2="1834.03" stroke-linecap="round" style="stroke:#E37E00;stroke-width:8.64"/>
	<line x1="290.81" y1="2093.67" x2="290.81" y2="100.86" style="stroke:#000000;stroke-width:5.76"/>
	<line x1="290.81" y1="2030.31" x2="250.84" y2="2030.31" style="stroke:#000000;stroke-width:5.76"/>
	<text x="200.73" y="2030.31" style="font-family:'Helvetica';font-size:99.99px;fill:#000000" transform="rotate(-90 200.73,2030.31)" text-anchor="middle">10</text>
	<line x1="290.81" y1="1428.37" x2="250.84" y2="1428.37" style="stroke:#000000;stroke-width:5.76"/>
	<text x="200.73" y="1428.37" style="font-family:'Helvetica';font-size:99.99px;fill:#000000" transform="rotate(-90 200.73,1428.37)" text-anchor="middle">20</text>
	<line x1="290.81" y1="826.30" x2="250.84" y2="826.30" style="stroke:#000000;stroke-width:5.76"/>
	<text x="200.73" y="826.30" style="font-family:'Helvetica';font-size:99.99px;fill:#000000" transform="rotate(-90 200.73,826.30)" text-anchor="middle">30</text>
	<line x1="290.81" y1="224.37" x2="250.84" y2="224.37" style="stroke:#000000;stroke-width:5.76"/>
	<text x="200.73" y="224.37" style="font-family:'Helvetica';font-size:99.99px;fill:#000000" transform="rotate(-90 200.73,224.37)" text-anchor="middle">40</text>
	<line x1="290.81" y1="2093.67" x2="3859.02" y2="2093.67" style="stroke:#000000;stroke-width:5.76"/>
	<line x1="609.10" y1="2093.67" x2="609.10" y2="2133.64" style="stroke:#000000;stroke-width:5.76"/>
	<text x="609.10" y="2223.62" style="font-family:'Helvetica';font-size:99.99px;fill:#000000" text-anchor="middle">2,000</text>
	<line x1="1671.24" y1="2093.67" x2="1671.24" y2="2133.64" style="stroke:#000000;stroke-width:5.76"/>
	<text x="1671.24" y="2223.62" style="font-family:'Helvetica';font-size:99.99px;fill:#000000" text-anchor="middle">3,000</text>
	<line x1="2733.51" y1="2093.67" x2="2733.51" y2="2133.64" style="stroke:#000000;stroke-width:5.76"/>
	<text x="2733.51" y="2223.62" style="font-family:'Helvetica';font-size:99.99px;fill:#000000" text-anchor="middle">4,000</text>
	<line x1="3795.66" y1="2093.67" x2="3795.66" y2="2133.64" style="stroke:#000000;stroke-width:5.76"/>
	<text x="3795.66" y="2223.62" style="font-family:'Helvetica';font-size:99.99px;fill:#000000" text-anchor="middle">5,000</text>
	<text x="2074.92" y="2333.64" style="font-family:'Helvetica';font-size:99.99px;fill:#000000" text-anchor="middle">Weight (lbs.)</text>
	<rect x="875.28" y="2418.27" width="2399.26" height="326.34" style="fill:#FFFFFF"/>
	<rect x="878.16" y="2421.15" width="2393.51" height="320.58" style="fill:none;stroke:#000000;stroke-width:5.76"/>
	<circle cx="1105.71" cy="2511.46" r="26.35" style="fill:#1A476F"/>
	<circle cx="1105.71" cy="2511.46" r="22.03" style="fill:none;stroke:#1A476F;stroke-width:8.64"/>
	<circle cx="2332.07" cy="2511.46" r="26.35" style="fill:#90353B"/>
	<circle cx="2332.07" cy="2511.46" r="22.03" style="fill:none;stroke:#90353B;stroke-width:8.64"/>
	<line x1="918.47" y1="2651.43" x2="1292.94" y2="2651.43" style="stroke:#55752F;stroke-width:8.64"/>
	<line x1="2144.96" y1="2651.43" x2="2519.30" y2="2651.43" style="stroke:#E37E00;stroke-width:8.64"/>
	<text x="1352.96" y="2546.49" style="font-family:'Helvetica';font-size:99.99px;fill:#000000">Mileage (mpg)</text>
	<text x="2579.32" y="2546.49" style="font-family:'Helvetica';font-size:99.99px;fill:#000000">Mileage (mpg)</text>
	<text x="1352.96" y="2686.46" style="font-family:'Helvetica';font-size:99.99px;fill:#000000">Fitted values</text>
	<text x="2579.32" y="2686.46" style="font-family:'Helvetica';font-size:99.99px;fill:#000000">Fitted values</text>
</svg>
