<?xml version="1.0" encoding="UTF-8" standalone="no"?>
<!-- This is a Stata 15.1 generated SVG file (http://www.stata.com) -->

<svg version="1.1" width="5.50in" height="4.00in" viewBox="0 0 3960 2880" xmlns="http://www.w3.org/2000/svg" xmlns:xlink="http://www.w3.org/1999/xlink">
	<desc>Stata Graph - Graph</desc>
	<rect x="0" y="0" width="3960" height="2880" style="fill:#EAF2F3;stroke:none"/>
	<rect x="0.00" y="0.00" width="3959.88" height="2880.00" style="fill:#EAF2F3"/>
	<rect x="2.88" y="2.88" width="3954.12" height="2874.24" style="fill:none;stroke:#EAF2F3;stroke-width:5.76"/>
	<rect x="390.80" y="100.86" width="3468.22" height="2388.33" style="fill:#FFFFFF"/>
	<rect x="393.68" y="103.74" width="3462.46" height="2382.57" style="fill:none;stroke:#FFFFFF;stroke-width:5.76"/>
	<line x1="390.80" y1="2489.19" x2="3859.02" y2="2489.19" style="stroke:#EAF2F3;stroke-width:8.64"/>
	<line x1="390.80" y1="1907.91" x2="3859.02" y2="1907.91" style="stroke:#EAF2F3;stroke-width:8.64"/>
	<line x1="390.80" y1="1326.64" x2="3859.02" y2="1326.64" style="stroke:#EAF2F3;stroke-width:8.64"/>
	<line x1="390.80" y1="745.37" x2="3859.02" y2="745.37" style="stroke:#EAF2F3;stroke-width:8.64"/>
	<line x1="390.80" y1="164.22" x2="3859.02" y2="164.22" style="stroke:#EAF2F3;stroke-width:8.64"/>
	<rect x="558.61" y="1001.29" width="85.14" height="1487.89" style="fill:#CAC27E"/>
	<rect x="562.93" y="1005.61" width="76.50" height="1479.25" style="fill:none;stroke:#D7D29E;stroke-width:8.64"/>
	<rect x="643.75" y="1233.58" width="85.14" height="1255.61" style="fill:#CAC27E"/>
	<rect x="648.07" y="1237.90" width="76.50" height="1246.97" style="fill:none;stroke:#D7D29E;stroke-width:8.64"/>
	<rect x="728.89" y="981.49" width="85.26" height="1507.69" style="fill:#CAC27E"/>
	<rect x="733.21" y="985.81" width="76.62" height="1499.05" style="fill:none;stroke:#D7D29E;stroke-width:8.64"/>
	<rect x="814.15" y="1090.27" width="85.14" height="1398.91" style="fill:#CAC27E"/>
	<rect x="818.47" y="1094.59" width="76.50" height="1390.27" style="fill:none;stroke:#D7D29E;stroke-width:8.64"/>
	<rect x="899.29" y="1055.62" width="85.26" height="1433.56" style="fill:#CAC27E"/>
	<rect x="903.61" y="1059.94" width="76.62" height="1424.93" style="fill:none;stroke:#D7D29E;stroke-width:8.64"/>
	<rect x="1069.69" y="1194.10" width="85.14" height="1295.08" style="fill:#CAC27E"/>
	<rect x="1074.01" y="1198.42" width="76.50" height="1286.44" style="fill:none;stroke:#D7D29E;stroke-width:8.64"/>
	<rect x="1154.84" y="976.54" width="85.26" height="1512.64" style="fill:#CAC27E"/>
	<rect x="1159.15" y="980.86" width="76.62" height="1504.00" style="fill:none;stroke:#D7D29E;stroke-width:8.64"/>
	<rect x="1240.10" y="1035.94" width="85.14" height="1453.24" style="fill:#CAC27E"/>
	<rect x="1244.42" y="1040.26" width="76.50" height="1444.60" style="fill:none;stroke:#D7D29E;stroke-width:8.64"/>
	<rect x="1325.24" y="1050.79" width="85.26" height="1438.39" style="fill:#CAC27E"/>
	<rect x="1329.56" y="1055.11" width="76.62" height="1429.75" style="fill:none;stroke:#D7D29E;stroke-width:8.64"/>
	<rect x="1495.64" y="1179.25" width="85.14" height="1309.93" style="fill:#CAC27E"/>
	<rect x="1499.96" y="1183.57" width="76.50" height="1301.29" style="fill:none;stroke:#D7D29E;stroke-width:8.64"/>
	<rect x="1580.78" y="1085.32" width="85.26" height="1403.86" style="fill:#CAC27E"/>
	<rect x="1585.10" y="1089.64" width="76.62" height="1395.22" style="fill:none;stroke:#D7D29E;stroke-width:8.64"/>
	<rect x="1666.05" y="1273.18" width="85.14" height="1216.01" style="fill:#CAC27E"/>
	<rect x="1670.37" y="1277.50" width="76.50" height="1207.37" style="fill:none;stroke:#D7D29E;stroke-width:8.64"/>
	<rect x="1751.19" y="1204.00" width="85.26" height="1285.18" style="fill:#CAC27E"/>
	<rect x="1755.51" y="1208.32" width="76.62" height="1276.54" style="fill:none;stroke:#D7D29E;stroke-width:8.64"/>
	<rect x="1836.45" y="1263.28" width="85.14" height="1225.91" style="fill:#CAC27E"/>
	<rect x="1840.77" y="1267.60" width="76.50" height="1217.27" style="fill:none;stroke:#D7D29E;stroke-width:8.64"/>
	<rect x="2006.73" y="1253.38" width="85.26" height="1235.81" style="fill:#CAC27E"/>
	<rect x="2011.05" y="1257.70" width="76.62" height="1227.17" style="fill:none;stroke:#D7D29E;stroke-width:8.64"/>
	<rect x="2091.99" y="1297.93" width="85.14" height="1191.25" style="fill:#CAC27E"/>
	<rect x="2096.31" y="1302.25" width="76.50" height="1182.61" style="fill:none;stroke:#D7D29E;stroke-width:8.64"/>
	<rect x="2177.13" y="1357.21" width="85.14" height="1131.98" style="fill:#CAC27E"/>
	<rect x="2181.45" y="1361.53" width="76.50" height="1123.34" style="fill:none;stroke:#D7D29E;stroke-width:8.64"/>
	<rect x="2262.27" y="1431.34" width="85.26" height="1057.85" style="fill:#CAC27E"/>
	<rect x="2266.59" y="1435.66" width="76.62" height="1049.21" style="fill:none;stroke:#D7D29E;stroke-width:8.64"/>
	<rect x="2432.68" y="1431.34" width="85.26" height="1057.85" style="fill:#CAC27E"/>
	<rect x="2437.00" y="1435.66" width="76.62" height="1049.21" style="fill:none;stroke:#D7D29E;stroke-width:8.64"/>
	<rect x="2517.94" y="1505.47" width="85.14" height="983.72" style="fill:#CAC27E"/>
	<rect x="2522.26" y="1509.79" width="76.50" height="975.08" style="fill:none;stroke:#D7D29E;stroke-width:8.64"/>
	<rect x="2603.08" y="1698.27" width="85.14" height="790.91" style="fill:#CAC27E"/>
	<rect x="2607.40" y="1702.59" width="76.50" height="782.27" style="fill:none;stroke:#D7D29E;stroke-width:8.64"/>
	<rect x="2688.22" y="1545.07" width="85.26" height="944.12" style="fill:#CAC27E"/>
	<rect x="2692.54" y="1549.39" width="76.62" height="935.48" style="fill:none;stroke:#D7D29E;stroke-width:8.64"/>
	<rect x="2773.49" y="1639.00" width="85.14" height="850.19" style="fill:#CAC27E"/>
	<rect x="2777.80" y="1643.32" width="76.50" height="841.55" style="fill:none;stroke:#D7D29E;stroke-width:8.64"/>
	<rect x="2943.89" y="1609.30" width="85.14" height="879.89" style="fill:#CAC27E"/>
	<rect x="2948.21" y="1613.62" width="76.50" height="871.25" style="fill:none;stroke:#D7D29E;stroke-width:8.64"/>
	<rect x="3029.03" y="1802.10" width="85.14" height="687.08" style="fill:#CAC27E"/>
	<rect x="3033.35" y="1806.42" width="76.50" height="678.44" style="fill:none;stroke:#D7D29E;stroke-width:8.64"/>
	<rect x="3114.17" y="1812.00" width="85.26" height="677.18" style="fill:#CAC27E"/>
	<rect x="3118.49" y="1816.32" width="76.62" height="668.54" style="fill:none;stroke:#D7D29E;stroke-width:8.64"/>
	<rect x="3199.43" y="1905.93" width="85.14" height="583.25" style="fill:#CAC27E"/>
	<rect x="3203.75" y="1910.25" width="76.50" height="574.61" style="fill:none;stroke:#D7D29E;stroke-width:8.64"/>
	<rect x="3369.84" y="1910.88" width="85.14" height="578.30" style="fill:#CAC27E"/>
	<rect x="3374.16" y="1915.20" width="76.50" height="569.66" style="fill:none;stroke:#D7D29E;stroke-width:8.64"/>
	<rect x="3454.98" y="1930.68" width="85.14" height="558.50" style="fill:#CAC27E"/>
	<rect x="3459.30" y="1935.00" width="76.50" height="549.86" style="fill:none;stroke:#D7D29E;stroke-width:8.64"/>
	<rect x="3540.12" y="1955.31" width="85.26" height="533.87" style="fill:#CAC27E"/>
	<rect x="3544.44" y="1959.63" width="76.62" height="525.23" style="fill:none;stroke:#D7D29E;stroke-width:8.64"/>
	<rect x="3625.38" y="2019.66" width="85.14" height="469.52" style="fill:#CAC27E"/>
	<rect x="3629.70" y="2023.98" width="76.50" height="460.88" style="fill:none;stroke:#D7D29E;stroke-width:8.64"/>
	<rect x="3710.52" y="299.36" width="85.14" height="2189.82" style="fill:#CAC27E"/>
	<rect x="3714.84" y="303.68" width="76.50" height="2181.18" style="fill:none;stroke:#D7D29E;stroke-width:8.64"/>
	<line x1="390.80" y1="2489.19" x2="390.80" y2="100.86" style="stroke:#000000;stroke-width:5.76"/>
	<line x1="390.80" y1="2489.19" x2="350.83" y2="2489.19" style="stroke:#000000;stroke-width:5.76"/>
	<text x="300.72" y="2489.19" style="font-family:'Helvetica';font-size:99.99px;fill:#000000" transform="rotate(-90 300.72,2489.19)" text-anchor="middle">0</text>
	<line x1="390.80" y1="1907.91" x2="350.83" y2="1907.91" style="stroke:#000000;stroke-width:5.76"/>
	<text x="300.72" y="1907.91" style="font-family:'Helvetica';font-size:99.99px;fill:#000000" transform="rotate(-90 300.72,1907.91)" text-anchor="middle">.02</text>
	<line x1="390.80" y1="1326.64" x2="350.83" y2="1326.64" style="stroke:#000000;stroke-width:5.76"/>
	<text x="300.72" y="1326.64" style="font-family:'Helvetica';font-size:99.99px;fill:#000000" transform="rotate(-90 300.72,1326.64)" text-anchor="middle">.04</text>
	<line x1="390.80" y1="745.37" x2="350.83" y2="745.37" style="stroke:#000000;stroke-width:5.76"/>
	<text x="300.72" y="745.37" style="font-family:'Helvetica';font-size:99.99px;fill:#000000" transform="rotate(-90 300.72,745.37)" text-anchor="middle">.06</text>
	<line x1="390.80" y1="164.22" x2="350.83" y2="164.22" style="stroke:#000000;stroke-width:5.76"/>
	<text x="300.72" y="164.22" style="font-family:'Helvetica';font-size:99.99px;fill:#000000" transform="rotate(-90 300.72,164.22)" text-anchor="middle">.08</text>
	<text x="190.71" y="1294.96" style="font-family:'Helvetica';font-size:99.99px;fill:#000000" transform="rotate(-90 190.71,1294.96)" text-anchor="middle">Density</text>
	<line x1="390.80" y1="2489.19" x2="3859.02" y2="2489.19" style="stroke:#000000;stroke-width:5.76"/>
	<line x1="454.16" y1="2489.19" x2="454.16" y2="2529.16" style="stroke:#000000;stroke-width:5.76"/>
	<text x="454.16" y="2619.14" style="font-family:'Helvetica';font-size:99.99px;fill:#000000" text-anchor="middle">50</text>
	<line x1="1498.37" y1="2489.19" x2="1498.37" y2="2529.16" style="stroke:#000000;stroke-width:5.76"/>
	<text x="1498.37" y="2619.14" style="font-family:'Helvetica';font-size:99.99px;fill:#000000" text-anchor="middle">60</text>
	<line x1="2542.57" y1="2489.19" x2="2542.57" y2="2529.16" style="stroke:#000000;stroke-width:5.76"/>
	<text x="2542.57" y="2619.14" style="font-family:'Helvetica';font-size:99.99px;fill:#000000" text-anchor="middle">70</text>
	<line x1="3586.89" y1="2489.19" x2="3586.89" y2="2529.16" style="stroke:#000000;stroke-width:5.76"/>
	<text x="3586.89" y="2619.14" style="font-family:'Helvetica';font-size:99.99px;fill:#000000" text-anchor="middle">80</text>
	<text x="2124.91" y="2729.16" style="font-family:'Helvetica';font-size:99.99px;fill:#000000" text-anchor="middle">Age of Respondent at 2nd interview</text>
</svg>
