<?xml version="1.0" encoding="UTF-8" standalone="no"?>
<!-- This is a Stata 16.0 generated SVG file (http://www.stata.com) -->

<svg version="1.1" width="5.50in" height="4.00in" viewBox="0 0 3960 2880" xmlns="http://www.w3.org/2000/svg" xmlns:xlink="http://www.w3.org/1999/xlink">
	<desc>Stata Graph - Graph</desc>
	<rect x="0" y="0" width="3960" height="2880" style="fill:#EAF2F3;stroke:none"/>
	<rect x="0.00" y="0.00" width="3959.88" height="2880.00" style="fill:#EAF2F3"/>
	<rect x="2.88" y="2.88" width="3954.12" height="2874.24" style="fill:none;stroke:#EAF2F3;stroke-width:5.76"/>
	<rect x="390.80" y="100.86" width="3468.22" height="2388.33" style="fill:#FFFFFF"/>
	<rect x="393.68" y="103.74" width="3462.46" height="2382.57" style="fill:none;stroke:#FFFFFF;stroke-width:5.76"/>
	<line x1="390.80" y1="2489.19" x2="3859.02" y2="2489.19" style="stroke:#EAF2F3;stroke-width:8.64"/>
	<line x1="390.80" y1="1907.91" x2="3859.02" y2="1907.91" style="stroke:#EAF2F3;stroke-width:8.64"/>
	<line x1="390.80" y1="1326.64" x2="3859.02" y2="1326.64" style="stroke:#EAF2F3;stroke-width:8.64"/>
	<line x1="390.80" y1="745.37" x2="3859.02" y2="745.37" style="stroke:#EAF2F3;stroke-width:8.64"/>
	<line x1="390.80" y1="164.22" x2="3859.02" y2="164.22" style="stroke:#EAF2F3;stroke-width:8.64"/>
	<rect x="676.91" y="2485.60" width="79.82" height="3.59" style="fill:#CAC27E"/>
	<rect x="681.23" y="2489.92" width="71.18" height="-5.05" style="fill:none;stroke:#D7D29E;stroke-width:8.64"/>
	<rect x="996.06" y="2474.58" width="79.69" height="14.60" style="fill:#CAC27E"/>
	<rect x="1000.38" y="2478.90" width="71.06" height="5.96" style="fill:none;stroke:#D7D29E;stroke-width:8.64"/>
	<rect x="1075.76" y="2478.17" width="79.82" height="11.01" style="fill:#CAC27E"/>
	<rect x="1080.08" y="2482.49" width="71.18" height="2.37" style="fill:none;stroke:#D7D29E;stroke-width:8.64"/>
	<rect x="1155.58" y="2478.17" width="79.82" height="11.01" style="fill:#CAC27E"/>
	<rect x="1159.90" y="2482.49" width="71.18" height="2.37" style="fill:none;stroke:#D7D29E;stroke-width:8.64"/>
	<rect x="1235.40" y="2470.87" width="79.69" height="18.32" style="fill:#CAC27E"/>
	<rect x="1239.72" y="2475.19" width="71.06" height="9.68" style="fill:none;stroke:#D7D29E;stroke-width:8.64"/>
	<rect x="1315.09" y="2467.28" width="79.82" height="21.90" style="fill:#CAC27E"/>
	<rect x="1319.41" y="2471.60" width="71.18" height="13.26" style="fill:none;stroke:#D7D29E;stroke-width:8.64"/>
	<rect x="1394.91" y="2415.92" width="79.82" height="73.26" style="fill:#CAC27E"/>
	<rect x="1399.23" y="2420.24" width="71.18" height="64.62" style="fill:none;stroke:#D7D29E;stroke-width:8.64"/>
	<rect x="1474.73" y="2445.25" width="79.69" height="43.93" style="fill:#CAC27E"/>
	<rect x="1479.05" y="2449.57" width="71.06" height="35.29" style="fill:none;stroke:#D7D29E;stroke-width:8.64"/>
	<rect x="1554.42" y="2397.61" width="79.82" height="91.58" style="fill:#CAC27E"/>
	<rect x="1558.74" y="2401.93" width="71.18" height="82.94" style="fill:none;stroke:#D7D29E;stroke-width:8.64"/>
	<rect x="1634.24" y="2437.95" width="79.82" height="51.23" style="fill:#CAC27E"/>
	<rect x="1638.56" y="2442.27" width="71.18" height="42.59" style="fill:none;stroke:#D7D29E;stroke-width:8.64"/>
	<rect x="1714.06" y="2379.29" width="79.69" height="109.89" style="fill:#CAC27E"/>
	<rect x="1718.38" y="2383.61" width="71.06" height="101.25" style="fill:none;stroke:#D7D29E;stroke-width:8.64"/>
	<rect x="1793.76" y="2368.28" width="79.82" height="120.91" style="fill:#CAC27E"/>
	<rect x="1798.08" y="2372.60" width="71.18" height="112.27" style="fill:none;stroke:#D7D29E;stroke-width:8.64"/>
	<rect x="1873.58" y="2368.28" width="79.82" height="120.91" style="fill:#CAC27E"/>
	<rect x="1877.89" y="2372.60" width="71.18" height="112.27" style="fill:none;stroke:#D7D29E;stroke-width:8.64"/>
	<rect x="1953.39" y="2137.48" width="79.69" height="351.71" style="fill:#CAC27E"/>
	<rect x="1957.71" y="2141.80" width="71.06" height="343.07" style="fill:none;stroke:#D7D29E;stroke-width:8.64"/>
	<rect x="2033.09" y="2295.02" width="79.82" height="194.17" style="fill:#CAC27E"/>
	<rect x="2037.41" y="2299.34" width="71.18" height="185.53" style="fill:none;stroke:#D7D29E;stroke-width:8.64"/>
	<rect x="2112.91" y="1972.51" width="79.82" height="516.67" style="fill:#CAC27E"/>
	<rect x="2117.23" y="1976.83" width="71.18" height="508.03" style="fill:none;stroke:#D7D29E;stroke-width:8.64"/>
	<rect x="2192.73" y="2126.46" width="79.69" height="362.72" style="fill:#CAC27E"/>
	<rect x="2197.05" y="2130.78" width="71.06" height="354.08" style="fill:none;stroke:#D7D29E;stroke-width:8.64"/>
	<rect x="2272.42" y="1792.95" width="79.82" height="696.24" style="fill:#CAC27E"/>
	<rect x="2276.74" y="1797.27" width="71.18" height="687.60" style="fill:none;stroke:#D7D29E;stroke-width:8.64"/>
	<rect x="2352.24" y="2097.13" width="79.70" height="392.05" style="fill:#CAC27E"/>
	<rect x="2356.56" y="2101.45" width="71.06" height="383.41" style="fill:none;stroke:#D7D29E;stroke-width:8.64"/>
	<rect x="2431.93" y="1983.53" width="79.82" height="505.66" style="fill:#CAC27E"/>
	<rect x="2436.25" y="1987.85" width="71.18" height="497.02" style="fill:none;stroke:#D7D29E;stroke-width:8.64"/>
	<rect x="2511.75" y="1210.31" width="79.82" height="1278.87" style="fill:#CAC27E"/>
	<rect x="2516.07" y="1214.63" width="71.18" height="1270.23" style="fill:none;stroke:#D7D29E;stroke-width:8.64"/>
	<rect x="2591.57" y="1760.03" width="79.69" height="729.16" style="fill:#CAC27E"/>
	<rect x="2595.89" y="1764.35" width="71.06" height="720.52" style="fill:none;stroke:#D7D29E;stroke-width:8.64"/>
	<rect x="2671.27" y="847.59" width="79.82" height="1641.60" style="fill:#CAC27E"/>
	<rect x="2675.59" y="851.91" width="71.18" height="1632.96" style="fill:none;stroke:#D7D29E;stroke-width:8.64"/>
	<rect x="2751.09" y="1554.84" width="79.82" height="934.34" style="fill:#CAC27E"/>
	<rect x="2755.41" y="1559.16" width="71.18" height="925.70" style="fill:none;stroke:#D7D29E;stroke-width:8.64"/>
	<rect x="2830.91" y="517.79" width="79.69" height="1971.40" style="fill:#CAC27E"/>
	<rect x="2835.22" y="522.11" width="71.06" height="1962.76" style="fill:none;stroke:#D7D29E;stroke-width:8.64"/>
	<rect x="2910.60" y="1404.61" width="79.82" height="1084.58" style="fill:#CAC27E"/>
	<rect x="2914.92" y="1408.93" width="71.18" height="1075.94" style="fill:none;stroke:#D7D29E;stroke-width:8.64"/>
	<rect x="2990.42" y="1459.55" width="79.82" height="1029.63" style="fill:#CAC27E"/>
	<rect x="2994.74" y="1463.87" width="71.18" height="1020.99" style="fill:none;stroke:#D7D29E;stroke-width:8.64"/>
	<rect x="3070.24" y="305.30" width="79.69" height="2183.88" style="fill:#CAC27E"/>
	<rect x="3074.56" y="309.62" width="71.06" height="2175.24" style="fill:none;stroke:#D7D29E;stroke-width:8.64"/>
	<rect x="3149.93" y="1584.17" width="79.82" height="905.01" style="fill:#CAC27E"/>
	<rect x="3154.25" y="1588.49" width="71.18" height="896.37" style="fill:none;stroke:#D7D29E;stroke-width:8.64"/>
	<rect x="3229.75" y="682.75" width="79.82" height="1806.44" style="fill:#CAC27E"/>
	<rect x="3234.07" y="687.07" width="71.18" height="1797.80" style="fill:none;stroke:#D7D29E;stroke-width:8.64"/>
	<rect x="3309.57" y="1646.42" width="79.69" height="842.76" style="fill:#CAC27E"/>
	<rect x="3313.89" y="1650.74" width="71.06" height="834.12" style="fill:none;stroke:#D7D29E;stroke-width:8.64"/>
	<rect x="3389.26" y="1199.42" width="79.82" height="1289.76" style="fill:#CAC27E"/>
	<rect x="3393.58" y="1203.74" width="71.18" height="1281.12" style="fill:none;stroke:#D7D29E;stroke-width:8.64"/>
	<rect x="3469.08" y="2111.74" width="79.82" height="377.45" style="fill:#CAC27E"/>
	<rect x="3473.40" y="2116.06" width="71.18" height="368.81" style="fill:none;stroke:#D7D29E;stroke-width:8.64"/>
	<rect x="3548.90" y="1987.24" width="79.69" height="501.95" style="fill:#CAC27E"/>
	<rect x="3553.22" y="1991.56" width="71.06" height="493.31" style="fill:none;stroke:#D7D29E;stroke-width:8.64"/>
	<line x1="390.80" y1="2489.19" x2="390.80" y2="100.86" style="stroke:#000000;stroke-width:5.76"/>
	<line x1="390.80" y1="2489.19" x2="350.83" y2="2489.19" style="stroke:#000000;stroke-width:5.76"/>
	<text x="300.72" y="2489.19" style="font-family:'Helvetica';font-size:99.99px;fill:#000000" transform="rotate(-90 300.72,2489.19)" text-anchor="middle">0</text>
	<line x1="390.80" y1="1907.91" x2="350.83" y2="1907.91" style="stroke:#000000;stroke-width:5.76"/>
	<text x="300.72" y="1907.91" style="font-family:'Helvetica';font-size:99.99px;fill:#000000" transform="rotate(-90 300.72,1907.91)" text-anchor="middle">.02</text>
	<line x1="390.80" y1="1326.64" x2="350.83" y2="1326.64" style="stroke:#000000;stroke-width:5.76"/>
	<text x="300.72" y="1326.64" style="font-family:'Helvetica';font-size:99.99px;fill:#000000" transform="rotate(-90 300.72,1326.64)" text-anchor="middle">.04</text>
	<line x1="390.80" y1="745.37" x2="350.83" y2="745.37" style="stroke:#000000;stroke-width:5.76"/>
	<text x="300.72" y="745.37" style="font-family:'Helvetica';font-size:99.99px;fill:#000000" transform="rotate(-90 300.72,745.37)" text-anchor="middle">.06</text>
	<line x1="390.80" y1="164.22" x2="350.83" y2="164.22" style="stroke:#000000;stroke-width:5.76"/>
	<text x="300.72" y="164.22" style="font-family:'Helvetica';font-size:99.99px;fill:#000000" transform="rotate(-90 300.72,164.22)" text-anchor="middle">.08</text>
	<text x="190.71" y="1294.96" style="font-family:'Helvetica';font-size:99.99px;fill:#000000" transform="rotate(-90 190.71,1294.96)" text-anchor="middle">Density</text>
	<line x1="390.80" y1="2489.19" x2="3859.02" y2="2489.19" style="stroke:#000000;stroke-width:5.76"/>
	<line x1="454.16" y1="2489.19" x2="454.16" y2="2529.16" style="stroke:#000000;stroke-width:5.76"/>
	<text x="454.16" y="2619.14" style="font-family:'Helvetica';font-size:99.99px;fill:#000000" text-anchor="middle">0</text>
	<line x1="1568.04" y1="2489.19" x2="1568.04" y2="2529.16" style="stroke:#000000;stroke-width:5.76"/>
	<text x="1568.04" y="2619.14" style="font-family:'Helvetica';font-size:99.99px;fill:#000000" text-anchor="middle">20</text>
	<line x1="2681.91" y1="2489.19" x2="2681.91" y2="2529.16" style="stroke:#000000;stroke-width:5.76"/>
	<text x="2681.91" y="2619.14" style="font-family:'Helvetica';font-size:99.99px;fill:#000000" text-anchor="middle">40</text>
	<line x1="3795.66" y1="2489.19" x2="3795.66" y2="2529.16" style="stroke:#000000;stroke-width:5.76"/>
	<text x="3795.66" y="2619.14" style="font-family:'Helvetica';font-size:99.99px;fill:#000000" text-anchor="middle">60</text>
	<text x="2124.91" y="2729.16" style="font-family:'Helvetica';font-size:99.99px;fill:#000000" text-anchor="middle">CASP-19 Quality of Life Scale</text>
</svg>
