<?xml version="1.0" encoding="UTF-8" standalone="no"?>
<!-- This is a Stata 15.1 generated SVG file (http://www.stata.com) -->

<svg version="1.1" width="5.50in" height="4.00in" viewBox="0 0 3960 2880" xmlns="http://www.w3.org/2000/svg" xmlns:xlink="http://www.w3.org/1999/xlink">
	<desc>Stata Graph - Graph</desc>
	<rect x="0" y="0" width="3960" height="2880" style="fill:#EAF2F3;stroke:none"/>
	<rect x="0.00" y="0.00" width="3959.88" height="2880.00" style="fill:#EAF2F3"/>
	<rect x="2.88" y="2.88" width="3954.12" height="2874.24" style="fill:none;stroke:#EAF2F3;stroke-width:5.76"/>
	<rect x="390.80" y="100.86" width="3468.22" height="2388.33" style="fill:#FFFFFF"/>
	<rect x="393.68" y="103.74" width="3462.46" height="2382.57" style="fill:none;stroke:#FFFFFF;stroke-width:5.76"/>
	<line x1="390.80" y1="2489.19" x2="3859.02" y2="2489.19" style="stroke:#EAF2F3;stroke-width:8.64"/>
	<line x1="390.80" y1="2024.24" x2="3859.02" y2="2024.24" style="stroke:#EAF2F3;stroke-width:8.64"/>
	<line x1="390.80" y1="1559.17" x2="3859.02" y2="1559.17" style="stroke:#EAF2F3;stroke-width:8.64"/>
	<line x1="390.80" y1="1094.23" x2="3859.02" y2="1094.23" style="stroke:#EAF2F3;stroke-width:8.64"/>
	<line x1="390.80" y1="629.16" x2="3859.02" y2="629.16" style="stroke:#EAF2F3;stroke-width:8.64"/>
	<line x1="390.80" y1="164.22" x2="3859.02" y2="164.22" style="stroke:#EAF2F3;stroke-width:8.64"/>
	<rect x="541.03" y="2299.22" width="87.99" height="189.96" style="fill:#CAC27E"/>
	<rect x="545.35" y="2303.54" width="79.35" height="181.32" style="fill:none;stroke:#D7D29E;stroke-width:8.64"/>
	<rect x="629.02" y="1447.67" width="87.86" height="1041.51" style="fill:#CAC27E"/>
	<rect x="633.34" y="1451.99" width="79.22" height="1032.87" style="fill:none;stroke:#D7D29E;stroke-width:8.64"/>
	<rect x="716.88" y="559.61" width="87.99" height="1929.57" style="fill:#CAC27E"/>
	<rect x="721.20" y="563.93" width="79.35" height="1920.93" style="fill:none;stroke:#D7D29E;stroke-width:8.64"/>
	<rect x="804.87" y="325.72" width="87.99" height="2163.47" style="fill:#CAC27E"/>
	<rect x="809.19" y="330.04" width="79.35" height="2154.83" style="fill:none;stroke:#D7D29E;stroke-width:8.64"/>
	<rect x="892.86" y="417.17" width="87.99" height="2072.01" style="fill:#CAC27E"/>
	<rect x="897.18" y="421.49" width="79.35" height="2063.37" style="fill:none;stroke:#D7D29E;stroke-width:8.64"/>
	<rect x="980.84" y="928.77" width="87.99" height="1560.41" style="fill:#CAC27E"/>
	<rect x="985.16" y="933.09" width="79.35" height="1551.77" style="fill:none;stroke:#D7D29E;stroke-width:8.64"/>
	<rect x="1068.83" y="990.90" width="87.99" height="1498.29" style="fill:#CAC27E"/>
	<rect x="1073.15" y="995.22" width="79.35" height="1489.65" style="fill:none;stroke:#D7D29E;stroke-width:8.64"/>
	<rect x="1156.82" y="1060.32" width="87.86" height="1428.86" style="fill:#CAC27E"/>
	<rect x="1161.13" y="1064.64" width="79.22" height="1420.22" style="fill:none;stroke:#D7D29E;stroke-width:8.64"/>
	<rect x="1244.68" y="1169.97" width="87.99" height="1319.22" style="fill:#CAC27E"/>
	<rect x="1249.00" y="1174.29" width="79.35" height="1310.58" style="fill:none;stroke:#D7D29E;stroke-width:8.64"/>
	<rect x="1332.66" y="1484.18" width="87.99" height="1005.01" style="fill:#CAC27E"/>
	<rect x="1336.98" y="1488.50" width="79.35" height="996.37" style="fill:none;stroke:#D7D29E;stroke-width:8.64"/>
	<rect x="1420.65" y="1433.07" width="87.99" height="1056.12" style="fill:#CAC27E"/>
	<rect x="1424.97" y="1437.39" width="79.35" height="1047.48" style="fill:none;stroke:#D7D29E;stroke-width:8.64"/>
	<rect x="1508.64" y="1612.14" width="87.99" height="877.04" style="fill:#CAC27E"/>
	<rect x="1512.96" y="1616.46" width="79.35" height="868.40" style="fill:none;stroke:#D7D29E;stroke-width:8.64"/>
	<rect x="1596.62" y="1721.79" width="87.99" height="767.40" style="fill:#CAC27E"/>
	<rect x="1600.94" y="1726.11" width="79.35" height="758.76" style="fill:none;stroke:#D7D29E;stroke-width:8.64"/>
	<rect x="1684.61" y="1743.69" width="87.86" height="745.49" style="fill:#CAC27E"/>
	<rect x="1688.93" y="1748.01" width="79.22" height="736.85" style="fill:none;stroke:#D7D29E;stroke-width:8.64"/>
	<rect x="1772.47" y="1995.90" width="87.99" height="493.28" style="fill:#CAC27E"/>
	<rect x="1776.79" y="2000.22" width="79.35" height="484.64" style="fill:none;stroke:#D7D29E;stroke-width:8.64"/>
	<rect x="1860.46" y="1962.98" width="87.99" height="526.20" style="fill:#CAC27E"/>
	<rect x="1864.78" y="1967.30" width="79.35" height="517.56" style="fill:none;stroke:#D7D29E;stroke-width:8.64"/>
	<rect x="1948.44" y="2127.45" width="87.99" height="361.73" style="fill:#CAC27E"/>
	<rect x="1952.76" y="2131.77" width="79.35" height="353.09" style="fill:none;stroke:#D7D29E;stroke-width:8.64"/>
	<rect x="2036.43" y="2156.66" width="87.99" height="332.53" style="fill:#CAC27E"/>
	<rect x="2040.75" y="2160.98" width="79.35" height="323.89" style="fill:none;stroke:#D7D29E;stroke-width:8.64"/>
	<rect x="2124.42" y="2163.96" width="87.99" height="325.23" style="fill:#CAC27E"/>
	<rect x="2128.74" y="2168.28" width="79.35" height="316.59" style="fill:none;stroke:#D7D29E;stroke-width:8.64"/>
	<rect x="2212.40" y="2321.13" width="87.86" height="168.06" style="fill:#CAC27E"/>
	<rect x="2216.72" y="2325.45" width="79.22" height="159.42" style="fill:none;stroke:#D7D29E;stroke-width:8.64"/>
	<rect x="2300.26" y="2328.43" width="87.99" height="160.76" style="fill:#CAC27E"/>
	<rect x="2304.58" y="2332.75" width="79.35" height="152.12" style="fill:none;stroke:#D7D29E;stroke-width:8.64"/>
	<rect x="2388.25" y="2394.14" width="87.99" height="95.04" style="fill:#CAC27E"/>
	<rect x="2392.57" y="2398.46" width="79.35" height="86.40" style="fill:none;stroke:#D7D29E;stroke-width:8.64"/>
	<rect x="2476.24" y="2350.33" width="87.99" height="138.85" style="fill:#CAC27E"/>
	<rect x="2480.56" y="2354.65" width="79.35" height="130.21" style="fill:none;stroke:#D7D29E;stroke-width:8.64"/>
	<rect x="2564.22" y="2405.16" width="87.99" height="84.03" style="fill:#CAC27E"/>
	<rect x="2568.54" y="2409.48" width="79.35" height="75.39" style="fill:none;stroke:#D7D29E;stroke-width:8.64"/>
	<rect x="2652.21" y="2394.14" width="87.99" height="95.04" style="fill:#CAC27E"/>
	<rect x="2656.53" y="2398.46" width="79.35" height="86.40" style="fill:none;stroke:#D7D29E;stroke-width:8.64"/>
	<rect x="2740.20" y="2408.87" width="87.86" height="80.32" style="fill:#CAC27E"/>
	<rect x="2744.52" y="2413.19" width="79.22" height="71.68" style="fill:none;stroke:#D7D29E;stroke-width:8.64"/>
	<rect x="2828.06" y="2434.36" width="87.99" height="54.82" style="fill:#CAC27E"/>
	<rect x="2832.38" y="2438.68" width="79.35" height="46.18" style="fill:none;stroke:#D7D29E;stroke-width:8.64"/>
	<rect x="2916.05" y="2452.68" width="87.99" height="36.51" style="fill:#CAC27E"/>
	<rect x="2920.36" y="2457.00" width="79.35" height="27.87" style="fill:none;stroke:#D7D29E;stroke-width:8.64"/>
	<rect x="3004.03" y="2452.68" width="87.99" height="36.51" style="fill:#CAC27E"/>
	<rect x="3008.35" y="2457.00" width="79.35" height="27.87" style="fill:none;stroke:#D7D29E;stroke-width:8.64"/>
	<rect x="3092.02" y="2467.28" width="87.99" height="21.90" style="fill:#CAC27E"/>
	<rect x="3096.34" y="2471.60" width="79.35" height="13.26" style="fill:none;stroke:#D7D29E;stroke-width:8.64"/>
	<rect x="3180.00" y="2456.27" width="87.99" height="32.92" style="fill:#CAC27E"/>
	<rect x="3184.32" y="2460.59" width="79.35" height="24.28" style="fill:none;stroke:#D7D29E;stroke-width:8.64"/>
	<rect x="3267.99" y="2463.57" width="87.86" height="25.62" style="fill:#CAC27E"/>
	<rect x="3272.31" y="2467.89" width="79.22" height="16.98" style="fill:none;stroke:#D7D29E;stroke-width:8.64"/>
	<rect x="3355.85" y="2467.28" width="87.99" height="21.90" style="fill:#CAC27E"/>
	<rect x="3360.17" y="2471.60" width="79.35" height="13.26" style="fill:none;stroke:#D7D29E;stroke-width:8.64"/>
	<rect x="3443.84" y="2481.88" width="87.99" height="7.30" style="fill:#CAC27E"/>
	<rect x="3448.16" y="2486.20" width="79.35" height="-1.34" style="fill:none;stroke:#D7D29E;stroke-width:8.64"/>
	<rect x="3531.82" y="2474.58" width="87.99" height="14.60" style="fill:#CAC27E"/>
	<rect x="3536.14" y="2478.90" width="79.35" height="5.96" style="fill:none;stroke:#D7D29E;stroke-width:8.64"/>
	<rect x="3619.81" y="2481.88" width="87.99" height="7.30" style="fill:#CAC27E"/>
	<rect x="3624.13" y="2486.20" width="79.35" height="-1.34" style="fill:none;stroke:#D7D29E;stroke-width:8.64"/>
	<rect x="3707.80" y="2485.60" width="87.86" height="3.59" style="fill:#CAC27E"/>
	<rect x="3712.12" y="2489.92" width="79.22" height="-5.05" style="fill:none;stroke:#D7D29E;stroke-width:8.64"/>
	<line x1="390.80" y1="2489.19" x2="390.80" y2="100.86" style="stroke:#000000;stroke-width:5.76"/>
	<line x1="390.80" y1="2489.19" x2="350.83" y2="2489.19" style="stroke:#000000;stroke-width:5.76"/>
	<text x="300.72" y="2489.19" style="font-family:'Helvetica';font-size:99.99px;fill:#000000" transform="rotate(-90 300.72,2489.19)" text-anchor="middle">0</text>
	<line x1="390.80" y1="2024.24" x2="350.83" y2="2024.24" style="stroke:#000000;stroke-width:5.76"/>
	<text x="300.72" y="2024.24" style="font-family:'Helvetica';font-size:99.99px;fill:#000000" transform="rotate(-90 300.72,2024.24)" text-anchor="middle">1.0e-04</text>
	<line x1="390.80" y1="1559.17" x2="350.83" y2="1559.17" style="stroke:#000000;stroke-width:5.76"/>
	<text x="300.72" y="1559.17" style="font-family:'Helvetica';font-size:99.99px;fill:#000000" transform="rotate(-90 300.72,1559.17)" text-anchor="middle">2.0e-04</text>
	<line x1="390.80" y1="1094.23" x2="350.83" y2="1094.23" style="stroke:#000000;stroke-width:5.76"/>
	<text x="300.72" y="1094.23" style="font-family:'Helvetica';font-size:99.99px;fill:#000000" transform="rotate(-90 300.72,1094.23)" text-anchor="middle">3.0e-04</text>
	<line x1="390.80" y1="629.16" x2="350.83" y2="629.16" style="stroke:#000000;stroke-width:5.76"/>
	<text x="300.72" y="629.16" style="font-family:'Helvetica';font-size:99.99px;fill:#000000" transform="rotate(-90 300.72,629.16)" text-anchor="middle">4.0e-04</text>
	<line x1="390.80" y1="164.22" x2="350.83" y2="164.22" style="stroke:#000000;stroke-width:5.76"/>
	<text x="300.72" y="164.22" style="font-family:'Helvetica';font-size:99.99px;fill:#000000" transform="rotate(-90 300.72,164.22)" text-anchor="middle">5.0e-04</text>
	<text x="190.71" y="1294.96" style="font-family:'Helvetica';font-size:99.99px;fill:#000000" transform="rotate(-90 190.71,1294.96)" text-anchor="middle">Density</text>
	<line x1="390.80" y1="2489.19" x2="3859.02" y2="2489.19" style="stroke:#000000;stroke-width:5.76"/>
	<line x1="454.16" y1="2489.19" x2="454.16" y2="2529.16" style="stroke:#000000;stroke-width:5.76"/>
	<text x="454.16" y="2619.14" style="font-family:'Helvetica';font-size:99.99px;fill:#000000" text-anchor="middle">0</text>
	<line x1="1240.35" y1="2489.19" x2="1240.35" y2="2529.16" style="stroke:#000000;stroke-width:5.76"/>
	<text x="1240.35" y="2619.14" style="font-family:'Helvetica';font-size:99.99px;fill:#000000" text-anchor="middle">2000</text>
	<line x1="2026.41" y1="2489.19" x2="2026.41" y2="2529.16" style="stroke:#000000;stroke-width:5.76"/>
	<text x="2026.41" y="2619.14" style="font-family:'Helvetica';font-size:99.99px;fill:#000000" text-anchor="middle">4000</text>
	<line x1="2812.59" y1="2489.19" x2="2812.59" y2="2529.16" style="stroke:#000000;stroke-width:5.76"/>
	<text x="2812.59" y="2619.14" style="font-family:'Helvetica';font-size:99.99px;fill:#000000" text-anchor="middle">6000</text>
	<line x1="3598.77" y1="2489.19" x2="3598.77" y2="2529.16" style="stroke:#000000;stroke-width:5.76"/>
	<text x="3598.77" y="2619.14" style="font-family:'Helvetica';font-size:99.99px;fill:#000000" text-anchor="middle">8000</text>
	<text x="2124.91" y="2729.16" style="font-family:'Helvetica';font-size:99.99px;fill:#000000" text-anchor="middle">TOTSQFT_EN</text>
</svg>
