<?xml version="1.0" encoding="UTF-8" standalone="no"?>
<!-- This is a Stata 15.1 generated SVG file (http://www.stata.com) -->

<svg version="1.1" width="5.50in" height="4.00in" viewBox="0 0 3960 2880" xmlns="http://www.w3.org/2000/svg" xmlns:xlink="http://www.w3.org/1999/xlink">
	<desc>Stata Graph - Graph</desc>
	<rect x="0" y="0" width="3960" height="2880" style="fill:#EAF2F3;stroke:none"/>
	<rect x="0.00" y="0.00" width="3959.88" height="2880.00" style="fill:#EAF2F3"/>
	<rect x="2.88" y="2.88" width="3954.12" height="2874.24" style="fill:none;stroke:#EAF2F3;stroke-width:5.76"/>
	<rect x="390.80" y="100.86" width="3468.22" height="2388.33" style="fill:#FFFFFF"/>
	<rect x="393.68" y="103.74" width="3462.46" height="2382.57" style="fill:none;stroke:#FFFFFF;stroke-width:5.76"/>
	<line x1="390.80" y1="2489.19" x2="3859.02" y2="2489.19" style="stroke:#EAF2F3;stroke-width:8.64"/>
	<line x1="390.80" y1="1907.91" x2="3859.02" y2="1907.91" style="stroke:#EAF2F3;stroke-width:8.64"/>
	<line x1="390.80" y1="1326.64" x2="3859.02" y2="1326.64" style="stroke:#EAF2F3;stroke-width:8.64"/>
	<line x1="390.80" y1="745.37" x2="3859.02" y2="745.37" style="stroke:#EAF2F3;stroke-width:8.64"/>
	<line x1="390.80" y1="164.22" x2="3859.02" y2="164.22" style="stroke:#EAF2F3;stroke-width:8.64"/>
	<rect x="842.37" y="2483.00" width="68.56" height="6.19" style="fill:#CAC27E"/>
	<rect x="846.69" y="2487.32" width="59.92" height="-2.45" style="fill:none;stroke:#D7D29E;stroke-width:8.64"/>
	<rect x="910.92" y="2486.09" width="68.56" height="3.09" style="fill:#CAC27E"/>
	<rect x="915.24" y="2490.41" width="59.92" height="-5.55" style="fill:none;stroke:#D7D29E;stroke-width:8.64"/>
	<rect x="1185.15" y="2479.90" width="68.56" height="9.28" style="fill:#CAC27E"/>
	<rect x="1189.47" y="2484.22" width="59.92" height="0.64" style="fill:none;stroke:#D7D29E;stroke-width:8.64"/>
	<rect x="1322.27" y="2486.09" width="68.56" height="3.09" style="fill:#CAC27E"/>
	<rect x="1326.59" y="2490.41" width="59.92" height="-5.55" style="fill:none;stroke:#D7D29E;stroke-width:8.64"/>
	<rect x="1459.38" y="2483.00" width="68.56" height="6.19" style="fill:#CAC27E"/>
	<rect x="1463.70" y="2487.32" width="59.92" height="-2.45" style="fill:none;stroke:#D7D29E;stroke-width:8.64"/>
	<rect x="1527.94" y="2470.50" width="68.56" height="18.69" style="fill:#CAC27E"/>
	<rect x="1532.26" y="2474.82" width="59.92" height="10.05" style="fill:none;stroke:#D7D29E;stroke-width:8.64"/>
	<rect x="1596.50" y="2479.90" width="68.56" height="9.28" style="fill:#CAC27E"/>
	<rect x="1600.82" y="2484.22" width="59.92" height="0.64" style="fill:none;stroke:#D7D29E;stroke-width:8.64"/>
	<rect x="1665.06" y="2461.22" width="68.56" height="27.97" style="fill:#CAC27E"/>
	<rect x="1669.38" y="2465.54" width="59.92" height="19.33" style="fill:none;stroke:#D7D29E;stroke-width:8.64"/>
	<rect x="1733.61" y="2467.40" width="68.56" height="21.78" style="fill:#CAC27E"/>
	<rect x="1737.93" y="2471.72" width="59.92" height="13.14" style="fill:none;stroke:#D7D29E;stroke-width:8.64"/>
	<rect x="1802.17" y="2445.62" width="68.56" height="43.56" style="fill:#CAC27E"/>
	<rect x="1806.49" y="2449.94" width="59.92" height="34.92" style="fill:none;stroke:#D7D29E;stroke-width:8.64"/>
	<rect x="1870.73" y="2423.84" width="68.56" height="65.34" style="fill:#CAC27E"/>
	<rect x="1875.05" y="2428.16" width="59.92" height="56.70" style="fill:none;stroke:#D7D29E;stroke-width:8.64"/>
	<rect x="1939.29" y="2355.28" width="68.56" height="133.90" style="fill:#CAC27E"/>
	<rect x="1943.61" y="2359.60" width="59.92" height="125.26" style="fill:none;stroke:#D7D29E;stroke-width:8.64"/>
	<rect x="2007.84" y="2271.25" width="68.56" height="217.93" style="fill:#CAC27E"/>
	<rect x="2012.16" y="2275.57" width="59.92" height="209.29" style="fill:none;stroke:#D7D29E;stroke-width:8.64"/>
	<rect x="2076.40" y="2127.95" width="68.56" height="361.24" style="fill:#CAC27E"/>
	<rect x="2080.72" y="2132.27" width="59.92" height="352.60" style="fill:none;stroke:#D7D29E;stroke-width:8.64"/>
	<rect x="2144.96" y="2031.42" width="68.56" height="457.77" style="fill:#CAC27E"/>
	<rect x="2149.28" y="2035.74" width="59.92" height="449.13" style="fill:none;stroke:#D7D29E;stroke-width:8.64"/>
	<rect x="2213.52" y="1607.81" width="68.56" height="881.38" style="fill:#CAC27E"/>
	<rect x="2217.84" y="1612.13" width="59.92" height="872.74" style="fill:none;stroke:#D7D29E;stroke-width:8.64"/>
	<rect x="2282.07" y="1558.06" width="68.56" height="931.12" style="fill:#CAC27E"/>
	<rect x="2286.39" y="1562.38" width="59.92" height="922.48" style="fill:none;stroke:#D7D29E;stroke-width:8.64"/>
	<rect x="2350.63" y="1252.88" width="68.56" height="1236.30" style="fill:#CAC27E"/>
	<rect x="2354.95" y="1257.20" width="59.92" height="1227.66" style="fill:none;stroke:#D7D29E;stroke-width:8.64"/>
	<rect x="2419.19" y="950.80" width="68.56" height="1538.38" style="fill:#CAC27E"/>
	<rect x="2423.51" y="955.12" width="59.92" height="1529.74" style="fill:none;stroke:#D7D29E;stroke-width:8.64"/>
	<rect x="2487.75" y="732.75" width="68.56" height="1756.44" style="fill:#CAC27E"/>
	<rect x="2492.07" y="737.07" width="59.92" height="1747.80" style="fill:none;stroke:#D7D29E;stroke-width:8.64"/>
	<rect x="2556.30" y="605.03" width="68.56" height="1884.15" style="fill:#CAC27E"/>
	<rect x="2560.62" y="609.35" width="59.92" height="1875.51" style="fill:none;stroke:#D7D29E;stroke-width:8.64"/>
	<rect x="2624.86" y="452.44" width="68.56" height="2036.74" style="fill:#CAC27E"/>
	<rect x="2629.18" y="456.76" width="59.92" height="2028.10" style="fill:none;stroke:#D7D29E;stroke-width:8.64"/>
	<rect x="2693.42" y="679.78" width="68.56" height="1809.41" style="fill:#CAC27E"/>
	<rect x="2697.74" y="684.10" width="59.92" height="1800.77" style="fill:none;stroke:#D7D29E;stroke-width:8.64"/>
	<rect x="2761.98" y="860.46" width="68.56" height="1628.72" style="fill:#CAC27E"/>
	<rect x="2766.30" y="864.78" width="59.92" height="1620.08" style="fill:none;stroke:#D7D29E;stroke-width:8.64"/>
	<rect x="2830.53" y="1312.04" width="68.56" height="1177.15" style="fill:#CAC27E"/>
	<rect x="2834.85" y="1316.36" width="59.92" height="1168.51" style="fill:none;stroke:#D7D29E;stroke-width:8.64"/>
	<rect x="2899.09" y="1754.21" width="68.56" height="734.97" style="fill:#CAC27E"/>
	<rect x="2903.41" y="1758.53" width="59.92" height="726.33" style="fill:none;stroke:#D7D29E;stroke-width:8.64"/>
	<rect x="2967.65" y="2106.17" width="68.56" height="383.02" style="fill:#CAC27E"/>
	<rect x="2971.97" y="2110.49" width="59.92" height="374.38" style="fill:none;stroke:#D7D29E;stroke-width:8.64"/>
	<rect x="3036.21" y="2324.10" width="68.56" height="165.09" style="fill:#CAC27E"/>
	<rect x="3040.53" y="2328.42" width="59.92" height="156.45" style="fill:none;stroke:#D7D29E;stroke-width:8.64"/>
	<rect x="3104.76" y="2402.06" width="68.56" height="87.12" style="fill:#CAC27E"/>
	<rect x="3109.08" y="2406.38" width="59.92" height="78.48" style="fill:none;stroke:#D7D29E;stroke-width:8.64"/>
	<rect x="3173.32" y="2442.53" width="68.56" height="46.66" style="fill:#CAC27E"/>
	<rect x="3177.64" y="2446.85" width="59.92" height="38.02" style="fill:none;stroke:#D7D29E;stroke-width:8.64"/>
	<rect x="3241.88" y="2470.50" width="68.56" height="18.69" style="fill:#CAC27E"/>
	<rect x="3246.20" y="2474.82" width="59.92" height="10.05" style="fill:none;stroke:#D7D29E;stroke-width:8.64"/>
	<rect x="3310.44" y="2483.00" width="68.56" height="6.19" style="fill:#CAC27E"/>
	<rect x="3314.76" y="2487.32" width="59.92" height="-2.45" style="fill:none;stroke:#D7D29E;stroke-width:8.64"/>
	<line x1="390.80" y1="2489.19" x2="390.80" y2="100.86" style="stroke:#000000;stroke-width:5.76"/>
	<line x1="390.80" y1="2489.19" x2="350.83" y2="2489.19" style="stroke:#000000;stroke-width:5.76"/>
	<text x="300.72" y="2489.19" style="font-family:'Helvetica';font-size:99.99px;fill:#000000" transform="rotate(-90 300.72,2489.19)" text-anchor="middle">0</text>
	<line x1="390.80" y1="1907.91" x2="350.83" y2="1907.91" style="stroke:#000000;stroke-width:5.76"/>
	<text x="300.72" y="1907.91" style="font-family:'Helvetica';font-size:99.99px;fill:#000000" transform="rotate(-90 300.72,1907.91)" text-anchor="middle">.2</text>
	<line x1="390.80" y1="1326.64" x2="350.83" y2="1326.64" style="stroke:#000000;stroke-width:5.76"/>
	<text x="300.72" y="1326.64" style="font-family:'Helvetica';font-size:99.99px;fill:#000000" transform="rotate(-90 300.72,1326.64)" text-anchor="middle">.4</text>
	<line x1="390.80" y1="745.37" x2="350.83" y2="745.37" style="stroke:#000000;stroke-width:5.76"/>
	<text x="300.72" y="745.37" style="font-family:'Helvetica';font-size:99.99px;fill:#000000" transform="rotate(-90 300.72,745.37)" text-anchor="middle">.6</text>
	<line x1="390.80" y1="164.22" x2="350.83" y2="164.22" style="stroke:#000000;stroke-width:5.76"/>
	<text x="300.72" y="164.22" style="font-family:'Helvetica';font-size:99.99px;fill:#000000" transform="rotate(-90 300.72,164.22)" text-anchor="middle">.8</text>
	<text x="190.71" y="1294.96" style="font-family:'Helvetica';font-size:99.99px;fill:#000000" transform="rotate(-90 190.71,1294.96)" text-anchor="middle">Density</text>
	<line x1="390.80" y1="2489.19" x2="3859.02" y2="2489.19" style="stroke:#000000;stroke-width:5.76"/>
	<line x1="454.16" y1="2489.19" x2="454.16" y2="2529.16" style="stroke:#000000;stroke-width:5.76"/>
	<text x="454.16" y="2619.14" style="font-family:'Helvetica';font-size:99.99px;fill:#000000" text-anchor="middle">2</text>
	<line x1="1289.47" y1="2489.19" x2="1289.47" y2="2529.16" style="stroke:#000000;stroke-width:5.76"/>
	<text x="1289.47" y="2619.14" style="font-family:'Helvetica';font-size:99.99px;fill:#000000" text-anchor="middle">4</text>
	<line x1="2124.91" y1="2489.19" x2="2124.91" y2="2529.16" style="stroke:#000000;stroke-width:5.76"/>
	<text x="2124.91" y="2619.14" style="font-family:'Helvetica';font-size:99.99px;fill:#000000" text-anchor="middle">6</text>
	<line x1="2960.35" y1="2489.19" x2="2960.35" y2="2529.16" style="stroke:#000000;stroke-width:5.76"/>
	<text x="2960.35" y="2619.14" style="font-family:'Helvetica';font-size:99.99px;fill:#000000" text-anchor="middle">8</text>
	<line x1="3795.66" y1="2489.19" x2="3795.66" y2="2529.16" style="stroke:#000000;stroke-width:5.76"/>
	<text x="3795.66" y="2619.14" style="font-family:'Helvetica';font-size:99.99px;fill:#000000" text-anchor="middle">10</text>
	<text x="2124.91" y="2729.16" style="font-family:'Helvetica';font-size:99.99px;fill:#000000" text-anchor="middle">lgdollarel</text>
</svg>
