<?xml version="1.0" encoding="UTF-8" standalone="no"?>
<!-- This is a Stata 15.1 generated SVG file (http://www.stata.com) -->

<svg version="1.1" width="5.50in" height="4.00in" viewBox="0 0 3960 2880" xmlns="http://www.w3.org/2000/svg" xmlns:xlink="http://www.w3.org/1999/xlink">
	<desc>Stata Graph - Graph</desc>
	<rect x="0" y="0" width="3960" height="2880" style="fill:#EAF2F3;stroke:none"/>
	<rect x="0.00" y="0.00" width="3959.88" height="2880.00" style="fill:#EAF2F3"/>
	<rect x="2.88" y="2.88" width="3954.12" height="2874.24" style="fill:none;stroke:#EAF2F3;stroke-width:5.76"/>
	<rect x="390.80" y="100.86" width="3468.22" height="2388.33" style="fill:#FFFFFF"/>
	<rect x="393.68" y="103.74" width="3462.46" height="2382.57" style="fill:none;stroke:#FFFFFF;stroke-width:5.76"/>
	<line x1="390.80" y1="2489.19" x2="3859.02" y2="2489.19" style="stroke:#EAF2F3;stroke-width:8.64"/>
	<line x1="390.80" y1="1714.24" x2="3859.02" y2="1714.24" style="stroke:#EAF2F3;stroke-width:8.64"/>
	<line x1="390.80" y1="939.17" x2="3859.02" y2="939.17" style="stroke:#EAF2F3;stroke-width:8.64"/>
	<line x1="390.80" y1="164.22" x2="3859.02" y2="164.22" style="stroke:#EAF2F3;stroke-width:8.64"/>
	<rect x="498.71" y="2305.66" width="89.10" height="183.53" style="fill:#CAC27E"/>
	<rect x="503.03" y="2309.98" width="80.46" height="174.89" style="fill:none;stroke:#D7D29E;stroke-width:8.64"/>
	<rect x="587.81" y="1580.46" width="89.10" height="908.72" style="fill:#CAC27E"/>
	<rect x="592.13" y="1584.78" width="80.46" height="900.08" style="fill:none;stroke:#D7D29E;stroke-width:8.64"/>
	<rect x="676.91" y="544.27" width="89.10" height="1944.92" style="fill:#CAC27E"/>
	<rect x="681.23" y="548.59" width="80.46" height="1936.28" style="fill:none;stroke:#D7D29E;stroke-width:8.64"/>
	<rect x="766.01" y="276.59" width="89.10" height="2212.60" style="fill:#CAC27E"/>
	<rect x="770.33" y="280.91" width="80.46" height="2203.96" style="fill:none;stroke:#D7D29E;stroke-width:8.64"/>
	<rect x="855.11" y="183.28" width="89.10" height="2305.91" style="fill:#CAC27E"/>
	<rect x="859.43" y="187.60" width="80.46" height="2297.27" style="fill:none;stroke:#D7D29E;stroke-width:8.64"/>
	<rect x="944.21" y="472.62" width="89.10" height="2016.57" style="fill:#CAC27E"/>
	<rect x="948.53" y="476.94" width="80.46" height="2007.93" style="fill:none;stroke:#D7D29E;stroke-width:8.64"/>
	<rect x="1033.31" y="584.61" width="89.10" height="1904.57" style="fill:#CAC27E"/>
	<rect x="1037.63" y="588.93" width="80.46" height="1895.93" style="fill:none;stroke:#D7D29E;stroke-width:8.64"/>
	<rect x="1122.41" y="995.48" width="89.10" height="1493.71" style="fill:#CAC27E"/>
	<rect x="1126.73" y="999.80" width="80.46" height="1485.07" style="fill:none;stroke:#D7D29E;stroke-width:8.64"/>
	<rect x="1211.51" y="1253.75" width="89.10" height="1235.43" style="fill:#CAC27E"/>
	<rect x="1215.83" y="1258.07" width="80.46" height="1226.80" style="fill:none;stroke:#D7D29E;stroke-width:8.64"/>
	<rect x="1300.61" y="1496.43" width="89.22" height="992.75" style="fill:#CAC27E"/>
	<rect x="1304.93" y="1500.75" width="80.58" height="984.11" style="fill:none;stroke:#D7D29E;stroke-width:8.64"/>
	<rect x="1389.84" y="1813.86" width="89.10" height="675.32" style="fill:#CAC27E"/>
	<rect x="1394.16" y="1818.18" width="80.46" height="666.69" style="fill:none;stroke:#D7D29E;stroke-width:8.64"/>
	<rect x="1478.94" y="1947.76" width="89.10" height="541.42" style="fill:#CAC27E"/>
	<rect x="1483.26" y="1952.08" width="80.46" height="532.78" style="fill:none;stroke:#D7D29E;stroke-width:8.64"/>
	<rect x="1568.04" y="2106.41" width="89.10" height="382.77" style="fill:#CAC27E"/>
	<rect x="1572.36" y="2110.73" width="80.46" height="374.13" style="fill:none;stroke:#D7D29E;stroke-width:8.64"/>
	<rect x="1657.14" y="2252.69" width="89.10" height="236.49" style="fill:#CAC27E"/>
	<rect x="1661.46" y="2257.01" width="80.46" height="227.85" style="fill:none;stroke:#D7D29E;stroke-width:8.64"/>
	<rect x="1746.24" y="2302.44" width="89.10" height="186.74" style="fill:#CAC27E"/>
	<rect x="1750.56" y="2306.76" width="80.46" height="178.10" style="fill:none;stroke:#D7D29E;stroke-width:8.64"/>
	<rect x="1835.34" y="2374.09" width="89.10" height="115.09" style="fill:#CAC27E"/>
	<rect x="1839.66" y="2378.41" width="80.46" height="106.45" style="fill:none;stroke:#D7D29E;stroke-width:8.64"/>
	<rect x="1924.44" y="2374.09" width="89.10" height="115.09" style="fill:#CAC27E"/>
	<rect x="1928.76" y="2378.41" width="80.46" height="106.45" style="fill:none;stroke:#D7D29E;stroke-width:8.64"/>
	<rect x="2013.54" y="2442.53" width="89.10" height="46.66" style="fill:#CAC27E"/>
	<rect x="2017.86" y="2446.85" width="80.46" height="38.02" style="fill:none;stroke:#D7D29E;stroke-width:8.64"/>
	<rect x="2102.64" y="2464.31" width="89.10" height="24.87" style="fill:#CAC27E"/>
	<rect x="2106.96" y="2468.63" width="80.46" height="16.23" style="fill:none;stroke:#D7D29E;stroke-width:8.64"/>
	<rect x="2191.74" y="2439.44" width="89.10" height="49.75" style="fill:#CAC27E"/>
	<rect x="2196.06" y="2443.76" width="80.46" height="41.11" style="fill:none;stroke:#D7D29E;stroke-width:8.64"/>
	<rect x="2280.84" y="2464.31" width="89.10" height="24.87" style="fill:#CAC27E"/>
	<rect x="2285.16" y="2468.63" width="80.46" height="16.23" style="fill:none;stroke:#D7D29E;stroke-width:8.64"/>
	<rect x="2369.94" y="2479.90" width="89.10" height="9.28" style="fill:#CAC27E"/>
	<rect x="2374.26" y="2484.22" width="80.46" height="0.64" style="fill:none;stroke:#D7D29E;stroke-width:8.64"/>
	<rect x="2459.04" y="2464.31" width="89.10" height="24.87" style="fill:#CAC27E"/>
	<rect x="2463.36" y="2468.63" width="80.46" height="16.23" style="fill:none;stroke:#D7D29E;stroke-width:8.64"/>
	<rect x="2548.14" y="2476.81" width="89.22" height="12.38" style="fill:#CAC27E"/>
	<rect x="2552.46" y="2481.13" width="80.58" height="3.74" style="fill:none;stroke:#D7D29E;stroke-width:8.64"/>
	<rect x="2637.36" y="2479.90" width="89.10" height="9.28" style="fill:#CAC27E"/>
	<rect x="2641.68" y="2484.22" width="80.46" height="0.64" style="fill:none;stroke:#D7D29E;stroke-width:8.64"/>
	<rect x="2726.46" y="2476.81" width="89.10" height="12.38" style="fill:#CAC27E"/>
	<rect x="2730.78" y="2481.13" width="80.46" height="3.74" style="fill:none;stroke:#D7D29E;stroke-width:8.64"/>
	<rect x="2815.56" y="2483.00" width="89.10" height="6.19" style="fill:#CAC27E"/>
	<rect x="2819.88" y="2487.32" width="80.46" height="-2.45" style="fill:none;stroke:#D7D29E;stroke-width:8.64"/>
	<rect x="2904.66" y="2486.09" width="89.10" height="3.09" style="fill:#CAC27E"/>
	<rect x="2908.98" y="2490.41" width="80.46" height="-5.55" style="fill:none;stroke:#D7D29E;stroke-width:8.64"/>
	<rect x="2993.76" y="2486.09" width="89.10" height="3.09" style="fill:#CAC27E"/>
	<rect x="2998.08" y="2490.41" width="80.46" height="-5.55" style="fill:none;stroke:#D7D29E;stroke-width:8.64"/>
	<rect x="3082.86" y="2483.00" width="89.10" height="6.19" style="fill:#CAC27E"/>
	<rect x="3087.18" y="2487.32" width="80.46" height="-2.45" style="fill:none;stroke:#D7D29E;stroke-width:8.64"/>
	<rect x="3171.96" y="2486.09" width="89.10" height="3.09" style="fill:#CAC27E"/>
	<rect x="3176.28" y="2490.41" width="80.46" height="-5.55" style="fill:none;stroke:#D7D29E;stroke-width:8.64"/>
	<rect x="3706.56" y="2483.00" width="89.10" height="6.19" style="fill:#CAC27E"/>
	<rect x="3710.88" y="2487.32" width="80.46" height="-2.45" style="fill:none;stroke:#D7D29E;stroke-width:8.64"/>
	<line x1="390.80" y1="2489.19" x2="390.80" y2="100.86" style="stroke:#000000;stroke-width:5.76"/>
	<line x1="390.80" y1="2489.19" x2="350.83" y2="2489.19" style="stroke:#000000;stroke-width:5.76"/>
	<text x="300.72" y="2489.19" style="font-family:'Helvetica';font-size:99.99px;fill:#000000" transform="rotate(-90 300.72,2489.19)" text-anchor="middle">0</text>
	<line x1="390.80" y1="1714.24" x2="350.83" y2="1714.24" style="stroke:#000000;stroke-width:5.76"/>
	<text x="300.72" y="1714.24" style="font-family:'Helvetica';font-size:99.99px;fill:#000000" transform="rotate(-90 300.72,1714.24)" text-anchor="middle">2.0e-04</text>
	<line x1="390.80" y1="939.17" x2="350.83" y2="939.17" style="stroke:#000000;stroke-width:5.76"/>
	<text x="300.72" y="939.17" style="font-family:'Helvetica';font-size:99.99px;fill:#000000" transform="rotate(-90 300.72,939.17)" text-anchor="middle">4.0e-04</text>
	<line x1="390.80" y1="164.22" x2="350.83" y2="164.22" style="stroke:#000000;stroke-width:5.76"/>
	<text x="300.72" y="164.22" style="font-family:'Helvetica';font-size:99.99px;fill:#000000" transform="rotate(-90 300.72,164.22)" text-anchor="middle">6.0e-04</text>
	<text x="190.71" y="1294.96" style="font-family:'Helvetica';font-size:99.99px;fill:#000000" transform="rotate(-90 190.71,1294.96)" text-anchor="middle">Density</text>
	<line x1="390.80" y1="2489.19" x2="3859.02" y2="2489.19" style="stroke:#000000;stroke-width:5.76"/>
	<line x1="491.04" y1="2489.19" x2="491.04" y2="2529.16" style="stroke:#000000;stroke-width:5.76"/>
	<text x="491.04" y="2619.14" style="font-family:'Helvetica';font-size:99.99px;fill:#000000" text-anchor="middle">0</text>
	<line x1="1304.82" y1="2489.19" x2="1304.82" y2="2529.16" style="stroke:#000000;stroke-width:5.76"/>
	<text x="1304.82" y="2619.14" style="font-family:'Helvetica';font-size:99.99px;fill:#000000" text-anchor="middle">2000</text>
	<line x1="2118.72" y1="2489.19" x2="2118.72" y2="2529.16" style="stroke:#000000;stroke-width:5.76"/>
	<text x="2118.72" y="2619.14" style="font-family:'Helvetica';font-size:99.99px;fill:#000000" text-anchor="middle">4000</text>
	<line x1="2932.50" y1="2489.19" x2="2932.50" y2="2529.16" style="stroke:#000000;stroke-width:5.76"/>
	<text x="2932.50" y="2619.14" style="font-family:'Helvetica';font-size:99.99px;fill:#000000" text-anchor="middle">6000</text>
	<line x1="3746.28" y1="2489.19" x2="3746.28" y2="2529.16" style="stroke:#000000;stroke-width:5.76"/>
	<text x="3746.28" y="2619.14" style="font-family:'Helvetica';font-size:99.99px;fill:#000000" text-anchor="middle">8000</text>
	<text x="2124.91" y="2729.16" style="font-family:'Helvetica';font-size:99.99px;fill:#000000" text-anchor="middle">DOLLAREL</text>
</svg>
