<?xml version="1.0" encoding="UTF-8" standalone="no"?>
<!-- This is a Stata 15.1 generated SVG file (http://www.stata.com) -->

<svg version="1.1" width="5.50in" height="4.00in" viewBox="0 0 3960 2880" xmlns="http://www.w3.org/2000/svg" xmlns:xlink="http://www.w3.org/1999/xlink">
	<desc>Stata Graph - Graph</desc>
	<rect x="0" y="0" width="3960" height="2880" style="fill:#EAF2F3;stroke:none"/>
	<rect x="0.00" y="0.00" width="3959.88" height="2880.00" style="fill:#EAF2F3"/>
	<rect x="2.88" y="2.88" width="3954.12" height="2874.24" style="fill:none;stroke:#EAF2F3;stroke-width:5.76"/>
	<rect x="390.80" y="261.37" width="3468.22" height="1832.30" style="fill:#FFFFFF"/>
	<rect x="393.68" y="264.25" width="3462.46" height="1826.54" style="fill:none;stroke:#FFFFFF;stroke-width:5.76"/>
	<line x1="390.80" y1="1957.29" x2="3859.02" y2="1957.29" style="stroke:#EAF2F3;stroke-width:8.64"/>
	<line x1="390.80" y1="1639.99" x2="3859.02" y2="1639.99" style="stroke:#EAF2F3;stroke-width:8.64"/>
	<line x1="390.80" y1="1322.68" x2="3859.02" y2="1322.68" style="stroke:#EAF2F3;stroke-width:8.64"/>
	<line x1="390.80" y1="1005.38" x2="3859.02" y2="1005.38" style="stroke:#EAF2F3;stroke-width:8.64"/>
	<line x1="390.80" y1="688.07" x2="3859.02" y2="688.07" style="stroke:#EAF2F3;stroke-width:8.64"/>
	<line x1="390.80" y1="370.77" x2="3859.02" y2="370.77" style="stroke:#EAF2F3;stroke-width:8.64"/>
	<line x1="454.16" y1="1915.96" x2="454.16" y2="1829.21" style="stroke:#1A476F;stroke-width:8.64"/>
	<line x1="432.13" y1="1829.21" x2="476.19" y2="1829.21" stroke-linecap="round" style="stroke:#1A476F;stroke-width:8.64"/>
	<line x1="432.13" y1="1915.96" x2="476.19" y2="1915.96" stroke-linecap="round" style="stroke:#1A476F;stroke-width:8.64"/>
	<line x1="3795.66" y1="1012.06" x2="3795.66" y2="728.17" style="stroke:#1A476F;stroke-width:8.64"/>
	<line x1="3773.63" y1="728.17" x2="3817.69" y2="728.17" stroke-linecap="round" style="stroke:#1A476F;stroke-width:8.64"/>
	<line x1="3773.63" y1="1012.06" x2="3817.69" y2="1012.06" stroke-linecap="round" style="stroke:#1A476F;stroke-width:8.64"/>
	<line x1="454.16" y1="2030.31" x2="454.16" y2="1962.12" style="stroke:#90353B;stroke-width:8.64"/>
	<line x1="432.13" y1="1962.12" x2="476.19" y2="1962.12" stroke-linecap="round" style="stroke:#90353B;stroke-width:8.64"/>
	<line x1="432.13" y1="2030.31" x2="476.19" y2="2030.31" stroke-linecap="round" style="stroke:#90353B;stroke-width:8.64"/>
	<line x1="3795.66" y1="1167.87" x2="3795.66" y2="957.36" style="stroke:#90353B;stroke-width:8.64"/>
	<line x1="3773.63" y1="957.36" x2="3817.69" y2="957.36" stroke-linecap="round" style="stroke:#90353B;stroke-width:8.64"/>
	<line x1="3773.63" y1="1167.87" x2="3817.69" y2="1167.87" stroke-linecap="round" style="stroke:#90353B;stroke-width:8.64"/>
	<line x1="454.16" y1="1734.91" x2="454.16" y2="1683.67" style="stroke:#55752F;stroke-width:8.64"/>
	<line x1="432.13" y1="1683.67" x2="476.19" y2="1683.67" stroke-linecap="round" style="stroke:#55752F;stroke-width:8.64"/>
	<line x1="432.13" y1="1734.91" x2="476.19" y2="1734.91" stroke-linecap="round" style="stroke:#55752F;stroke-width:8.64"/>
	<line x1="3795.66" y1="516.42" x2="3795.66" y2="324.73" style="stroke:#55752F;stroke-width:8.64"/>
	<line x1="3773.63" y1="324.73" x2="3817.69" y2="324.73" stroke-linecap="round" style="stroke:#55752F;stroke-width:8.64"/>
	<line x1="3773.63" y1="516.42" x2="3817.69" y2="516.42" stroke-linecap="round" style="stroke:#55752F;stroke-width:8.64"/>
	<line x1="454.16" y1="2013.97" x2="454.16" y2="1957.91" style="stroke:#E37E00;stroke-width:8.64"/>
	<line x1="432.13" y1="1957.91" x2="476.19" y2="1957.91" stroke-linecap="round" style="stroke:#E37E00;stroke-width:8.64"/>
	<line x1="432.13" y1="2013.97" x2="476.19" y2="2013.97" stroke-linecap="round" style="stroke:#E37E00;stroke-width:8.64"/>
	<line x1="3795.66" y1="897.46" x2="3795.66" y2="656.89" style="stroke:#E37E00;stroke-width:8.64"/>
	<line x1="3773.63" y1="656.89" x2="3817.69" y2="656.89" stroke-linecap="round" style="stroke:#E37E00;stroke-width:8.64"/>
	<line x1="3773.63" y1="897.46" x2="3817.69" y2="897.46" stroke-linecap="round" style="stroke:#E37E00;stroke-width:8.64"/>
	<line x1="454.04" y1="1872.64" x2="3795.66" y2="870.24" stroke-linecap="round" style="stroke:#1A476F;stroke-width:8.64"/>
	<circle cx="454.04" cy="1872.64" r="26.35" style="fill:#1A476F"/>
	<circle cx="454.04" cy="1872.64" r="22.03" style="fill:none;stroke:#1A476F;stroke-width:8.64"/>
	<circle cx="3795.66" cy="870.24" r="26.35" style="fill:#1A476F"/>
	<circle cx="3795.66" cy="870.24" r="22.03" style="fill:none;stroke:#1A476F;stroke-width:8.64"/>
	<line x1="454.04" y1="1996.27" x2="3795.66" y2="1062.67" stroke-linecap="round" style="stroke:#90353B;stroke-width:8.64"/>
	<circle cx="454.04" cy="1996.27" r="26.35" style="fill:#90353B"/>
	<circle cx="454.04" cy="1996.27" r="22.03" style="fill:none;stroke:#90353B;stroke-width:8.64"/>
	<circle cx="3795.66" cy="1062.67" r="26.35" style="fill:#90353B"/>
	<circle cx="3795.66" cy="1062.67" r="22.03" style="fill:none;stroke:#90353B;stroke-width:8.64"/>
	<line x1="454.04" y1="1709.41" x2="3795.66" y2="420.64" stroke-linecap="round" style="stroke:#55752F;stroke-width:8.64"/>
	<circle cx="454.04" cy="1709.41" r="26.35" style="fill:#55752F"/>
	<circle cx="454.04" cy="1709.41" r="22.03" style="fill:none;stroke:#55752F;stroke-width:8.64"/>
	<circle cx="3795.66" cy="420.64" r="26.35" style="fill:#55752F"/>
	<circle cx="3795.66" cy="420.64" r="22.03" style="fill:none;stroke:#55752F;stroke-width:8.64"/>
	<line x1="454.04" y1="1986.00" x2="3795.66" y2="777.30" stroke-linecap="round" style="stroke:#E37E00;stroke-width:8.64"/>
	<circle cx="454.04" cy="1986.00" r="26.35" style="fill:#E37E00"/>
	<circle cx="454.04" cy="1986.00" r="22.03" style="fill:none;stroke:#E37E00;stroke-width:8.64"/>
	<circle cx="3795.66" cy="777.30" r="26.35" style="fill:#E37E00"/>
	<circle cx="3795.66" cy="777.30" r="22.03" style="fill:none;stroke:#E37E00;stroke-width:8.64"/>
	<line x1="390.80" y1="2093.67" x2="390.80" y2="261.37" style="stroke:#000000;stroke-width:5.76"/>
	<line x1="390.80" y1="1957.29" x2="350.83" y2="1957.29" style="stroke:#000000;stroke-width:5.76"/>
	<text x="300.72" y="1957.29" style="font-family:'Helvetica';font-size:99.99px;fill:#000000" transform="rotate(-90 300.72,1957.29)" text-anchor="middle">1000</text>
	<line x1="390.80" y1="1639.99" x2="350.83" y2="1639.99" style="stroke:#000000;stroke-width:5.76"/>
	<text x="300.72" y="1639.99" style="font-family:'Helvetica';font-size:99.99px;fill:#000000" transform="rotate(-90 300.72,1639.99)" text-anchor="middle">1500</text>
	<line x1="390.80" y1="1322.68" x2="350.83" y2="1322.68" style="stroke:#000000;stroke-width:5.76"/>
	<text x="300.72" y="1322.68" style="font-family:'Helvetica';font-size:99.99px;fill:#000000" transform="rotate(-90 300.72,1322.68)" text-anchor="middle">2000</text>
	<line x1="390.80" y1="1005.38" x2="350.83" y2="1005.38" style="stroke:#000000;stroke-width:5.76"/>
	<text x="300.72" y="1005.38" style="font-family:'Helvetica';font-size:99.99px;fill:#000000" transform="rotate(-90 300.72,1005.38)" text-anchor="middle">2500</text>
	<line x1="390.80" y1="688.07" x2="350.83" y2="688.07" style="stroke:#000000;stroke-width:5.76"/>
	<text x="300.72" y="688.07" style="font-family:'Helvetica';font-size:99.99px;fill:#000000" transform="rotate(-90 300.72,688.07)" text-anchor="middle">3000</text>
	<line x1="390.80" y1="370.77" x2="350.83" y2="370.77" style="stroke:#000000;stroke-width:5.76"/>
	<text x="300.72" y="370.77" style="font-family:'Helvetica';font-size:99.99px;fill:#000000" transform="rotate(-90 300.72,370.77)" text-anchor="middle">3500</text>
	<text x="190.71" y="1177.52" style="font-family:'Helvetica';font-size:99.99px;fill:#000000" transform="rotate(-90 190.71,1177.52)" text-anchor="middle">Linear Prediction</text>
	<line x1="390.80" y1="2093.67" x2="3859.02" y2="2093.67" style="stroke:#000000;stroke-width:5.76"/>
	<line x1="454.16" y1="2093.67" x2="454.16" y2="2133.64" style="stroke:#000000;stroke-width:5.76"/>
	<text x="454.16" y="2223.62" style="font-family:'Helvetica';font-size:99.99px;fill:#000000" text-anchor="middle">1000</text>
	<line x1="3795.66" y1="2093.67" x2="3795.66" y2="2133.64" style="stroke:#000000;stroke-width:5.76"/>
	<text x="3795.66" y="2223.62" style="font-family:'Helvetica';font-size:99.99px;fill:#000000" text-anchor="middle">8000</text>
	<text x="2124.91" y="2333.64" style="font-family:'Helvetica';font-size:99.99px;fill:#000000" text-anchor="middle">TOTSQFT_EN</text>
	<rect x="1168.45" y="2418.27" width="1913.05" height="326.34" style="fill:#FFFFFF"/>
	<rect x="1171.33" y="2421.15" width="1907.29" height="320.58" style="fill:none;stroke:#000000;stroke-width:5.76"/>
	<line x1="1211.64" y1="2511.46" x2="1585.98" y2="2511.46" style="stroke:#1A476F;stroke-width:8.64"/>
	<circle cx="1398.75" cy="2511.46" r="26.35" style="fill:#1A476F"/>
	<circle cx="1398.75" cy="2511.46" r="22.03" style="fill:none;stroke:#1A476F;stroke-width:8.64"/>
	<line x1="2227.99" y1="2511.46" x2="2602.34" y2="2511.46" style="stroke:#90353B;stroke-width:8.64"/>
	<circle cx="2415.23" cy="2511.46" r="26.35" style="fill:#90353B"/>
	<circle cx="2415.23" cy="2511.46" r="22.03" style="fill:none;stroke:#90353B;stroke-width:8.64"/>
	<line x1="1211.64" y1="2651.43" x2="1585.98" y2="2651.43" style="stroke:#55752F;stroke-width:8.64"/>
	<circle cx="1398.75" cy="2651.43" r="26.35" style="fill:#55752F"/>
	<circle cx="1398.75" cy="2651.43" r="22.03" style="fill:none;stroke:#55752F;stroke-width:8.64"/>
	<line x1="2227.99" y1="2651.43" x2="2602.34" y2="2651.43" style="stroke:#E37E00;stroke-width:8.64"/>
	<circle cx="2415.23" cy="2651.43" r="26.35" style="fill:#E37E00"/>
	<circle cx="2415.23" cy="2651.43" r="22.03" style="fill:none;stroke:#E37E00;stroke-width:8.64"/>
	<text x="1646.00" y="2546.49" style="font-family:'Helvetica';font-size:99.99px;fill:#000000">Northeast</text>
	<text x="2662.36" y="2546.49" style="font-family:'Helvetica';font-size:99.99px;fill:#000000">Midwest</text>
	<text x="1646.00" y="2686.46" style="font-family:'Helvetica';font-size:99.99px;fill:#000000">South</text>
	<text x="2662.36" y="2686.46" style="font-family:'Helvetica';font-size:99.99px;fill:#000000">West</text>
	<text x="1980.00" y="206.19" style="font-family:'Helvetica';font-size:125.98px;fill:#1E2D53" text-anchor="middle">Predictive Margins of regionc with 95% CIs</text>
</svg>
